<svg xmlns="http://www.w3.org/2000/svg" viewBox="0 0 860 470" font-family="Segoe UI, Malgun Gothic, Apple SD Gothic Neo, sans-serif">
<defs><marker id="ar-blue" viewBox="0 0 10 10" refX="8.5" refY="5" markerWidth="6.5" markerHeight="6.5" orient="auto-start-reverse"><path d="M0,0 L10,5 L0,10 z" fill="#2563eb"/></marker><marker id="ar-orange" viewBox="0 0 10 10" refX="8.5" refY="5" markerWidth="6.5" markerHeight="6.5" orient="auto-start-reverse"><path d="M0,0 L10,5 L0,10 z" fill="#ea580c"/></marker><marker id="ar-green" viewBox="0 0 10 10" refX="8.5" refY="5" markerWidth="6.5" markerHeight="6.5" orient="auto-start-reverse"><path d="M0,0 L10,5 L0,10 z" fill="#16a34a"/></marker><marker id="ar-red" viewBox="0 0 10 10" refX="8.5" refY="5" markerWidth="6.5" markerHeight="6.5" orient="auto-start-reverse"><path d="M0,0 L10,5 L0,10 z" fill="#dc2626"/></marker><marker id="ar-violet" viewBox="0 0 10 10" refX="8.5" refY="5" markerWidth="6.5" markerHeight="6.5" orient="auto-start-reverse"><path d="M0,0 L10,5 L0,10 z" fill="#7c3aed"/></marker><marker id="ar-sky" viewBox="0 0 10 10" refX="8.5" refY="5" markerWidth="6.5" markerHeight="6.5" orient="auto-start-reverse"><path d="M0,0 L10,5 L0,10 z" fill="#0284c7"/></marker><marker id="ar-ax" viewBox="0 0 10 10" refX="8.5" refY="5" markerWidth="6.5" markerHeight="6.5" orient="auto-start-reverse"><path d="M0,0 L10,5 L0,10 z" fill="#94a3b8"/></marker><marker id="ar-mut" viewBox="0 0 10 10" refX="8.5" refY="5" markerWidth="6.5" markerHeight="6.5" orient="auto-start-reverse"><path d="M0,0 L10,5 L0,10 z" fill="#64748b"/></marker><marker id="ar-amber" viewBox="0 0 10 10" refX="8.5" refY="5" markerWidth="6.5" markerHeight="6.5" orient="auto-start-reverse"><path d="M0,0 L10,5 L0,10 z" fill="#d97706"/></marker></defs>
<rect x="1" y="1" width="858" height="468" rx="14" fill="#ffffff" stroke="#e2e8f0" stroke-width="2"/>
<text x="430" y="32" font-size="17" fill="#1e293b" text-anchor="middle" font-weight="700">수신기 출력의 포락선과 문턱 — 검출·미검출·오경보는 한 장의 그림 위에 있다</text>
<text x="430" y="52" font-size="11.5" fill="#64748b" text-anchor="middle" font-weight="400">문턱 하나가 세 사건을 동시에 정한다. 내리면 C 가 보이는 대신 오경보가 늘고, 올리면 그 반대다.</text>
<rect x="56" y="76" width="760" height="238" rx="10" fill="#f8fafc" stroke="#cbd5e1" stroke-width="1.4"/>
<line x1="88" y1="246.762" x2="798" y2="246.762" stroke="#eef2f7" stroke-width="1.2"/>
<line x1="88" y1="201.524" x2="798" y2="201.524" stroke="#eef2f7" stroke-width="1.2"/>
<line x1="88" y1="156.286" x2="798" y2="156.286" stroke="#eef2f7" stroke-width="1.2"/>
<line x1="88" y1="111.048" x2="798" y2="111.048" stroke="#eef2f7" stroke-width="1.2"/>
<line x1="88" y1="292" x2="806" y2="292" stroke="#94a3b8" stroke-width="1.5" marker-end="url(#ar-ax)"/>
<line x1="88" y1="292" x2="88" y2="94" stroke="#94a3b8" stroke-width="1.5" marker-end="url(#ar-ax)"/>
<text x="81" y="250.262" font-size="10.5" fill="#64748b" text-anchor="end" font-weight="400">2</text>
<text x="81" y="205.024" font-size="10.5" fill="#64748b" text-anchor="end" font-weight="400">4</text>
<text x="81" y="159.786" font-size="10.5" fill="#64748b" text-anchor="end" font-weight="400">6</text>
<text x="81" y="114.548" font-size="10.5" fill="#64748b" text-anchor="end" font-weight="400">8</text>
<text x="92" y="96" font-size="11.5" fill="#64748b" text-anchor="start" font-weight="400">수신기 출력 (포락선)</text>
<text x="804" y="296" font-size="11.5" fill="#64748b" text-anchor="start" font-weight="700">시간 (거리)</text>
<path d="M88.0,282.7 L88.5,289.7 L89.0,284.3 L89.5,274.1 L90.0,266.2 L90.5,260.7 L91.0,260.6 L91.5,267.2 L92.1,273.6 L92.6,274.3 L93.1,270.4 L93.6,261.6 L94.1,256.7 L94.6,258.3 L95.1,258.3 L95.6,250.9 L96.1,245.0 L96.6,247.9 L97.1,258.0 L97.6,273.7 L98.1,283.6 L98.7,281.4 L99.2,276.0 L99.7,274.1 L100.2,275.5 L100.7,276.1 L101.2,271.0 L101.7,259.8 L102.2,252.7 L102.7,256.6 L103.2,264.9 L103.7,261.6 L104.2,254.4 L104.7,256.9 L105.2,260.7 L105.8,255.3 L106.3,246.4 L106.8,241.8 L107.3,249.7 L107.8,265.5 L108.3,275.3 L108.8,279.4 L109.3,285.0 L109.8,282.0 L110.3,264.3 L110.8,246.3 L111.3,239.9 L111.8,248.0 L112.3,263.2 L112.8,276.2 L113.4,283.8 L113.9,285.7 L114.4,273.8 L114.9,262.6 L115.4,255.6 L115.9,249.7 L116.4,242.8 L116.9,240.6 L117.4,245.6 L117.9,258.2 L118.4,270.7 L118.9,280.7 L119.4,290.0 L120.0,275.9 L120.5,270.8 L121.0,271.2 L121.5,255.0 L122.0,236.7 L122.5,234.6 L123.0,247.2 L123.5,254.6 L124.0,255.4 L124.5,262.3 L125.0,269.9 L125.5,275.5 L126.0,281.1 L126.5,282.1 L127.0,279.3 L127.6,276.1 L128.1,271.2 L128.6,265.5 L129.1,262.4 L129.6,263.3 L130.1,264.9 L130.6,269.5 L131.1,278.0 L131.6,285.3 L132.1,282.5 L132.6,276.4 L133.1,273.7 L133.6,274.4 L134.2,272.6 L134.7,260.4 L135.2,245.0 L135.7,232.0 L136.2,228.0 L136.7,234.6 L137.2,246.4 L137.7,258.3 L138.2,267.2 L138.7,276.7 L139.2,284.3 L139.7,281.7 L140.2,281.6 L140.7,279.5 L141.2,269.8 L141.8,269.6 L142.3,273.3 L142.8,270.7 L143.3,264.6 L143.8,266.2 L144.3,273.9 L144.8,266.4 L145.3,253.2 L145.8,249.8 L146.3,263.6 L146.8,278.6 L147.3,274.7 L147.8,261.5 L148.3,239.4 L148.9,224.2 L149.4,226.2 L149.9,241.7 L150.4,253.6 L150.9,253.9 L151.4,258.7 L151.9,277.0 L152.4,283.0 L152.9,264.7 L153.4,256.6 L153.9,258.8 L154.4,261.2 L154.9,261.1 L155.4,260.7 L156.0,263.0 L156.5,275.5 L157.0,276.5 L157.5,243.6 L158.0,224.6 L158.5,233.5 L159.0,261.3 L159.5,270.1 L160.0,253.7 L160.5,251.2 L161.0,260.5 L161.5,267.3 L162.0,268.1 L162.6,269.2 L163.1,270.8 L163.6,272.0 L164.1,261.5 L164.6,244.9 L165.1,240.1 L165.6,248.6 L166.1,255.6 L166.6,256.5 L167.1,264.5 L167.6,281.5 L168.1,277.2 L168.6,266.5 L169.1,269.1 L169.7,270.5 L170.2,260.5 L170.7,251.0 L171.2,247.7 L171.7,254.0 L172.2,264.4 L172.7,272.2 L173.2,276.9 L173.7,277.9 L174.2,276.7 L174.7,272.2 L175.2,263.1 L175.7,256.3 L176.2,257.8 L176.8,263.6 L177.3,264.1 L177.8,265.3 L178.3,268.4 L178.8,271.1 L179.3,269.9 L179.8,267.9 L180.3,268.5 L180.8,259.0 L181.3,244.5 L181.8,240.8 L182.3,245.8 L182.8,251.9 L183.3,255.6 L183.9,250.2 L184.4,240.0 L184.9,240.9 L185.4,257.3 L185.9,277.0 L186.4,284.7 L186.9,275.6 L187.4,269.0 L187.9,270.9 L188.4,276.4 L188.9,274.8 L189.4,267.6 L189.9,266.3 L190.4,275.6 L190.9,281.6 L191.5,266.5 L192.0,252.8 L192.5,246.7 L193.0,251.8 L193.5,262.0 L194.0,270.3 L194.5,276.6 L195.0,277.5 L195.5,277.1 L196.0,283.3 L196.5,278.6 L197.0,263.2 L197.5,258.7 L198.1,267.5 L198.6,282.8 L199.1,287.7 L199.6,283.1 L200.1,271.4 L200.6,262.4 L201.1,262.5 L201.6,268.0 L202.1,255.7 L202.6,244.3 L203.1,251.8 L203.6,275.1 L204.1,275.9 L204.6,265.6 L205.2,269.9 L205.7,281.5 L206.2,288.2 L206.7,275.0 L207.2,257.7 L207.7,246.0 L208.2,244.8 L208.7,249.7 L209.2,251.9 L209.7,244.6 L210.2,238.4 L210.7,241.4 L211.2,249.2 L211.7,262.1 L212.2,282.0 L212.8,273.0 L213.3,261.4 L213.8,259.1 L214.3,264.5 L214.8,274.4 L215.3,278.5 L215.8,279.3 L216.3,280.7 L216.8,271.2 L217.3,262.1 L217.8,263.7 L218.3,275.8 L218.8,273.1 L219.3,261.9 L219.9,259.7 L220.4,261.6 L220.9,263.8 L221.4,263.6 L221.9,263.0 L222.4,265.9 L222.9,271.9 L223.4,279.3 L223.9,283.9 L224.4,275.6 L224.9,269.6 L225.4,268.0 L225.9,256.8 L226.5,245.9 L227.0,251.0 L227.5,268.8 L228.0,284.1 L228.5,284.2 L229.0,275.8 L229.5,261.3 L230.0,254.5 L230.5,261.2 L231.0,273.6 L231.5,279.7 L232.0,275.6 L232.5,272.2 L233.0,270.3 L233.5,268.0 L234.1,263.3 L234.6,261.2 L235.1,256.9 L235.6,242.6 L236.1,224.8 L236.6,209.0 L237.1,194.9 L237.6,177.9 L238.1,161.5 L238.6,151.1 L239.1,149.7 L239.6,155.8 L240.1,165.3 L240.7,172.0 L241.2,171.1 L241.7,166.6 L242.2,167.6 L242.7,175.9 L243.2,193.0 L243.7,220.6 L244.2,251.4 L244.7,272.6 L245.2,270.9 L245.7,262.4 L246.2,261.3 L246.7,267.3 L247.2,275.5 L247.8,279.0 L248.3,277.3 L248.8,278.0 L249.3,280.1 L249.8,279.3 L250.3,276.3 L250.8,270.4 L251.3,254.8 L251.8,243.6 L252.3,249.8 L252.8,272.5 L253.3,282.2 L253.8,265.5 L254.3,270.2 L254.8,285.6 L255.4,283.4 L255.9,277.7 L256.4,270.4 L256.9,260.0 L257.4,254.0 L257.9,258.7 L258.4,268.6 L258.9,270.8 L259.4,273.7 L259.9,286.6 L260.4,279.5 L260.9,277.2 L261.4,283.1 L261.9,284.9 L262.5,280.8 L263.0,273.1 L263.5,269.1 L264.0,274.6 L264.5,287.5 L265.0,277.9 L265.5,268.3 L266.0,262.2 L266.5,264.0 L267.0,268.4 L267.5,257.4 L268.0,241.5 L268.5,238.6 L269.1,251.8 L269.6,274.8 L270.1,278.9 L270.6,261.3 L271.1,252.4 L271.6,249.7 L272.1,249.9 L272.6,254.1 L273.1,261.5 L273.6,274.8 L274.1,289.6 L274.6,274.6 L275.1,264.7 L275.6,257.7 L276.1,252.3 L276.7,246.5 L277.2,240.0 L277.7,243.9 L278.2,260.4 L278.7,275.7 L279.2,282.3 L279.7,290.8 L280.2,280.8 L280.7,286.5 L281.2,274.5 L281.7,251.3 L282.2,242.0 L282.7,245.8 L283.2,259.1 L283.8,272.6 L284.3,282.0 L284.8,272.4 L285.3,254.7 L285.8,247.7 L286.3,255.9 L286.8,267.6 L287.3,264.6 L287.8,256.6 L288.3,254.1 L288.8,258.8 L289.3,267.6 L289.8,275.4 L290.4,280.6 L290.9,285.0 L291.4,285.8 L291.9,280.6 L292.4,273.9 L292.9,269.2 L293.4,270.8 L293.9,277.0 L294.4,267.8 L294.9,246.6 L295.4,224.4 L295.9,212.8 L296.4,221.4 L296.9,244.0 L297.4,272.0 L298.0,284.6 L298.5,266.9 L299.0,255.9 L299.5,251.5 L300.0,257.4 L300.5,269.7 L301.0,284.2 L301.5,273.4 L302.0,254.2 L302.5,247.4 L303.0,257.2 L303.5,267.9 L304.0,266.0 L304.5,266.8 L305.1,276.7 L305.6,283.8 L306.1,278.4 L306.6,275.3 L307.1,274.6 L307.6,273.6 L308.1,271.1 L308.6,266.2 L309.1,263.2 L309.6,264.1 L310.1,271.4 L310.6,283.2 L311.1,285.1 L311.6,272.9 L312.2,263.9 L312.7,253.0 L313.2,241.0 L313.7,236.9 L314.2,246.1 L314.7,259.7 L315.2,266.9 L315.7,269.1 L316.2,263.0 L316.7,250.3 L317.2,240.4 L317.7,238.7 L318.2,248.5 L318.8,265.1 L319.3,278.2 L319.8,284.4 L320.3,289.5 L320.8,285.5 L321.3,273.1 L321.8,252.3 L322.3,231.0 L322.8,223.4 L323.3,235.8 L323.8,264.5 L324.3,281.5 L324.8,268.2 L325.3,267.3 L325.9,277.7 L326.4,290.7 L326.9,277.6 L327.4,261.1 L327.9,246.5 L328.4,248.3 L328.9,269.5 L329.4,283.1 L329.9,265.1 L330.4,253.6 L330.9,246.3 L331.4,243.3 L331.9,249.3 L332.4,263.6 L332.9,270.9 L333.5,263.9 L334.0,259.9 L334.5,260.5 L335.0,268.4 L335.5,278.7 L336.0,276.5 L336.5,270.2 L337.0,261.4 L337.5,248.7 L338.0,239.7 L338.5,241.5 L339.0,248.8 L339.5,246.4 L340.0,237.4 L340.6,241.2 L341.1,260.5 L341.6,280.8 L342.1,280.1 L342.6,259.3 L343.1,241.6 L343.6,245.7 L344.1,269.0 L344.6,281.6 L345.1,273.6 L345.6,283.4 L346.1,280.2 L346.6,271.4 L347.1,272.4 L347.7,269.9 L348.2,254.7 L348.7,242.6 L349.2,245.0 L349.7,255.0 L350.2,259.5 L350.7,262.2 L351.2,263.2 L351.7,262.2 L352.2,268.9 L352.7,275.4 L353.2,269.4 L353.7,259.9 L354.2,255.8 L354.8,256.0 L355.3,258.8 L355.8,264.4 L356.3,272.7 L356.8,274.3 L357.3,268.6 L357.8,266.9 L358.3,272.2 L358.8,277.0 L359.3,281.7 L359.8,276.8 L360.3,259.3 L360.8,238.4 L361.4,226.0 L361.9,226.5 L362.4,232.6 L362.9,234.5 L363.4,231.6 L363.9,229.9 L364.4,233.1 L364.9,244.7 L365.4,263.7 L365.9,280.4 L366.4,272.3 L366.9,265.2 L367.4,258.5 L367.9,250.6 L368.4,251.7 L369.0,265.5 L369.5,273.6 L370.0,258.1 L370.5,246.0 L371.0,246.2 L371.5,255.5 L372.0,267.2 L372.5,274.2 L373.0,275.3 L373.5,276.3 L374.0,279.3 L374.5,282.2 L375.0,284.9 L375.6,288.8 L376.1,284.6 L376.6,280.3 L377.1,276.9 L377.6,273.8 L378.1,272.3 L378.6,274.2 L379.1,281.2 L379.6,282.1 L380.1,276.7 L380.6,274.8 L381.1,274.8 L381.6,263.0 L382.1,248.4 L382.6,244.6 L383.2,255.9 L383.7,273.0 L384.2,274.2 L384.7,272.4 L385.2,269.6 L385.7,264.6 L386.2,263.1 L386.7,268.6 L387.2,277.2 L387.7,279.7 L388.2,270.8 L388.7,262.1 L389.2,257.3 L389.8,262.2 L390.3,273.7 L390.8,277.4 L391.3,274.6 L391.8,274.0 L392.3,278.1 L392.8,286.8 L393.3,287.5 L393.8,286.5 L394.3,286.5 L394.8,284.3 L395.3,286.5 L395.8,288.1 L396.3,279.3 L396.9,269.0 L397.4,262.1 L397.9,258.8 L398.4,253.1 L398.9,249.5 L399.4,256.1 L399.9,268.3 L400.4,280.3 L400.9,286.6 L401.4,281.3 L401.9,280.9 L402.4,284.5 L402.9,283.9 L403.4,274.2 L403.9,264.6 L404.5,256.4 L405.0,248.8 L405.5,246.8 L406.0,252.8 L406.5,266.0 L407.0,284.9 L407.5,278.9 L408.0,273.8 L408.5,282.6 L409.0,275.5 L409.5,262.1 L410.0,262.7 L410.5,272.3 L411.1,279.2 L411.6,280.8 L412.1,275.7 L412.6,262.4 L413.1,254.8 L413.6,261.1 L414.1,269.3 L414.6,271.0 L415.1,273.2 L415.6,275.7 L416.1,278.0 L416.6,286.2 L417.1,281.2 L417.6,268.4 L418.2,259.5 L418.7,247.5 L419.2,241.3 L419.7,251.5 L420.2,278.4 L420.7,274.1 L421.2,252.0 L421.7,245.1 L422.2,253.4 L422.7,263.6 L423.2,261.6 L423.7,259.2 L424.2,257.4 L424.7,252.8 L425.2,249.6 L425.8,247.7 L426.3,247.7 L426.8,254.7 L427.3,260.8 L427.8,252.5 L428.3,243.3 L428.8,242.5 L429.3,250.0 L429.8,258.6 L430.3,250.8 L430.8,239.8 L431.3,238.7 L431.8,245.5 L432.3,253.6 L432.9,259.0 L433.4,264.4 L433.9,273.9 L434.4,281.5 L434.9,277.0 L435.4,276.5 L435.9,277.3 L436.4,275.1 L436.9,279.7 L437.4,287.2 L437.9,280.1 L438.4,271.5 L438.9,262.5 L439.4,247.9 L440.0,232.7 L440.5,225.7 L441.0,228.3 L441.5,239.2 L442.0,257.3 L442.5,273.2 L443.0,277.1 L443.5,276.6 L444.0,275.2 L444.5,279.9 L445.0,284.8 L445.5,284.1 L446.0,287.3 L446.6,289.7 L447.1,278.4 L447.6,266.3 L448.1,255.0 L448.6,243.8 L449.1,238.9 L449.6,240.0 L450.1,242.6 L450.6,243.0 L451.1,237.9 L451.6,227.2 L452.1,214.0 L452.6,207.0 L453.1,213.0 L453.7,227.0 L454.2,239.7 L454.7,241.0 L455.2,229.7 L455.7,215.4 L456.2,212.1 L456.7,223.0 L457.2,234.0 L457.7,237.0 L458.2,237.1 L458.7,242.6 L459.2,256.7 L459.7,271.2 L460.2,273.8 L460.8,273.1 L461.3,277.5 L461.8,268.1 L462.3,257.3 L462.8,256.5 L463.3,257.0 L463.8,255.5 L464.3,257.5 L464.8,268.7 L465.3,291.3 L465.8,266.7 L466.3,257.1 L466.8,268.5 L467.3,288.1 L467.9,279.0 L468.4,275.3 L468.9,283.7 L469.4,270.5 L469.9,252.6 L470.4,246.0 L470.9,250.7 L471.4,262.0 L471.9,268.7 L472.4,262.8 L472.9,253.6 L473.4,251.2 L473.9,253.9 L474.4,258.1 L475.0,254.3 L475.5,243.0 L476.0,241.7 L476.5,252.7 L477.0,274.7 L477.5,269.3 L478.0,242.6 L478.5,227.7 L479.0,224.7 L479.5,234.8 L480.0,254.0 L480.5,275.0 L481.0,285.9 L481.5,275.5 L482.1,267.6 L482.6,261.5 L483.1,262.2 L483.6,275.5 L484.1,275.8 L484.6,250.1 L485.1,235.9 L485.6,240.7 L486.1,261.7 L486.6,285.0 L487.1,270.3 L487.6,255.0 L488.1,252.8 L488.6,262.3 L489.1,268.8 L489.7,264.9 L490.2,261.8 L490.7,263.4 L491.2,266.5 L491.7,261.8 L492.2,255.2 L492.7,261.4 L493.2,271.8 L493.7,271.9 L494.2,278.1 L494.7,284.7 L495.2,266.2 L495.7,259.1 L496.2,268.4 L496.8,284.1 L497.3,280.1 L497.8,272.3 L498.3,267.4 L498.8,258.5 L499.3,248.0 L499.8,245.5 L500.3,254.8 L500.8,270.4 L501.3,283.7 L501.8,281.3 L502.3,272.4 L502.8,264.6 L503.3,260.7 L503.9,261.3 L504.4,257.7 L504.9,246.2 L505.4,235.8 L505.9,238.0 L506.4,258.4 L506.9,270.6 L507.4,256.6 L507.9,251.7 L508.4,263.4 L508.9,281.7 L509.4,281.5 L509.9,273.8 L510.4,265.6 L511.0,260.5 L511.5,268.4 L512.0,269.0 L512.5,257.5 L513.0,247.2 L513.5,243.3 L514.0,245.1 L514.5,250.3 L515.0,256.9 L515.5,260.1 L516.0,252.8 L516.5,240.5 L517.0,233.6 L517.5,240.4 L518.1,260.5 L518.6,280.7 L519.1,287.2 L519.6,280.0 L520.1,272.3 L520.6,268.7 L521.1,269.9 L521.6,279.0 L522.1,287.9 L522.6,277.1 L523.1,271.8 L523.6,261.5 L524.1,251.3 L524.6,250.7 L525.2,262.5 L525.7,276.8 L526.2,273.1 L526.7,270.4 L527.2,271.2 L527.7,267.1 L528.2,260.7 L528.7,261.5 L529.2,272.7 L529.7,285.0 L530.2,276.8 L530.7,260.9 L531.2,243.5 L531.8,236.0 L532.3,242.7 L532.8,260.1 L533.3,277.4 L533.8,285.1 L534.3,288.9 L534.8,275.8 L535.3,259.3 L535.8,253.6 L536.3,256.5 L536.8,253.3 L537.3,246.0 L537.8,240.6 L538.3,231.7 L538.9,226.6 L539.4,235.1 L539.9,248.9 L540.4,254.8 L540.9,252.6 L541.4,247.3 L541.9,246.1 L542.4,253.9 L542.9,268.0 L543.4,272.0 L543.9,261.9 L544.4,249.5 L544.9,240.7 L545.4,238.2 L546.0,246.7 L546.5,262.5 L547.0,269.1 L547.5,262.4 L548.0,253.6 L548.5,247.3 L549.0,249.2 L549.5,255.0 L550.0,259.0 L550.5,261.0 L551.0,259.4 L551.5,254.4 L552.0,245.3 L552.5,240.8 L553.0,248.1 L553.6,257.0 L554.1,253.0 L554.6,246.9 L555.1,251.5 L555.6,268.5 L556.1,286.2 L556.6,263.7 L557.1,255.4 L557.6,265.2 L558.1,279.1 L558.6,282.9 L559.1,286.2 L559.6,272.5 L560.2,256.0 L560.7,246.6 L561.2,250.0 L561.7,260.8 L562.2,256.8 L562.7,242.0 L563.2,232.3 L563.7,231.6 L564.2,240.9 L564.7,253.4 L565.2,257.9 L565.7,255.6 L566.2,257.3 L566.7,269.1 L567.2,278.1 L567.8,260.2 L568.3,234.4 L568.8,214.2 L569.3,210.9 L569.8,225.8 L570.3,248.0 L570.8,270.7 L571.3,270.6 L571.8,258.0 L572.3,256.6 L572.8,261.3 L573.3,252.8 L573.8,236.1 L574.4,235.0 L574.9,251.4 L575.4,269.3 L575.9,270.1 L576.4,250.4 L576.9,231.1 L577.4,230.0 L577.9,248.3 L578.4,273.6 L578.9,287.1 L579.4,278.4 L579.9,279.7 L580.4,288.1 L580.9,290.1 L581.5,285.0 L582.0,275.8 L582.5,265.0 L583.0,261.4 L583.5,267.9 L584.0,276.4 L584.5,276.7 L585.0,277.2 L585.5,278.5 L586.0,276.8 L586.5,272.1 L587.0,269.1 L587.5,274.1 L588.0,280.7 L588.5,280.5 L589.1,286.9 L589.6,278.0 L590.1,252.8 L590.6,233.1 L591.1,227.2 L591.6,233.8 L592.1,243.6 L592.6,251.6 L593.1,258.2 L593.6,264.8 L594.1,273.6 L594.6,284.0 L595.1,284.6 L595.6,283.4 L596.2,286.2 L596.7,272.3 L597.2,259.0 L597.7,252.1 L598.2,248.8 L598.7,246.2 L599.2,247.5 L599.7,254.5 L600.2,262.7 L600.7,267.3 L601.2,262.3 L601.7,253.8 L602.2,249.3 L602.8,254.2 L603.3,268.0 L603.8,272.2 L604.3,253.4 L604.8,244.1 L605.3,249.2 L605.8,264.4 L606.3,287.2 L606.8,269.0 L607.3,246.2 L607.8,234.5 L608.3,237.4 L608.8,254.6 L609.3,270.5 L609.9,266.8 L610.4,265.5 L610.9,273.2 L611.4,279.5 L611.9,275.5 L612.4,269.5 L612.9,268.5 L613.4,273.8 L613.9,277.8 L614.4,276.5 L614.9,274.8 L615.4,275.7 L615.9,276.7 L616.4,276.8 L617.0,264.8 L617.5,251.5 L618.0,247.6 L618.5,254.9 L619.0,266.2 L619.5,273.1 L620.0,273.5 L620.5,278.5 L621.0,287.5 L621.5,275.5 L622.0,266.7 L622.5,264.7 L623.0,267.9 L623.5,268.9 L624.0,256.2 L624.6,235.4 L625.1,222.0 L625.6,222.9 L626.1,232.5 L626.6,242.9 L627.1,251.1 L627.6,258.8 L628.1,270.7 L628.6,287.2 L629.1,277.1 L629.6,272.7 L630.1,280.2 L630.6,273.3 L631.1,253.1 L631.7,239.9 L632.2,240.3 L632.7,257.1 L633.2,278.7 L633.7,273.9 L634.2,264.6 L634.7,260.7 L635.2,256.9 L635.7,256.2 L636.2,260.6 L636.7,264.5 L637.2,263.5 L637.7,254.2 L638.2,240.5 L638.8,232.0 L639.3,231.0 L639.8,237.7 L640.3,251.2 L640.8,267.2 L641.3,279.1 L641.8,278.9 L642.3,266.6 L642.8,256.1 L643.3,254.3 L643.8,250.0 L644.3,241.7 L644.8,240.1 L645.4,242.7 L645.9,240.8 L646.4,242.9 L646.9,249.2 L647.4,249.7 L647.9,244.1 L648.4,239.6 L648.9,243.2 L649.4,256.3 L649.9,262.7 L650.4,258.8 L650.9,262.8 L651.4,268.6 L651.9,265.5 L652.5,269.5 L653.0,280.7 L653.5,278.8 L654.0,275.2 L654.5,280.3 L655.0,287.0 L655.5,286.3 L656.0,283.4 L656.5,281.4 L657.0,278.1 L657.5,277.1 L658.0,279.2 L658.5,273.1 L659.0,271.6 L659.6,279.2 L660.1,266.3 L660.6,248.8 L661.1,246.0 L661.6,258.9 L662.1,273.8 L662.6,273.4 L663.1,269.2 L663.6,268.6 L664.1,271.4 L664.6,275.6 L665.1,283.0 L665.6,282.1 L666.1,267.3 L666.6,252.4 L667.2,246.6 L667.7,257.0 L668.2,278.7 L668.7,284.6 L669.2,274.9 L669.7,269.6 L670.2,263.7 L670.7,255.2 L671.2,248.9 L671.7,248.7 L672.2,251.9 L672.7,253.7 L673.2,254.3 L673.8,260.9 L674.3,280.6 L674.8,271.3 L675.3,242.4 L675.8,226.1 L676.3,225.0 L676.8,229.5 L677.3,230.3 L677.8,234.7 L678.3,252.8 L678.8,276.0 L679.3,263.0 L679.8,257.8 L680.3,278.4 L680.9,264.6 L681.4,235.1 L681.9,223.9 L682.4,230.4 L682.9,243.6 L683.4,253.2 L683.9,257.5 L684.4,266.7 L684.9,279.4 L685.4,279.9 L685.9,273.3 L686.4,272.5 L686.9,276.6 L687.4,277.4 L687.9,271.7 L688.5,264.3 L689.0,258.6 L689.5,256.9 L690.0,260.4 L690.5,260.1 L691.0,253.3 L691.5,248.5 L692.0,246.3 L692.5,246.0 L693.0,244.8 L693.5,247.2 L694.0,256.8 L694.5,273.0 L695.0,285.4 L695.6,275.4 L696.1,270.0 L696.6,267.5 L697.1,264.2 L697.6,265.5 L698.1,271.1 L698.6,270.9 L699.1,266.4 L699.6,271.6 L700.1,272.4 L700.6,260.6 L701.1,254.9 L701.6,259.4 L702.1,265.1 L702.7,251.4 L703.2,229.2 L703.7,210.2 L704.2,201.0 L704.7,206.1 L705.2,225.7 L705.7,253.4 L706.2,281.0 L706.7,270.2 L707.2,260.7 L707.7,265.4 L708.2,272.4 L708.7,274.6 L709.2,271.8 L709.8,267.4 L710.3,267.3 L710.8,278.1 L711.3,286.8 L711.8,270.1 L712.3,262.5 L712.8,264.0 L713.3,267.3 L713.8,266.3 L714.3,268.0 L714.8,273.8 L715.3,268.7 L715.8,256.3 L716.4,251.5 L716.9,255.2 L717.4,261.2 L717.9,266.6 L718.4,273.1 L718.9,277.5 L719.4,270.8 L719.9,256.9 L720.4,246.6 L720.9,252.1 L721.4,272.6 L721.9,289.1 L722.4,276.1 L722.9,274.0 L723.5,277.6 L724.0,277.1 L724.5,277.5 L725.0,274.6 L725.5,267.6 L726.0,261.6 L726.5,260.0 L727.0,259.0 L727.5,256.5 L728.0,255.0 L728.5,259.3 L729.0,265.5 L729.5,272.0 L730.0,278.7 L730.6,275.7 L731.1,262.9 L731.6,249.6 L732.1,244.7 L732.6,250.4 L733.1,264.3 L733.6,277.1 L734.1,274.8 L734.6,271.0 L735.1,271.8 L735.6,271.0 L736.1,271.7 L736.6,283.4 L737.1,271.0 L737.6,257.4 L738.2,259.7 L738.7,264.0 L739.2,259.0 L739.7,256.8 L740.2,262.7 L740.7,263.8 L741.2,253.8 L741.7,247.0 L742.2,248.9 L742.7,253.2 L743.2,260.3 L743.7,262.6 L744.2,256.6 L744.8,252.3 L745.3,252.1 L745.8,250.7 L746.3,247.6 L746.8,248.8 L747.3,256.6 L747.8,267.8 L748.3,270.5 L748.8,265.3 L749.3,262.7 L749.8,255.6 L750.3,242.3 L750.8,237.4 L751.3,242.8 L751.9,253.0 L752.4,263.3 L752.9,278.4 L753.4,284.3 L753.9,270.5 L754.4,261.8 L754.9,263.7 L755.4,272.8 L755.9,282.3 L756.4,282.6 L756.9,279.9 L757.4,277.5 L757.9,271.1 L758.4,266.8 L758.9,267.8 L759.5,267.3 L760.0,271.4 L760.5,280.0 L761.0,280.1 L761.5,269.5 L762.0,260.5 L762.5,259.3 L763.0,267.0 L763.5,283.9 L764.0,272.2 L764.5,255.4 L765.0,245.0 L765.5,239.1 L766.0,236.8 L766.6,239.5 L767.1,248.8 L767.6,270.4 L768.1,286.0 L768.6,274.8 L769.1,282.7 L769.6,278.9 L770.1,265.6 L770.6,261.2 L771.1,268.0 L771.6,277.9 L772.1,285.9 L772.6,288.6 L773.1,280.6 L773.7,276.3 L774.2,271.3 L774.7,269.0 L775.2,273.1 L775.7,279.1 L776.2,271.2 L776.7,269.0 L777.2,278.5 L777.7,275.2 L778.2,268.2 L778.7,268.8 L779.2,271.4 L779.7,271.9 L780.2,274.9 L780.8,277.4 L781.3,265.8 L781.8,250.8 L782.3,246.7 L782.8,257.2 L783.3,272.1 L783.8,276.7 L784.3,274.7 L784.8,267.9 L785.3,260.8 L785.8,260.1 L786.3,261.4 L786.8,263.2 L787.4,273.3 L787.9,283.8 L788.4,266.2 L788.9,249.4 L789.4,248.6 L789.9,261.0 L790.4,275.2 L790.9,286.1 L791.4,283.6 L791.9,280.7 L792.4,280.5 L792.9,286.3 L793.4,291.0 L793.9,291.7 L794.5,287.7 L795.0,277.9 L795.5,267.9 L796.0,266.5 L796.5,277.1 L797.0,288.5 L797.5,280.1 L797.5,292.0 Z" fill="#94a3b8" fill-opacity="0.10" stroke="none"/>
<path d="M88.0,282.7 L88.5,289.7 L89.0,284.3 L89.5,274.1 L90.0,266.2 L90.5,260.7 L91.0,260.6 L91.5,267.2 L92.1,273.6 L92.6,274.3 L93.1,270.4 L93.6,261.6 L94.1,256.7 L94.6,258.3 L95.1,258.3 L95.6,250.9 L96.1,245.0 L96.6,247.9 L97.1,258.0 L97.6,273.7 L98.1,283.6 L98.7,281.4 L99.2,276.0 L99.7,274.1 L100.2,275.5 L100.7,276.1 L101.2,271.0 L101.7,259.8 L102.2,252.7 L102.7,256.6 L103.2,264.9 L103.7,261.6 L104.2,254.4 L104.7,256.9 L105.2,260.7 L105.8,255.3 L106.3,246.4 L106.8,241.8 L107.3,249.7 L107.8,265.5 L108.3,275.3 L108.8,279.4 L109.3,285.0 L109.8,282.0 L110.3,264.3 L110.8,246.3 L111.3,239.9 L111.8,248.0 L112.3,263.2 L112.8,276.2 L113.4,283.8 L113.9,285.7 L114.4,273.8 L114.9,262.6 L115.4,255.6 L115.9,249.7 L116.4,242.8 L116.9,240.6 L117.4,245.6 L117.9,258.2 L118.4,270.7 L118.9,280.7 L119.4,290.0 L120.0,275.9 L120.5,270.8 L121.0,271.2 L121.5,255.0 L122.0,236.7 L122.5,234.6 L123.0,247.2 L123.5,254.6 L124.0,255.4 L124.5,262.3 L125.0,269.9 L125.5,275.5 L126.0,281.1 L126.5,282.1 L127.0,279.3 L127.6,276.1 L128.1,271.2 L128.6,265.5 L129.1,262.4 L129.6,263.3 L130.1,264.9 L130.6,269.5 L131.1,278.0 L131.6,285.3 L132.1,282.5 L132.6,276.4 L133.1,273.7 L133.6,274.4 L134.2,272.6 L134.7,260.4 L135.2,245.0 L135.7,232.0 L136.2,228.0 L136.7,234.6 L137.2,246.4 L137.7,258.3 L138.2,267.2 L138.7,276.7 L139.2,284.3 L139.7,281.7 L140.2,281.6 L140.7,279.5 L141.2,269.8 L141.8,269.6 L142.3,273.3 L142.8,270.7 L143.3,264.6 L143.8,266.2 L144.3,273.9 L144.8,266.4 L145.3,253.2 L145.8,249.8 L146.3,263.6 L146.8,278.6 L147.3,274.7 L147.8,261.5 L148.3,239.4 L148.9,224.2 L149.4,226.2 L149.9,241.7 L150.4,253.6 L150.9,253.9 L151.4,258.7 L151.9,277.0 L152.4,283.0 L152.9,264.7 L153.4,256.6 L153.9,258.8 L154.4,261.2 L154.9,261.1 L155.4,260.7 L156.0,263.0 L156.5,275.5 L157.0,276.5 L157.5,243.6 L158.0,224.6 L158.5,233.5 L159.0,261.3 L159.5,270.1 L160.0,253.7 L160.5,251.2 L161.0,260.5 L161.5,267.3 L162.0,268.1 L162.6,269.2 L163.1,270.8 L163.6,272.0 L164.1,261.5 L164.6,244.9 L165.1,240.1 L165.6,248.6 L166.1,255.6 L166.6,256.5 L167.1,264.5 L167.6,281.5 L168.1,277.2 L168.6,266.5 L169.1,269.1 L169.7,270.5 L170.2,260.5 L170.7,251.0 L171.2,247.7 L171.7,254.0 L172.2,264.4 L172.7,272.2 L173.2,276.9 L173.7,277.9 L174.2,276.7 L174.7,272.2 L175.2,263.1 L175.7,256.3 L176.2,257.8 L176.8,263.6 L177.3,264.1 L177.8,265.3 L178.3,268.4 L178.8,271.1 L179.3,269.9 L179.8,267.9 L180.3,268.5 L180.8,259.0 L181.3,244.5 L181.8,240.8 L182.3,245.8 L182.8,251.9 L183.3,255.6 L183.9,250.2 L184.4,240.0 L184.9,240.9 L185.4,257.3 L185.9,277.0 L186.4,284.7 L186.9,275.6 L187.4,269.0 L187.9,270.9 L188.4,276.4 L188.9,274.8 L189.4,267.6 L189.9,266.3 L190.4,275.6 L190.9,281.6 L191.5,266.5 L192.0,252.8 L192.5,246.7 L193.0,251.8 L193.5,262.0 L194.0,270.3 L194.5,276.6 L195.0,277.5 L195.5,277.1 L196.0,283.3 L196.5,278.6 L197.0,263.2 L197.5,258.7 L198.1,267.5 L198.6,282.8 L199.1,287.7 L199.6,283.1 L200.1,271.4 L200.6,262.4 L201.1,262.5 L201.6,268.0 L202.1,255.7 L202.6,244.3 L203.1,251.8 L203.6,275.1 L204.1,275.9 L204.6,265.6 L205.2,269.9 L205.7,281.5 L206.2,288.2 L206.7,275.0 L207.2,257.7 L207.7,246.0 L208.2,244.8 L208.7,249.7 L209.2,251.9 L209.7,244.6 L210.2,238.4 L210.7,241.4 L211.2,249.2 L211.7,262.1 L212.2,282.0 L212.8,273.0 L213.3,261.4 L213.8,259.1 L214.3,264.5 L214.8,274.4 L215.3,278.5 L215.8,279.3 L216.3,280.7 L216.8,271.2 L217.3,262.1 L217.8,263.7 L218.3,275.8 L218.8,273.1 L219.3,261.9 L219.9,259.7 L220.4,261.6 L220.9,263.8 L221.4,263.6 L221.9,263.0 L222.4,265.9 L222.9,271.9 L223.4,279.3 L223.9,283.9 L224.4,275.6 L224.9,269.6 L225.4,268.0 L225.9,256.8 L226.5,245.9 L227.0,251.0 L227.5,268.8 L228.0,284.1 L228.5,284.2 L229.0,275.8 L229.5,261.3 L230.0,254.5 L230.5,261.2 L231.0,273.6 L231.5,279.7 L232.0,275.6 L232.5,272.2 L233.0,270.3 L233.5,268.0 L234.1,263.3 L234.6,261.2 L235.1,256.9 L235.6,242.6 L236.1,224.8 L236.6,209.0 L237.1,194.9 L237.6,177.9 L238.1,161.5 L238.6,151.1 L239.1,149.7 L239.6,155.8 L240.1,165.3 L240.7,172.0 L241.2,171.1 L241.7,166.6 L242.2,167.6 L242.7,175.9 L243.2,193.0 L243.7,220.6 L244.2,251.4 L244.7,272.6 L245.2,270.9 L245.7,262.4 L246.2,261.3 L246.7,267.3 L247.2,275.5 L247.8,279.0 L248.3,277.3 L248.8,278.0 L249.3,280.1 L249.8,279.3 L250.3,276.3 L250.8,270.4 L251.3,254.8 L251.8,243.6 L252.3,249.8 L252.8,272.5 L253.3,282.2 L253.8,265.5 L254.3,270.2 L254.8,285.6 L255.4,283.4 L255.9,277.7 L256.4,270.4 L256.9,260.0 L257.4,254.0 L257.9,258.7 L258.4,268.6 L258.9,270.8 L259.4,273.7 L259.9,286.6 L260.4,279.5 L260.9,277.2 L261.4,283.1 L261.9,284.9 L262.5,280.8 L263.0,273.1 L263.5,269.1 L264.0,274.6 L264.5,287.5 L265.0,277.9 L265.5,268.3 L266.0,262.2 L266.5,264.0 L267.0,268.4 L267.5,257.4 L268.0,241.5 L268.5,238.6 L269.1,251.8 L269.6,274.8 L270.1,278.9 L270.6,261.3 L271.1,252.4 L271.6,249.7 L272.1,249.9 L272.6,254.1 L273.1,261.5 L273.6,274.8 L274.1,289.6 L274.6,274.6 L275.1,264.7 L275.6,257.7 L276.1,252.3 L276.7,246.5 L277.2,240.0 L277.7,243.9 L278.2,260.4 L278.7,275.7 L279.2,282.3 L279.7,290.8 L280.2,280.8 L280.7,286.5 L281.2,274.5 L281.7,251.3 L282.2,242.0 L282.7,245.8 L283.2,259.1 L283.8,272.6 L284.3,282.0 L284.8,272.4 L285.3,254.7 L285.8,247.7 L286.3,255.9 L286.8,267.6 L287.3,264.6 L287.8,256.6 L288.3,254.1 L288.8,258.8 L289.3,267.6 L289.8,275.4 L290.4,280.6 L290.9,285.0 L291.4,285.8 L291.9,280.6 L292.4,273.9 L292.9,269.2 L293.4,270.8 L293.9,277.0 L294.4,267.8 L294.9,246.6 L295.4,224.4 L295.9,212.8 L296.4,221.4 L296.9,244.0 L297.4,272.0 L298.0,284.6 L298.5,266.9 L299.0,255.9 L299.5,251.5 L300.0,257.4 L300.5,269.7 L301.0,284.2 L301.5,273.4 L302.0,254.2 L302.5,247.4 L303.0,257.2 L303.5,267.9 L304.0,266.0 L304.5,266.8 L305.1,276.7 L305.6,283.8 L306.1,278.4 L306.6,275.3 L307.1,274.6 L307.6,273.6 L308.1,271.1 L308.6,266.2 L309.1,263.2 L309.6,264.1 L310.1,271.4 L310.6,283.2 L311.1,285.1 L311.6,272.9 L312.2,263.9 L312.7,253.0 L313.2,241.0 L313.7,236.9 L314.2,246.1 L314.7,259.7 L315.2,266.9 L315.7,269.1 L316.2,263.0 L316.7,250.3 L317.2,240.4 L317.7,238.7 L318.2,248.5 L318.8,265.1 L319.3,278.2 L319.8,284.4 L320.3,289.5 L320.8,285.5 L321.3,273.1 L321.8,252.3 L322.3,231.0 L322.8,223.4 L323.3,235.8 L323.8,264.5 L324.3,281.5 L324.8,268.2 L325.3,267.3 L325.9,277.7 L326.4,290.7 L326.9,277.6 L327.4,261.1 L327.9,246.5 L328.4,248.3 L328.9,269.5 L329.4,283.1 L329.9,265.1 L330.4,253.6 L330.9,246.3 L331.4,243.3 L331.9,249.3 L332.4,263.6 L332.9,270.9 L333.5,263.9 L334.0,259.9 L334.5,260.5 L335.0,268.4 L335.5,278.7 L336.0,276.5 L336.5,270.2 L337.0,261.4 L337.5,248.7 L338.0,239.7 L338.5,241.5 L339.0,248.8 L339.5,246.4 L340.0,237.4 L340.6,241.2 L341.1,260.5 L341.6,280.8 L342.1,280.1 L342.6,259.3 L343.1,241.6 L343.6,245.7 L344.1,269.0 L344.6,281.6 L345.1,273.6 L345.6,283.4 L346.1,280.2 L346.6,271.4 L347.1,272.4 L347.7,269.9 L348.2,254.7 L348.7,242.6 L349.2,245.0 L349.7,255.0 L350.2,259.5 L350.7,262.2 L351.2,263.2 L351.7,262.2 L352.2,268.9 L352.7,275.4 L353.2,269.4 L353.7,259.9 L354.2,255.8 L354.8,256.0 L355.3,258.8 L355.8,264.4 L356.3,272.7 L356.8,274.3 L357.3,268.6 L357.8,266.9 L358.3,272.2 L358.8,277.0 L359.3,281.7 L359.8,276.8 L360.3,259.3 L360.8,238.4 L361.4,226.0 L361.9,226.5 L362.4,232.6 L362.9,234.5 L363.4,231.6 L363.9,229.9 L364.4,233.1 L364.9,244.7 L365.4,263.7 L365.9,280.4 L366.4,272.3 L366.9,265.2 L367.4,258.5 L367.9,250.6 L368.4,251.7 L369.0,265.5 L369.5,273.6 L370.0,258.1 L370.5,246.0 L371.0,246.2 L371.5,255.5 L372.0,267.2 L372.5,274.2 L373.0,275.3 L373.5,276.3 L374.0,279.3 L374.5,282.2 L375.0,284.9 L375.6,288.8 L376.1,284.6 L376.6,280.3 L377.1,276.9 L377.6,273.8 L378.1,272.3 L378.6,274.2 L379.1,281.2 L379.6,282.1 L380.1,276.7 L380.6,274.8 L381.1,274.8 L381.6,263.0 L382.1,248.4 L382.6,244.6 L383.2,255.9 L383.7,273.0 L384.2,274.2 L384.7,272.4 L385.2,269.6 L385.7,264.6 L386.2,263.1 L386.7,268.6 L387.2,277.2 L387.7,279.7 L388.2,270.8 L388.7,262.1 L389.2,257.3 L389.8,262.2 L390.3,273.7 L390.8,277.4 L391.3,274.6 L391.8,274.0 L392.3,278.1 L392.8,286.8 L393.3,287.5 L393.8,286.5 L394.3,286.5 L394.8,284.3 L395.3,286.5 L395.8,288.1 L396.3,279.3 L396.9,269.0 L397.4,262.1 L397.9,258.8 L398.4,253.1 L398.9,249.5 L399.4,256.1 L399.9,268.3 L400.4,280.3 L400.9,286.6 L401.4,281.3 L401.9,280.9 L402.4,284.5 L402.9,283.9 L403.4,274.2 L403.9,264.6 L404.5,256.4 L405.0,248.8 L405.5,246.8 L406.0,252.8 L406.5,266.0 L407.0,284.9 L407.5,278.9 L408.0,273.8 L408.5,282.6 L409.0,275.5 L409.5,262.1 L410.0,262.7 L410.5,272.3 L411.1,279.2 L411.6,280.8 L412.1,275.7 L412.6,262.4 L413.1,254.8 L413.6,261.1 L414.1,269.3 L414.6,271.0 L415.1,273.2 L415.6,275.7 L416.1,278.0 L416.6,286.2 L417.1,281.2 L417.6,268.4 L418.2,259.5 L418.7,247.5 L419.2,241.3 L419.7,251.5 L420.2,278.4 L420.7,274.1 L421.2,252.0 L421.7,245.1 L422.2,253.4 L422.7,263.6 L423.2,261.6 L423.7,259.2 L424.2,257.4 L424.7,252.8 L425.2,249.6 L425.8,247.7 L426.3,247.7 L426.8,254.7 L427.3,260.8 L427.8,252.5 L428.3,243.3 L428.8,242.5 L429.3,250.0 L429.8,258.6 L430.3,250.8 L430.8,239.8 L431.3,238.7 L431.8,245.5 L432.3,253.6 L432.9,259.0 L433.4,264.4 L433.9,273.9 L434.4,281.5 L434.9,277.0 L435.4,276.5 L435.9,277.3 L436.4,275.1 L436.9,279.7 L437.4,287.2 L437.9,280.1 L438.4,271.5 L438.9,262.5 L439.4,247.9 L440.0,232.7 L440.5,225.7 L441.0,228.3 L441.5,239.2 L442.0,257.3 L442.5,273.2 L443.0,277.1 L443.5,276.6 L444.0,275.2 L444.5,279.9 L445.0,284.8 L445.5,284.1 L446.0,287.3 L446.6,289.7 L447.1,278.4 L447.6,266.3 L448.1,255.0 L448.6,243.8 L449.1,238.9 L449.6,240.0 L450.1,242.6 L450.6,243.0 L451.1,237.9 L451.6,227.2 L452.1,214.0 L452.6,207.0 L453.1,213.0 L453.7,227.0 L454.2,239.7 L454.7,241.0 L455.2,229.7 L455.7,215.4 L456.2,212.1 L456.7,223.0 L457.2,234.0 L457.7,237.0 L458.2,237.1 L458.7,242.6 L459.2,256.7 L459.7,271.2 L460.2,273.8 L460.8,273.1 L461.3,277.5 L461.8,268.1 L462.3,257.3 L462.8,256.5 L463.3,257.0 L463.8,255.5 L464.3,257.5 L464.8,268.7 L465.3,291.3 L465.8,266.7 L466.3,257.1 L466.8,268.5 L467.3,288.1 L467.9,279.0 L468.4,275.3 L468.9,283.7 L469.4,270.5 L469.9,252.6 L470.4,246.0 L470.9,250.7 L471.4,262.0 L471.9,268.7 L472.4,262.8 L472.9,253.6 L473.4,251.2 L473.9,253.9 L474.4,258.1 L475.0,254.3 L475.5,243.0 L476.0,241.7 L476.5,252.7 L477.0,274.7 L477.5,269.3 L478.0,242.6 L478.5,227.7 L479.0,224.7 L479.5,234.8 L480.0,254.0 L480.5,275.0 L481.0,285.9 L481.5,275.5 L482.1,267.6 L482.6,261.5 L483.1,262.2 L483.6,275.5 L484.1,275.8 L484.6,250.1 L485.1,235.9 L485.6,240.7 L486.1,261.7 L486.6,285.0 L487.1,270.3 L487.6,255.0 L488.1,252.8 L488.6,262.3 L489.1,268.8 L489.7,264.9 L490.2,261.8 L490.7,263.4 L491.2,266.5 L491.7,261.8 L492.2,255.2 L492.7,261.4 L493.2,271.8 L493.7,271.9 L494.2,278.1 L494.7,284.7 L495.2,266.2 L495.7,259.1 L496.2,268.4 L496.8,284.1 L497.3,280.1 L497.8,272.3 L498.3,267.4 L498.8,258.5 L499.3,248.0 L499.8,245.5 L500.3,254.8 L500.8,270.4 L501.3,283.7 L501.8,281.3 L502.3,272.4 L502.8,264.6 L503.3,260.7 L503.9,261.3 L504.4,257.7 L504.9,246.2 L505.4,235.8 L505.9,238.0 L506.4,258.4 L506.9,270.6 L507.4,256.6 L507.9,251.7 L508.4,263.4 L508.9,281.7 L509.4,281.5 L509.9,273.8 L510.4,265.6 L511.0,260.5 L511.5,268.4 L512.0,269.0 L512.5,257.5 L513.0,247.2 L513.5,243.3 L514.0,245.1 L514.5,250.3 L515.0,256.9 L515.5,260.1 L516.0,252.8 L516.5,240.5 L517.0,233.6 L517.5,240.4 L518.1,260.5 L518.6,280.7 L519.1,287.2 L519.6,280.0 L520.1,272.3 L520.6,268.7 L521.1,269.9 L521.6,279.0 L522.1,287.9 L522.6,277.1 L523.1,271.8 L523.6,261.5 L524.1,251.3 L524.6,250.7 L525.2,262.5 L525.7,276.8 L526.2,273.1 L526.7,270.4 L527.2,271.2 L527.7,267.1 L528.2,260.7 L528.7,261.5 L529.2,272.7 L529.7,285.0 L530.2,276.8 L530.7,260.9 L531.2,243.5 L531.8,236.0 L532.3,242.7 L532.8,260.1 L533.3,277.4 L533.8,285.1 L534.3,288.9 L534.8,275.8 L535.3,259.3 L535.8,253.6 L536.3,256.5 L536.8,253.3 L537.3,246.0 L537.8,240.6 L538.3,231.7 L538.9,226.6 L539.4,235.1 L539.9,248.9 L540.4,254.8 L540.9,252.6 L541.4,247.3 L541.9,246.1 L542.4,253.9 L542.9,268.0 L543.4,272.0 L543.9,261.9 L544.4,249.5 L544.9,240.7 L545.4,238.2 L546.0,246.7 L546.5,262.5 L547.0,269.1 L547.5,262.4 L548.0,253.6 L548.5,247.3 L549.0,249.2 L549.5,255.0 L550.0,259.0 L550.5,261.0 L551.0,259.4 L551.5,254.4 L552.0,245.3 L552.5,240.8 L553.0,248.1 L553.6,257.0 L554.1,253.0 L554.6,246.9 L555.1,251.5 L555.6,268.5 L556.1,286.2 L556.6,263.7 L557.1,255.4 L557.6,265.2 L558.1,279.1 L558.6,282.9 L559.1,286.2 L559.6,272.5 L560.2,256.0 L560.7,246.6 L561.2,250.0 L561.7,260.8 L562.2,256.8 L562.7,242.0 L563.2,232.3 L563.7,231.6 L564.2,240.9 L564.7,253.4 L565.2,257.9 L565.7,255.6 L566.2,257.3 L566.7,269.1 L567.2,278.1 L567.8,260.2 L568.3,234.4 L568.8,214.2 L569.3,210.9 L569.8,225.8 L570.3,248.0 L570.8,270.7 L571.3,270.6 L571.8,258.0 L572.3,256.6 L572.8,261.3 L573.3,252.8 L573.8,236.1 L574.4,235.0 L574.9,251.4 L575.4,269.3 L575.9,270.1 L576.4,250.4 L576.9,231.1 L577.4,230.0 L577.9,248.3 L578.4,273.6 L578.9,287.1 L579.4,278.4 L579.9,279.7 L580.4,288.1 L580.9,290.1 L581.5,285.0 L582.0,275.8 L582.5,265.0 L583.0,261.4 L583.5,267.9 L584.0,276.4 L584.5,276.7 L585.0,277.2 L585.5,278.5 L586.0,276.8 L586.5,272.1 L587.0,269.1 L587.5,274.1 L588.0,280.7 L588.5,280.5 L589.1,286.9 L589.6,278.0 L590.1,252.8 L590.6,233.1 L591.1,227.2 L591.6,233.8 L592.1,243.6 L592.6,251.6 L593.1,258.2 L593.6,264.8 L594.1,273.6 L594.6,284.0 L595.1,284.6 L595.6,283.4 L596.2,286.2 L596.7,272.3 L597.2,259.0 L597.7,252.1 L598.2,248.8 L598.7,246.2 L599.2,247.5 L599.7,254.5 L600.2,262.7 L600.7,267.3 L601.2,262.3 L601.7,253.8 L602.2,249.3 L602.8,254.2 L603.3,268.0 L603.8,272.2 L604.3,253.4 L604.8,244.1 L605.3,249.2 L605.8,264.4 L606.3,287.2 L606.8,269.0 L607.3,246.2 L607.8,234.5 L608.3,237.4 L608.8,254.6 L609.3,270.5 L609.9,266.8 L610.4,265.5 L610.9,273.2 L611.4,279.5 L611.9,275.5 L612.4,269.5 L612.9,268.5 L613.4,273.8 L613.9,277.8 L614.4,276.5 L614.9,274.8 L615.4,275.7 L615.9,276.7 L616.4,276.8 L617.0,264.8 L617.5,251.5 L618.0,247.6 L618.5,254.9 L619.0,266.2 L619.5,273.1 L620.0,273.5 L620.5,278.5 L621.0,287.5 L621.5,275.5 L622.0,266.7 L622.5,264.7 L623.0,267.9 L623.5,268.9 L624.0,256.2 L624.6,235.4 L625.1,222.0 L625.6,222.9 L626.1,232.5 L626.6,242.9 L627.1,251.1 L627.6,258.8 L628.1,270.7 L628.6,287.2 L629.1,277.1 L629.6,272.7 L630.1,280.2 L630.6,273.3 L631.1,253.1 L631.7,239.9 L632.2,240.3 L632.7,257.1 L633.2,278.7 L633.7,273.9 L634.2,264.6 L634.7,260.7 L635.2,256.9 L635.7,256.2 L636.2,260.6 L636.7,264.5 L637.2,263.5 L637.7,254.2 L638.2,240.5 L638.8,232.0 L639.3,231.0 L639.8,237.7 L640.3,251.2 L640.8,267.2 L641.3,279.1 L641.8,278.9 L642.3,266.6 L642.8,256.1 L643.3,254.3 L643.8,250.0 L644.3,241.7 L644.8,240.1 L645.4,242.7 L645.9,240.8 L646.4,242.9 L646.9,249.2 L647.4,249.7 L647.9,244.1 L648.4,239.6 L648.9,243.2 L649.4,256.3 L649.9,262.7 L650.4,258.8 L650.9,262.8 L651.4,268.6 L651.9,265.5 L652.5,269.5 L653.0,280.7 L653.5,278.8 L654.0,275.2 L654.5,280.3 L655.0,287.0 L655.5,286.3 L656.0,283.4 L656.5,281.4 L657.0,278.1 L657.5,277.1 L658.0,279.2 L658.5,273.1 L659.0,271.6 L659.6,279.2 L660.1,266.3 L660.6,248.8 L661.1,246.0 L661.6,258.9 L662.1,273.8 L662.6,273.4 L663.1,269.2 L663.6,268.6 L664.1,271.4 L664.6,275.6 L665.1,283.0 L665.6,282.1 L666.1,267.3 L666.6,252.4 L667.2,246.6 L667.7,257.0 L668.2,278.7 L668.7,284.6 L669.2,274.9 L669.7,269.6 L670.2,263.7 L670.7,255.2 L671.2,248.9 L671.7,248.7 L672.2,251.9 L672.7,253.7 L673.2,254.3 L673.8,260.9 L674.3,280.6 L674.8,271.3 L675.3,242.4 L675.8,226.1 L676.3,225.0 L676.8,229.5 L677.3,230.3 L677.8,234.7 L678.3,252.8 L678.8,276.0 L679.3,263.0 L679.8,257.8 L680.3,278.4 L680.9,264.6 L681.4,235.1 L681.9,223.9 L682.4,230.4 L682.9,243.6 L683.4,253.2 L683.9,257.5 L684.4,266.7 L684.9,279.4 L685.4,279.9 L685.9,273.3 L686.4,272.5 L686.9,276.6 L687.4,277.4 L687.9,271.7 L688.5,264.3 L689.0,258.6 L689.5,256.9 L690.0,260.4 L690.5,260.1 L691.0,253.3 L691.5,248.5 L692.0,246.3 L692.5,246.0 L693.0,244.8 L693.5,247.2 L694.0,256.8 L694.5,273.0 L695.0,285.4 L695.6,275.4 L696.1,270.0 L696.6,267.5 L697.1,264.2 L697.6,265.5 L698.1,271.1 L698.6,270.9 L699.1,266.4 L699.6,271.6 L700.1,272.4 L700.6,260.6 L701.1,254.9 L701.6,259.4 L702.1,265.1 L702.7,251.4 L703.2,229.2 L703.7,210.2 L704.2,201.0 L704.7,206.1 L705.2,225.7 L705.7,253.4 L706.2,281.0 L706.7,270.2 L707.2,260.7 L707.7,265.4 L708.2,272.4 L708.7,274.6 L709.2,271.8 L709.8,267.4 L710.3,267.3 L710.8,278.1 L711.3,286.8 L711.8,270.1 L712.3,262.5 L712.8,264.0 L713.3,267.3 L713.8,266.3 L714.3,268.0 L714.8,273.8 L715.3,268.7 L715.8,256.3 L716.4,251.5 L716.9,255.2 L717.4,261.2 L717.9,266.6 L718.4,273.1 L718.9,277.5 L719.4,270.8 L719.9,256.9 L720.4,246.6 L720.9,252.1 L721.4,272.6 L721.9,289.1 L722.4,276.1 L722.9,274.0 L723.5,277.6 L724.0,277.1 L724.5,277.5 L725.0,274.6 L725.5,267.6 L726.0,261.6 L726.5,260.0 L727.0,259.0 L727.5,256.5 L728.0,255.0 L728.5,259.3 L729.0,265.5 L729.5,272.0 L730.0,278.7 L730.6,275.7 L731.1,262.9 L731.6,249.6 L732.1,244.7 L732.6,250.4 L733.1,264.3 L733.6,277.1 L734.1,274.8 L734.6,271.0 L735.1,271.8 L735.6,271.0 L736.1,271.7 L736.6,283.4 L737.1,271.0 L737.6,257.4 L738.2,259.7 L738.7,264.0 L739.2,259.0 L739.7,256.8 L740.2,262.7 L740.7,263.8 L741.2,253.8 L741.7,247.0 L742.2,248.9 L742.7,253.2 L743.2,260.3 L743.7,262.6 L744.2,256.6 L744.8,252.3 L745.3,252.1 L745.8,250.7 L746.3,247.6 L746.8,248.8 L747.3,256.6 L747.8,267.8 L748.3,270.5 L748.8,265.3 L749.3,262.7 L749.8,255.6 L750.3,242.3 L750.8,237.4 L751.3,242.8 L751.9,253.0 L752.4,263.3 L752.9,278.4 L753.4,284.3 L753.9,270.5 L754.4,261.8 L754.9,263.7 L755.4,272.8 L755.9,282.3 L756.4,282.6 L756.9,279.9 L757.4,277.5 L757.9,271.1 L758.4,266.8 L758.9,267.8 L759.5,267.3 L760.0,271.4 L760.5,280.0 L761.0,280.1 L761.5,269.5 L762.0,260.5 L762.5,259.3 L763.0,267.0 L763.5,283.9 L764.0,272.2 L764.5,255.4 L765.0,245.0 L765.5,239.1 L766.0,236.8 L766.6,239.5 L767.1,248.8 L767.6,270.4 L768.1,286.0 L768.6,274.8 L769.1,282.7 L769.6,278.9 L770.1,265.6 L770.6,261.2 L771.1,268.0 L771.6,277.9 L772.1,285.9 L772.6,288.6 L773.1,280.6 L773.7,276.3 L774.2,271.3 L774.7,269.0 L775.2,273.1 L775.7,279.1 L776.2,271.2 L776.7,269.0 L777.2,278.5 L777.7,275.2 L778.2,268.2 L778.7,268.8 L779.2,271.4 L779.7,271.9 L780.2,274.9 L780.8,277.4 L781.3,265.8 L781.8,250.8 L782.3,246.7 L782.8,257.2 L783.3,272.1 L783.8,276.7 L784.3,274.7 L784.8,267.9 L785.3,260.8 L785.8,260.1 L786.3,261.4 L786.8,263.2 L787.4,273.3 L787.9,283.8 L788.4,266.2 L788.9,249.4 L789.4,248.6 L789.9,261.0 L790.4,275.2 L790.9,286.1 L791.4,283.6 L791.9,280.7 L792.4,280.5 L792.9,286.3 L793.4,291.0 L793.9,291.7 L794.5,287.7 L795.0,277.9 L795.5,267.9 L796.0,266.5 L796.5,277.1 L797.0,288.5 L797.5,280.1" fill="none" stroke="#94a3b8" stroke-width="1.2" stroke-linecap="round" stroke-linejoin="round"/>
<line x1="88" y1="211.702" x2="797.493" y2="211.702" stroke="#dc2626" stroke-width="1.8" stroke-dasharray="6 4"/>
<text x="802" y="215.702" font-size="11.5" fill="#dc2626" text-anchor="start" font-weight="700">문턱</text>
<line x1="240.143" y1="142.736" x2="240.143" y2="121.736" stroke="#16a34a" stroke-width="1.4"/>
<text x="240.143" y="115.736" font-size="11" fill="#16a34a" text-anchor="middle" font-weight="700">A  넉넉히 넘는다 — 검출</text>
<line x1="453.143" y1="199.963" x2="453.143" y2="178.963" stroke="#d97706" stroke-width="1.4"/>
<text x="453.143" y="172.963" font-size="11" fill="#d97706" text-anchor="middle" font-weight="700">B  문턱에 걸친다 — 잡음이 가른다</text>
<line x1="635.714" y1="215.013" x2="635.714" y2="198.013" stroke="#94a3b8" stroke-width="1.4"/>
<text x="635.714" y="192.013" font-size="11" fill="#94a3b8" text-anchor="middle" font-weight="700">C  못 넘는다 — 미검출</text>
<line x1="704.179" y1="193.954" x2="704.179" y2="176.954" stroke="#dc2626" stroke-width="1.4"/>
<text x="704.179" y="170.954" font-size="11" fill="#dc2626" text-anchor="middle" font-weight="700">표적이 없는데 넘었다 — 오경보</text>
<rect x="34" y="330" width="792" height="122" rx="10" fill="#f8fafc" stroke="#cbd5e1" stroke-width="1.4"/>
<text x="54" y="354" font-size="12.5" fill="#1e293b" text-anchor="start" font-weight="700">문턱을 내리면 P_d 가 오르지만 P_fa 도 함께 오른다. 하나만 좋게 하는 조작은 없다.</text>
<text x="54" y="373" font-size="12.5" fill="#1e293b" text-anchor="start" font-weight="700">S_min 은 부품 사양이 아니라 “얼마나 자주 놓치고 얼마나 자주 속아도 되는가”를 dB 로 옮긴 값이다.</text>
<text x="54" y="392" font-size="11.8" fill="#1e293b" text-anchor="start" font-weight="700">B = 5 MHz, P_fa = 10⁻⁶ 이면 오경보가 평균 0.2 초에 한 번 나온다. 하루에 한 번으로 줄이려면 P_fa = 2.3×10⁻¹², 문턱은 2.9 dB 만 더 올리면 된다.</text>
<text x="54" y="414" font-size="11.5" fill="#64748b" text-anchor="start" font-weight="400">문턱이 P_fa 의 로그에만 비례하기 때문이다 — 오경보를 백만 배 줄이는 값이 고작 2.9 dB 다.</text>
<text x="54" y="434" font-size="11.5" fill="#64748b" text-anchor="start" font-weight="400">그림의 잡음은 대역 제한된 가우시안 잡음의 포락선(레일리 분포)을 실제로 생성한 것이고, 문턱은 잡음 실효값의 3.55 배에 두었다.</text>
</svg>
