<svg xmlns="http://www.w3.org/2000/svg" viewBox="0 0 860 440" font-family="Segoe UI, Malgun Gothic, Apple SD Gothic Neo, sans-serif">
<defs>
<marker id="ar-slate" viewBox="0 0 10 10" refX="8.5" refY="5" markerWidth="6.5" markerHeight="6.5" orient="auto-start-reverse"><path d="M0,0 L10,5 L0,10 z" fill="#64748b"/></marker>
<marker id="ar-blue" viewBox="0 0 10 10" refX="8.5" refY="5" markerWidth="6.5" markerHeight="6.5" orient="auto-start-reverse"><path d="M0,0 L10,5 L0,10 z" fill="#2563eb"/></marker>
<marker id="ar-orange" viewBox="0 0 10 10" refX="8.5" refY="5" markerWidth="6.5" markerHeight="6.5" orient="auto-start-reverse"><path d="M0,0 L10,5 L0,10 z" fill="#ea580c"/></marker>
<marker id="ar-sky" viewBox="0 0 10 10" refX="8.5" refY="5" markerWidth="6.5" markerHeight="6.5" orient="auto-start-reverse"><path d="M0,0 L10,5 L0,10 z" fill="#0284c7"/></marker>
<marker id="ar-red" viewBox="0 0 10 10" refX="8.5" refY="5" markerWidth="6.5" markerHeight="6.5" orient="auto-start-reverse"><path d="M0,0 L10,5 L0,10 z" fill="#dc2626"/></marker>
<marker id="ar-green" viewBox="0 0 10 10" refX="8.5" refY="5" markerWidth="6.5" markerHeight="6.5" orient="auto-start-reverse"><path d="M0,0 L10,5 L0,10 z" fill="#16a34a"/></marker>
<marker id="ar-violet" viewBox="0 0 10 10" refX="8.5" refY="5" markerWidth="6.5" markerHeight="6.5" orient="auto-start-reverse"><path d="M0,0 L10,5 L0,10 z" fill="#7c3aed"/></marker>
<marker id="ar-axis" viewBox="0 0 10 10" refX="8.5" refY="5" markerWidth="6.5" markerHeight="6.5" orient="auto-start-reverse"><path d="M0,0 L10,5 L0,10 z" fill="#94a3b8"/></marker>
</defs>
<rect x="1" y="1" width="858" height="438" rx="14" fill="#ffffff" stroke="#e2e8f0" stroke-width="2"/>
<text x="430.0" y="34" font-size="17" fill="#1e293b" text-anchor="middle" font-weight="700">I/Q 신호의 시간 파형 — 같은 주파수, 90° 위상차</text>
<line x1="560" y1="62" x2="598" y2="62" stroke="#2563eb" stroke-width="3.5" stroke-linecap="round"/>
<text x="606" y="66" font-size="13" fill="#2563eb" text-anchor="start" font-weight="600">I(t) = A cos(2πft)</text>
<line x1="560" y1="86" x2="598" y2="86" stroke="#ea580c" stroke-width="3.5" stroke-linecap="round"/>
<text x="606" y="90" font-size="13" fill="#ea580c" text-anchor="start" font-weight="600">Q(t) = A sin(2πft)</text>
<line x1="90.0" y1="110" x2="90.0" y2="370" stroke="#e2e8f0" stroke-width="1.4" stroke-linecap="butt"/>
<text x="90.0" y="390" font-size="12" fill="#64748b" text-anchor="middle">0°</text>
<line x1="255.0" y1="110" x2="255.0" y2="370" stroke="#e2e8f0" stroke-width="1.4" stroke-linecap="butt"/>
<text x="255.0" y="390" font-size="12" fill="#64748b" text-anchor="middle">90°</text>
<line x1="420.0" y1="110" x2="420.0" y2="370" stroke="#e2e8f0" stroke-width="1.4" stroke-linecap="butt"/>
<text x="420.0" y="390" font-size="12" fill="#64748b" text-anchor="middle">180°</text>
<line x1="585.0" y1="110" x2="585.0" y2="370" stroke="#e2e8f0" stroke-width="1.4" stroke-linecap="butt"/>
<text x="585.0" y="390" font-size="12" fill="#64748b" text-anchor="middle">270°</text>
<line x1="750.0" y1="110" x2="750.0" y2="370" stroke="#e2e8f0" stroke-width="1.4" stroke-linecap="butt"/>
<text x="750.0" y="390" font-size="12" fill="#64748b" text-anchor="middle">360°</text>
<line x1="76" y1="240" x2="810" y2="240" stroke="#94a3b8" stroke-width="1.8" stroke-linecap="butt" marker-end="url(#ar-axis)"/>
<text x="812" y="262" font-size="12.5" fill="#64748b" text-anchor="end">시간 t</text>
<line x1="90" y1="374" x2="90" y2="96" stroke="#94a3b8" stroke-width="1.8" stroke-linecap="butt" marker-end="url(#ar-axis)"/>
<text x="78" y="100" font-size="12.5" fill="#64748b" text-anchor="end">진폭</text>
<path d="M90.00,132.00 L92.54,132.03 L95.08,132.13 L97.62,132.28 L100.15,132.50 L102.69,132.79 L105.23,133.13 L107.77,133.54 L110.31,134.01 L112.85,134.54 L115.38,135.14 L117.92,135.79 L120.46,136.51 L123.00,137.29 L125.54,138.12 L128.08,139.02 L130.62,139.97 L133.15,140.99 L135.69,142.06 L138.23,143.19 L140.77,144.37 L143.31,145.61 L145.85,146.91 L148.38,148.26 L150.92,149.66 L153.46,151.12 L156.00,152.63 L158.54,154.19 L161.08,155.80 L163.62,157.45 L166.15,159.16 L168.69,160.91 L171.23,162.72 L173.77,164.56 L176.31,166.45 L178.85,168.38 L181.38,170.36 L183.92,172.37 L186.46,174.43 L189.00,176.52 L191.54,178.65 L194.08,180.81 L196.62,183.01 L199.15,185.25 L201.69,187.51 L204.23,189.81 L206.77,192.14 L209.31,194.49 L211.85,196.87 L214.38,199.27 L216.92,201.70 L219.46,204.15 L222.00,206.63 L224.54,209.12 L227.08,211.63 L229.62,214.15 L232.15,216.70 L234.69,219.25 L237.23,221.82 L239.77,224.40 L242.31,226.98 L244.85,229.58 L247.38,232.18 L249.92,234.78 L252.46,237.39 L255.00,240.00 L257.54,242.61 L260.08,245.22 L262.62,247.82 L265.15,250.42 L267.69,253.02 L270.23,255.60 L272.77,258.18 L275.31,260.75 L277.85,263.30 L280.38,265.85 L282.92,268.37 L285.46,270.88 L288.00,273.37 L290.54,275.85 L293.08,278.30 L295.62,280.73 L298.15,283.13 L300.69,285.51 L303.23,287.86 L305.77,290.19 L308.31,292.49 L310.85,294.75 L313.38,296.99 L315.92,299.19 L318.46,301.35 L321.00,303.48 L323.54,305.57 L326.08,307.63 L328.62,309.64 L331.15,311.62 L333.69,313.55 L336.23,315.44 L338.77,317.28 L341.31,319.09 L343.85,320.84 L346.38,322.55 L348.92,324.20 L351.46,325.81 L354.00,327.37 L356.54,328.88 L359.08,330.34 L361.62,331.74 L364.15,333.09 L366.69,334.39 L369.23,335.63 L371.77,336.81 L374.31,337.94 L376.85,339.01 L379.38,340.03 L381.92,340.98 L384.46,341.88 L387.00,342.71 L389.54,343.49 L392.08,344.21 L394.62,344.86 L397.15,345.46 L399.69,345.99 L402.23,346.46 L404.77,346.87 L407.31,347.21 L409.85,347.50 L412.38,347.72 L414.92,347.87 L417.46,347.97 L420.00,348.00 L422.54,347.97 L425.08,347.87 L427.62,347.72 L430.15,347.50 L432.69,347.21 L435.23,346.87 L437.77,346.46 L440.31,345.99 L442.85,345.46 L445.38,344.86 L447.92,344.21 L450.46,343.49 L453.00,342.71 L455.54,341.88 L458.08,340.98 L460.62,340.03 L463.15,339.01 L465.69,337.94 L468.23,336.81 L470.77,335.63 L473.31,334.39 L475.85,333.09 L478.38,331.74 L480.92,330.34 L483.46,328.88 L486.00,327.37 L488.54,325.81 L491.08,324.20 L493.62,322.55 L496.15,320.84 L498.69,319.09 L501.23,317.28 L503.77,315.44 L506.31,313.55 L508.85,311.62 L511.38,309.64 L513.92,307.63 L516.46,305.57 L519.00,303.48 L521.54,301.35 L524.08,299.19 L526.62,296.99 L529.15,294.75 L531.69,292.49 L534.23,290.19 L536.77,287.86 L539.31,285.51 L541.85,283.13 L544.38,280.73 L546.92,278.30 L549.46,275.85 L552.00,273.37 L554.54,270.88 L557.08,268.37 L559.62,265.85 L562.15,263.30 L564.69,260.75 L567.23,258.18 L569.77,255.60 L572.31,253.02 L574.85,250.42 L577.38,247.82 L579.92,245.22 L582.46,242.61 L585.00,240.00 L587.54,237.39 L590.08,234.78 L592.62,232.18 L595.15,229.58 L597.69,226.98 L600.23,224.40 L602.77,221.82 L605.31,219.25 L607.85,216.70 L610.38,214.15 L612.92,211.63 L615.46,209.12 L618.00,206.63 L620.54,204.15 L623.08,201.70 L625.62,199.27 L628.15,196.87 L630.69,194.49 L633.23,192.14 L635.77,189.81 L638.31,187.51 L640.85,185.25 L643.38,183.01 L645.92,180.81 L648.46,178.65 L651.00,176.52 L653.54,174.43 L656.08,172.37 L658.62,170.36 L661.15,168.38 L663.69,166.45 L666.23,164.56 L668.77,162.72 L671.31,160.91 L673.85,159.16 L676.38,157.45 L678.92,155.80 L681.46,154.19 L684.00,152.63 L686.54,151.12 L689.08,149.66 L691.62,148.26 L694.15,146.91 L696.69,145.61 L699.23,144.37 L701.77,143.19 L704.31,142.06 L706.85,140.99 L709.38,139.97 L711.92,139.02 L714.46,138.12 L717.00,137.29 L719.54,136.51 L722.08,135.79 L724.62,135.14 L727.15,134.54 L729.69,134.01 L732.23,133.54 L734.77,133.13 L737.31,132.79 L739.85,132.50 L742.38,132.28 L744.92,132.13 L747.46,132.03 L750.00,132.00" fill="none" stroke="#2563eb" stroke-width="3.2" stroke-linecap="round" stroke-linejoin="round"/>
<path d="M90.00,240.00 L92.54,237.39 L95.08,234.78 L97.62,232.18 L100.15,229.58 L102.69,226.98 L105.23,224.40 L107.77,221.82 L110.31,219.25 L112.85,216.70 L115.38,214.15 L117.92,211.63 L120.46,209.12 L123.00,206.63 L125.54,204.15 L128.08,201.70 L130.62,199.27 L133.15,196.87 L135.69,194.49 L138.23,192.14 L140.77,189.81 L143.31,187.51 L145.85,185.25 L148.38,183.01 L150.92,180.81 L153.46,178.65 L156.00,176.52 L158.54,174.43 L161.08,172.37 L163.62,170.36 L166.15,168.38 L168.69,166.45 L171.23,164.56 L173.77,162.72 L176.31,160.91 L178.85,159.16 L181.38,157.45 L183.92,155.80 L186.46,154.19 L189.00,152.63 L191.54,151.12 L194.08,149.66 L196.62,148.26 L199.15,146.91 L201.69,145.61 L204.23,144.37 L206.77,143.19 L209.31,142.06 L211.85,140.99 L214.38,139.97 L216.92,139.02 L219.46,138.12 L222.00,137.29 L224.54,136.51 L227.08,135.79 L229.62,135.14 L232.15,134.54 L234.69,134.01 L237.23,133.54 L239.77,133.13 L242.31,132.79 L244.85,132.50 L247.38,132.28 L249.92,132.13 L252.46,132.03 L255.00,132.00 L257.54,132.03 L260.08,132.13 L262.62,132.28 L265.15,132.50 L267.69,132.79 L270.23,133.13 L272.77,133.54 L275.31,134.01 L277.85,134.54 L280.38,135.14 L282.92,135.79 L285.46,136.51 L288.00,137.29 L290.54,138.12 L293.08,139.02 L295.62,139.97 L298.15,140.99 L300.69,142.06 L303.23,143.19 L305.77,144.37 L308.31,145.61 L310.85,146.91 L313.38,148.26 L315.92,149.66 L318.46,151.12 L321.00,152.63 L323.54,154.19 L326.08,155.80 L328.62,157.45 L331.15,159.16 L333.69,160.91 L336.23,162.72 L338.77,164.56 L341.31,166.45 L343.85,168.38 L346.38,170.36 L348.92,172.37 L351.46,174.43 L354.00,176.52 L356.54,178.65 L359.08,180.81 L361.62,183.01 L364.15,185.25 L366.69,187.51 L369.23,189.81 L371.77,192.14 L374.31,194.49 L376.85,196.87 L379.38,199.27 L381.92,201.70 L384.46,204.15 L387.00,206.63 L389.54,209.12 L392.08,211.63 L394.62,214.15 L397.15,216.70 L399.69,219.25 L402.23,221.82 L404.77,224.40 L407.31,226.98 L409.85,229.58 L412.38,232.18 L414.92,234.78 L417.46,237.39 L420.00,240.00 L422.54,242.61 L425.08,245.22 L427.62,247.82 L430.15,250.42 L432.69,253.02 L435.23,255.60 L437.77,258.18 L440.31,260.75 L442.85,263.30 L445.38,265.85 L447.92,268.37 L450.46,270.88 L453.00,273.37 L455.54,275.85 L458.08,278.30 L460.62,280.73 L463.15,283.13 L465.69,285.51 L468.23,287.86 L470.77,290.19 L473.31,292.49 L475.85,294.75 L478.38,296.99 L480.92,299.19 L483.46,301.35 L486.00,303.48 L488.54,305.57 L491.08,307.63 L493.62,309.64 L496.15,311.62 L498.69,313.55 L501.23,315.44 L503.77,317.28 L506.31,319.09 L508.85,320.84 L511.38,322.55 L513.92,324.20 L516.46,325.81 L519.00,327.37 L521.54,328.88 L524.08,330.34 L526.62,331.74 L529.15,333.09 L531.69,334.39 L534.23,335.63 L536.77,336.81 L539.31,337.94 L541.85,339.01 L544.38,340.03 L546.92,340.98 L549.46,341.88 L552.00,342.71 L554.54,343.49 L557.08,344.21 L559.62,344.86 L562.15,345.46 L564.69,345.99 L567.23,346.46 L569.77,346.87 L572.31,347.21 L574.85,347.50 L577.38,347.72 L579.92,347.87 L582.46,347.97 L585.00,348.00 L587.54,347.97 L590.08,347.87 L592.62,347.72 L595.15,347.50 L597.69,347.21 L600.23,346.87 L602.77,346.46 L605.31,345.99 L607.85,345.46 L610.38,344.86 L612.92,344.21 L615.46,343.49 L618.00,342.71 L620.54,341.88 L623.08,340.98 L625.62,340.03 L628.15,339.01 L630.69,337.94 L633.23,336.81 L635.77,335.63 L638.31,334.39 L640.85,333.09 L643.38,331.74 L645.92,330.34 L648.46,328.88 L651.00,327.37 L653.54,325.81 L656.08,324.20 L658.62,322.55 L661.15,320.84 L663.69,319.09 L666.23,317.28 L668.77,315.44 L671.31,313.55 L673.85,311.62 L676.38,309.64 L678.92,307.63 L681.46,305.57 L684.00,303.48 L686.54,301.35 L689.08,299.19 L691.62,296.99 L694.15,294.75 L696.69,292.49 L699.23,290.19 L701.77,287.86 L704.31,285.51 L706.85,283.13 L709.38,280.73 L711.92,278.30 L714.46,275.85 L717.00,273.37 L719.54,270.88 L722.08,268.37 L724.62,265.85 L727.15,263.30 L729.69,260.75 L732.23,258.18 L734.77,255.60 L737.31,253.02 L739.85,250.42 L742.38,247.82 L744.92,245.22 L747.46,242.61 L750.00,240.00" fill="none" stroke="#ea580c" stroke-width="3.2" stroke-linecap="round" stroke-linejoin="round"/>
<line x1="90" y1="132" x2="90" y2="96" stroke="#2563eb" stroke-width="1.2" stroke-linecap="butt" stroke-dasharray="3 4"/>
<line x1="255.0" y1="132" x2="255.0" y2="96" stroke="#ea580c" stroke-width="1.2" stroke-linecap="butt" stroke-dasharray="3 4"/>
<line x1="90" y1="102" x2="255.0" y2="102" stroke="#64748b" stroke-width="1.8" stroke-linecap="butt" marker-end="url(#ar-slate)" marker-start="url(#ar-slate)"/>
<text x="172.5" y="92" font-size="12.5" fill="#64748b" text-anchor="middle" font-weight="600">T/4 (= 90°)</text>
<circle cx="255.0" cy="240" r="5" fill="#ffffff" stroke="#2563eb" stroke-width="2.5"/>
<circle cx="255.0" cy="132" r="5" fill="#ffffff" stroke="#ea580c" stroke-width="2.5"/>
<text x="430.0" y="416" font-size="13.5" fill="#1e293b" text-anchor="middle" font-weight="600">I가 0을 지나는 순간(○) Q는 최대 — 두 성분은 언제나 서로를 보완한다</text>
</svg>
