<svg xmlns="http://www.w3.org/2000/svg" viewBox="0 0 860 480" font-family="Segoe UI, Malgun Gothic, Apple SD Gothic Neo, sans-serif">
<defs>
<marker id="ar-slate" viewBox="0 0 10 10" refX="8.5" refY="5" markerWidth="6.5" markerHeight="6.5" orient="auto-start-reverse"><path d="M0,0 L10,5 L0,10 z" fill="#64748b"/></marker>
<marker id="ar-blue" viewBox="0 0 10 10" refX="8.5" refY="5" markerWidth="6.5" markerHeight="6.5" orient="auto-start-reverse"><path d="M0,0 L10,5 L0,10 z" fill="#2563eb"/></marker>
<marker id="ar-orange" viewBox="0 0 10 10" refX="8.5" refY="5" markerWidth="6.5" markerHeight="6.5" orient="auto-start-reverse"><path d="M0,0 L10,5 L0,10 z" fill="#ea580c"/></marker>
<marker id="ar-sky" viewBox="0 0 10 10" refX="8.5" refY="5" markerWidth="6.5" markerHeight="6.5" orient="auto-start-reverse"><path d="M0,0 L10,5 L0,10 z" fill="#0284c7"/></marker>
<marker id="ar-red" viewBox="0 0 10 10" refX="8.5" refY="5" markerWidth="6.5" markerHeight="6.5" orient="auto-start-reverse"><path d="M0,0 L10,5 L0,10 z" fill="#dc2626"/></marker>
<marker id="ar-green" viewBox="0 0 10 10" refX="8.5" refY="5" markerWidth="6.5" markerHeight="6.5" orient="auto-start-reverse"><path d="M0,0 L10,5 L0,10 z" fill="#16a34a"/></marker>
<marker id="ar-violet" viewBox="0 0 10 10" refX="8.5" refY="5" markerWidth="6.5" markerHeight="6.5" orient="auto-start-reverse"><path d="M0,0 L10,5 L0,10 z" fill="#7c3aed"/></marker>
<marker id="ar-axis" viewBox="0 0 10 10" refX="8.5" refY="5" markerWidth="6.5" markerHeight="6.5" orient="auto-start-reverse"><path d="M0,0 L10,5 L0,10 z" fill="#94a3b8"/></marker>
</defs>
<rect x="1" y="1" width="858" height="478" rx="14" fill="#ffffff" stroke="#e2e8f0" stroke-width="2"/>
<text x="430.0" y="34" font-size="17" fill="#1e293b" text-anchor="middle" font-weight="700">IQ가 있어야 도플러의 '부호'가 보인다</text>
<rect x="40" y="62" width="260" height="338" rx="12" fill="#fcfdfe" stroke="#e2e8f0" stroke-width="1.6"/>
<text x="170.0" y="90" font-size="13.5" fill="#1e293b" text-anchor="middle" font-weight="700">실수 신호 1채널</text>
<line x1="64" y1="320" x2="276" y2="320" stroke="#94a3b8" stroke-width="1.7" stroke-linecap="butt" marker-end="url(#ar-axis)"/>
<line x1="170.0" y1="325" x2="170.0" y2="202" stroke="#e2e8f0" stroke-width="1.4" stroke-linecap="butt" stroke-dasharray="3 4"/>
<line x1="108.0" y1="320" x2="108.0" y2="325" stroke="#94a3b8" stroke-width="1.7" stroke-linecap="butt"/>
<text x="108.0" y="342" font-size="12" fill="#64748b" text-anchor="middle">−f<tspan font-size="0.72em" baseline-shift="-18%">d</tspan></text>
<line x1="170.0" y1="320" x2="170.0" y2="325" stroke="#94a3b8" stroke-width="1.7" stroke-linecap="butt"/>
<text x="170.0" y="342" font-size="12" fill="#64748b" text-anchor="middle">0</text>
<line x1="232.0" y1="320" x2="232.0" y2="325" stroke="#94a3b8" stroke-width="1.7" stroke-linecap="butt"/>
<text x="232.0" y="342" font-size="12" fill="#64748b" text-anchor="middle">+f<tspan font-size="0.72em" baseline-shift="-18%">d</tspan></text>
<text x="170.0" y="362" font-size="11.5" fill="#64748b" text-anchor="middle">도플러 주파수</text>
<path d="M74.00,320.00 L74.57,320.00 L75.13,320.00 L75.70,320.00 L76.27,320.00 L76.83,320.00 L77.40,320.00 L77.97,320.00 L78.53,320.00 L79.10,320.00 L79.67,320.00 L80.23,319.99 L80.80,319.99 L81.37,319.98 L81.93,319.98 L82.50,319.97 L83.07,319.95 L83.63,319.93 L84.20,319.91 L84.77,319.87 L85.33,319.82 L85.90,319.76 L86.47,319.67 L87.03,319.56 L87.60,319.41 L88.17,319.22 L88.73,318.98 L89.30,318.67 L89.87,318.27 L90.43,317.78 L91.00,317.18 L91.57,316.43 L92.13,315.53 L92.70,314.44 L93.27,313.14 L93.83,311.61 L94.40,309.81 L94.97,307.72 L95.53,305.32 L96.10,302.59 L96.67,299.52 L97.23,296.10 L97.80,292.32 L98.37,288.20 L98.93,283.76 L99.50,279.02 L100.07,274.02 L100.63,268.83 L101.20,263.50 L101.77,258.10 L102.33,252.73 L102.90,247.47 L103.47,242.41 L104.03,237.65 L104.60,233.30 L105.17,229.44 L105.73,226.15 L106.30,223.51 L106.87,221.57 L107.43,220.40 L108.00,220.00 L108.57,220.40 L109.13,221.57 L109.70,223.51 L110.27,226.15 L110.83,229.44 L111.40,233.30 L111.97,237.65 L112.53,242.41 L113.10,247.47 L113.67,252.73 L114.23,258.10 L114.80,263.50 L115.37,268.83 L115.93,274.02 L116.50,279.02 L117.07,283.76 L117.63,288.20 L118.20,292.32 L118.77,296.10 L119.33,299.52 L119.90,302.59 L120.47,305.32 L121.03,307.72 L121.60,309.81 L122.17,311.61 L122.73,313.14 L123.30,314.44 L123.87,315.53 L124.43,316.43 L125.00,317.18 L125.57,317.78 L126.13,318.27 L126.70,318.67 L127.27,318.98 L127.83,319.22 L128.40,319.41 L128.97,319.56 L129.53,319.67 L130.10,319.76 L130.67,319.82 L131.23,319.87 L131.80,319.91 L132.37,319.93 L132.93,319.95 L133.50,319.97 L134.07,319.98 L134.63,319.98 L135.20,319.99 L135.77,319.99 L136.33,320.00 L136.90,320.00 L137.47,320.00 L138.03,320.00 L138.60,320.00 L139.17,320.00 L139.73,320.00 L140.30,320.00 L140.87,320.00 L141.43,320.00 L142.00,320.00" fill="none" stroke="#64748b" stroke-width="2.6" stroke-linecap="round" stroke-linejoin="round"/>
<path d="M198.00,320.00 L198.57,320.00 L199.13,320.00 L199.70,320.00 L200.27,320.00 L200.83,320.00 L201.40,320.00 L201.97,320.00 L202.53,320.00 L203.10,320.00 L203.67,320.00 L204.23,319.99 L204.80,319.99 L205.37,319.98 L205.93,319.98 L206.50,319.97 L207.07,319.95 L207.63,319.93 L208.20,319.91 L208.77,319.87 L209.33,319.82 L209.90,319.76 L210.47,319.67 L211.03,319.56 L211.60,319.41 L212.17,319.22 L212.73,318.98 L213.30,318.67 L213.87,318.27 L214.43,317.78 L215.00,317.18 L215.57,316.43 L216.13,315.53 L216.70,314.44 L217.27,313.14 L217.83,311.61 L218.40,309.81 L218.97,307.72 L219.53,305.32 L220.10,302.59 L220.67,299.52 L221.23,296.10 L221.80,292.32 L222.37,288.20 L222.93,283.76 L223.50,279.02 L224.07,274.02 L224.63,268.83 L225.20,263.50 L225.77,258.10 L226.33,252.73 L226.90,247.47 L227.47,242.41 L228.03,237.65 L228.60,233.30 L229.17,229.44 L229.73,226.15 L230.30,223.51 L230.87,221.57 L231.43,220.40 L232.00,220.00 L232.57,220.40 L233.13,221.57 L233.70,223.51 L234.27,226.15 L234.83,229.44 L235.40,233.30 L235.97,237.65 L236.53,242.41 L237.10,247.47 L237.67,252.73 L238.23,258.10 L238.80,263.50 L239.37,268.83 L239.93,274.02 L240.50,279.02 L241.07,283.76 L241.63,288.20 L242.20,292.32 L242.77,296.10 L243.33,299.52 L243.90,302.59 L244.47,305.32 L245.03,307.72 L245.60,309.81 L246.17,311.61 L246.73,313.14 L247.30,314.44 L247.87,315.53 L248.43,316.43 L249.00,317.18 L249.57,317.78 L250.13,318.27 L250.70,318.67 L251.27,318.98 L251.83,319.22 L252.40,319.41 L252.97,319.56 L253.53,319.67 L254.10,319.76 L254.67,319.82 L255.23,319.87 L255.80,319.91 L256.37,319.93 L256.93,319.95 L257.50,319.97 L258.07,319.98 L258.63,319.98 L259.20,319.99 L259.77,319.99 L260.33,320.00 L260.90,320.00 L261.47,320.00 L262.03,320.00 L262.60,320.00 L263.17,320.00 L263.73,320.00 L264.30,320.00 L264.87,320.00 L265.43,320.00 L266.00,320.00" fill="none" stroke="#64748b" stroke-width="2.6" stroke-linecap="round" stroke-linejoin="round"/>
<line x1="108.0" y1="208" x2="232.0" y2="208" stroke="#dc2626" stroke-width="1.6" stroke-linecap="butt" stroke-dasharray="4 4" marker-end="url(#ar-red)" marker-start="url(#ar-red)"/>
<text x="170.0" y="198" font-size="11.5" fill="#dc2626" text-anchor="middle" font-weight="600">항상 좌우 대칭</text>
<path d="M112.00,106.00 L112.45,106.04 L112.89,106.16 L113.34,106.36 L113.78,106.64 L114.23,107.00 L114.68,107.43 L115.12,107.94 L115.57,108.52 L116.02,109.17 L116.46,109.89 L116.91,110.68 L117.35,111.53 L117.80,112.44 L118.25,113.41 L118.69,114.43 L119.14,115.50 L119.58,116.62 L120.03,117.78 L120.48,118.97 L120.92,120.20 L121.37,121.45 L121.82,122.74 L122.26,124.03 L122.71,125.35 L123.15,126.67 L123.60,128.00 L124.05,129.33 L124.49,130.65 L124.94,131.97 L125.38,133.26 L125.83,134.55 L126.28,135.80 L126.72,137.03 L127.17,138.22 L127.62,139.38 L128.06,140.50 L128.51,141.57 L128.95,142.59 L129.40,143.56 L129.85,144.47 L130.29,145.32 L130.74,146.11 L131.18,146.83 L131.63,147.48 L132.08,148.06 L132.52,148.57 L132.97,149.00 L133.42,149.36 L133.86,149.64 L134.31,149.84 L134.75,149.96 L135.20,150.00 L135.65,149.96 L136.09,149.84 L136.54,149.64 L136.98,149.36 L137.43,149.00 L137.88,148.57 L138.32,148.06 L138.77,147.48 L139.22,146.83 L139.66,146.11 L140.11,145.32 L140.55,144.47 L141.00,143.56 L141.45,142.59 L141.89,141.57 L142.34,140.50 L142.78,139.38 L143.23,138.22 L143.68,137.03 L144.12,135.80 L144.57,134.55 L145.02,133.26 L145.46,131.97 L145.91,130.65 L146.35,129.33 L146.80,128.00 L147.25,126.67 L147.69,125.35 L148.14,124.03 L148.58,122.74 L149.03,121.45 L149.48,120.20 L149.92,118.97 L150.37,117.78 L150.82,116.62 L151.26,115.50 L151.71,114.43 L152.15,113.41 L152.60,112.44 L153.05,111.53 L153.49,110.68 L153.94,109.89 L154.38,109.17 L154.83,108.52 L155.28,107.94 L155.72,107.43 L156.17,107.00 L156.62,106.64 L157.06,106.36 L157.51,106.16 L157.95,106.04 L158.40,106.00 L158.85,106.04 L159.29,106.16 L159.74,106.36 L160.18,106.64 L160.63,107.00 L161.08,107.43 L161.52,107.94 L161.97,108.52 L162.42,109.17 L162.86,109.89 L163.31,110.68 L163.75,111.53 L164.20,112.44 L164.65,113.41 L165.09,114.43 L165.54,115.50 L165.98,116.62 L166.43,117.78 L166.88,118.97 L167.32,120.20 L167.77,121.45 L168.22,122.74 L168.66,124.03 L169.11,125.35 L169.55,126.67 L170.00,128.00 L170.45,129.33 L170.89,130.65 L171.34,131.97 L171.78,133.26 L172.23,134.55 L172.68,135.80 L173.12,137.03 L173.57,138.22 L174.02,139.38 L174.46,140.50 L174.91,141.57 L175.35,142.59 L175.80,143.56 L176.25,144.47 L176.69,145.32 L177.14,146.11 L177.58,146.83 L178.03,147.48 L178.48,148.06 L178.92,148.57 L179.37,149.00 L179.82,149.36 L180.26,149.64 L180.71,149.84 L181.15,149.96 L181.60,150.00 L182.05,149.96 L182.49,149.84 L182.94,149.64 L183.38,149.36 L183.83,149.00 L184.28,148.57 L184.72,148.06 L185.17,147.48 L185.62,146.83 L186.06,146.11 L186.51,145.32 L186.95,144.47 L187.40,143.56 L187.85,142.59 L188.29,141.57 L188.74,140.50 L189.18,139.38 L189.63,138.22 L190.08,137.03 L190.52,135.80 L190.97,134.55 L191.42,133.26 L191.86,131.97 L192.31,130.65 L192.75,129.33 L193.20,128.00 L193.65,126.67 L194.09,125.35 L194.54,124.03 L194.98,122.74 L195.43,121.45 L195.88,120.20 L196.32,118.97 L196.77,117.78 L197.22,116.62 L197.66,115.50 L198.11,114.43 L198.55,113.41 L199.00,112.44 L199.45,111.53 L199.89,110.68 L200.34,109.89 L200.78,109.17 L201.23,108.52 L201.68,107.94 L202.12,107.43 L202.57,107.00 L203.02,106.64 L203.46,106.36 L203.91,106.16 L204.35,106.04 L204.80,106.00 L205.25,106.04 L205.69,106.16 L206.14,106.36 L206.58,106.64 L207.03,107.00 L207.48,107.43 L207.92,107.94 L208.37,108.52 L208.82,109.17 L209.26,109.89 L209.71,110.68 L210.15,111.53 L210.60,112.44 L211.05,113.41 L211.49,114.43 L211.94,115.50 L212.38,116.62 L212.83,117.78 L213.28,118.97 L213.72,120.20 L214.17,121.45 L214.62,122.74 L215.06,124.03 L215.51,125.35 L215.95,126.67 L216.40,128.00 L216.85,129.33 L217.29,130.65 L217.74,131.97 L218.18,133.26 L218.63,134.55 L219.08,135.80 L219.52,137.03 L219.97,138.22 L220.42,139.38 L220.86,140.50 L221.31,141.57 L221.75,142.59 L222.20,143.56 L222.65,144.47 L223.09,145.32 L223.54,146.11 L223.98,146.83 L224.43,147.48 L224.88,148.06 L225.32,148.57 L225.77,149.00 L226.22,149.36 L226.66,149.64 L227.11,149.84 L227.55,149.96 L228.00,150.00" fill="none" stroke="#64748b" stroke-width="2.2" stroke-linecap="round" stroke-linejoin="round"/>
<text x="170.0" y="170" font-size="11" fill="#64748b" text-anchor="middle">cos 성분 하나뿐</text>
<text x="170.0" y="386" font-size="12" fill="#dc2626" text-anchor="middle" font-weight="600">cos(+2πf<tspan font-size="0.72em" baseline-shift="-18%">d</tspan>t) = cos(−2πf<tspan font-size="0.72em" baseline-shift="-18%">d</tspan>t)</text>
<rect x="300" y="62" width="260" height="338" rx="12" fill="#fcfdfe" stroke="#e2e8f0" stroke-width="1.6"/>
<text x="430.0" y="90" font-size="13.5" fill="#16a34a" text-anchor="middle" font-weight="700">IQ 신호 — 접근 (+)</text>
<line x1="324" y1="320" x2="536" y2="320" stroke="#94a3b8" stroke-width="1.7" stroke-linecap="butt" marker-end="url(#ar-axis)"/>
<line x1="430.0" y1="325" x2="430.0" y2="202" stroke="#e2e8f0" stroke-width="1.4" stroke-linecap="butt" stroke-dasharray="3 4"/>
<line x1="368.0" y1="320" x2="368.0" y2="325" stroke="#94a3b8" stroke-width="1.7" stroke-linecap="butt"/>
<text x="368.0" y="342" font-size="12" fill="#64748b" text-anchor="middle">−f<tspan font-size="0.72em" baseline-shift="-18%">d</tspan></text>
<line x1="430.0" y1="320" x2="430.0" y2="325" stroke="#94a3b8" stroke-width="1.7" stroke-linecap="butt"/>
<text x="430.0" y="342" font-size="12" fill="#64748b" text-anchor="middle">0</text>
<line x1="492.0" y1="320" x2="492.0" y2="325" stroke="#94a3b8" stroke-width="1.7" stroke-linecap="butt"/>
<text x="492.0" y="342" font-size="12" fill="#64748b" text-anchor="middle">+f<tspan font-size="0.72em" baseline-shift="-18%">d</tspan></text>
<text x="430.0" y="362" font-size="11.5" fill="#64748b" text-anchor="middle">도플러 주파수</text>
<path d="M458.00,320.00 L458.57,320.00 L459.13,320.00 L459.70,320.00 L460.27,320.00 L460.83,320.00 L461.40,320.00 L461.97,320.00 L462.53,320.00 L463.10,320.00 L463.67,319.99 L464.23,319.99 L464.80,319.99 L465.37,319.98 L465.93,319.97 L466.50,319.96 L467.07,319.95 L467.63,319.93 L468.20,319.90 L468.77,319.86 L469.33,319.80 L469.90,319.73 L470.47,319.63 L471.03,319.51 L471.60,319.34 L472.17,319.13 L472.73,318.85 L473.30,318.51 L473.87,318.07 L474.43,317.52 L475.00,316.84 L475.57,316.01 L476.13,314.99 L476.70,313.78 L477.27,312.32 L477.83,310.60 L478.40,308.58 L478.97,306.25 L479.53,303.56 L480.10,300.50 L480.67,297.06 L481.23,293.23 L481.80,289.00 L482.37,284.38 L482.93,279.41 L483.50,274.10 L484.07,268.50 L484.63,262.69 L485.20,256.72 L485.77,250.67 L486.33,244.66 L486.90,238.76 L487.47,233.10 L488.03,227.77 L488.60,222.90 L489.17,218.57 L489.73,214.88 L490.30,211.93 L490.87,209.76 L491.43,208.44 L492.00,208.00 L492.57,208.44 L493.13,209.76 L493.70,211.93 L494.27,214.88 L494.83,218.57 L495.40,222.90 L495.97,227.77 L496.53,233.10 L497.10,238.76 L497.67,244.66 L498.23,250.67 L498.80,256.72 L499.37,262.69 L499.93,268.50 L500.50,274.10 L501.07,279.41 L501.63,284.38 L502.20,289.00 L502.77,293.23 L503.33,297.06 L503.90,300.50 L504.47,303.56 L505.03,306.25 L505.60,308.58 L506.17,310.60 L506.73,312.32 L507.30,313.78 L507.87,314.99 L508.43,316.01 L509.00,316.84 L509.57,317.52 L510.13,318.07 L510.70,318.51 L511.27,318.85 L511.83,319.13 L512.40,319.34 L512.97,319.51 L513.53,319.63 L514.10,319.73 L514.67,319.80 L515.23,319.86 L515.80,319.90 L516.37,319.93 L516.93,319.95 L517.50,319.96 L518.07,319.97 L518.63,319.98 L519.20,319.99 L519.77,319.99 L520.33,319.99 L520.90,320.00 L521.47,320.00 L522.03,320.00 L522.60,320.00 L523.17,320.00 L523.73,320.00 L524.30,320.00 L524.87,320.00 L525.43,320.00 L526.00,320.00" fill="none" stroke="#16a34a" stroke-width="2.8" stroke-linecap="round" stroke-linejoin="round"/>
<circle cx="430.0" cy="138" r="27" fill="none" stroke="#e2e8f0" stroke-width="1.6" stroke-dasharray="3 4"/>
<line x1="396.0" y1="138" x2="464.0" y2="138" stroke="#e2e8f0" stroke-width="1.2" stroke-linecap="butt"/>
<line x1="430.0" y1="104" x2="430.0" y2="172" stroke="#e2e8f0" stroke-width="1.2" stroke-linecap="butt"/>
<line x1="430.0" y1="138" x2="451.2762903473815" y2="121.37714016620723" stroke="#7c3aed" stroke-width="2.6" stroke-linecap="round" marker-end="url(#ar-violet)"/>
<path d="M452.37,106.05 A39,39 0 0 0 413.52,102.65" fill="none" stroke="#16a34a" stroke-width="2.2" stroke-linecap="round" stroke-linejoin="round" marker-end="url(#ar-green)"/>
<text x="430.0" y="190" font-size="11.5" fill="#16a34a" text-anchor="middle" font-weight="600">위상 증가 (반시계 회전)</text>
<text x="430.0" y="386" font-size="12" fill="#16a34a" text-anchor="middle" font-weight="600">x(t) = A·exp(+j2πf<tspan font-size="0.72em" baseline-shift="-18%">d</tspan>t)</text>
<rect x="560" y="62" width="260" height="338" rx="12" fill="#fcfdfe" stroke="#e2e8f0" stroke-width="1.6"/>
<text x="690.0" y="90" font-size="13.5" fill="#dc2626" text-anchor="middle" font-weight="700">IQ 신호 — 이탈 (−)</text>
<line x1="584" y1="320" x2="796" y2="320" stroke="#94a3b8" stroke-width="1.7" stroke-linecap="butt" marker-end="url(#ar-axis)"/>
<line x1="690.0" y1="325" x2="690.0" y2="202" stroke="#e2e8f0" stroke-width="1.4" stroke-linecap="butt" stroke-dasharray="3 4"/>
<line x1="628.0" y1="320" x2="628.0" y2="325" stroke="#94a3b8" stroke-width="1.7" stroke-linecap="butt"/>
<text x="628.0" y="342" font-size="12" fill="#64748b" text-anchor="middle">−f<tspan font-size="0.72em" baseline-shift="-18%">d</tspan></text>
<line x1="690.0" y1="320" x2="690.0" y2="325" stroke="#94a3b8" stroke-width="1.7" stroke-linecap="butt"/>
<text x="690.0" y="342" font-size="12" fill="#64748b" text-anchor="middle">0</text>
<line x1="752.0" y1="320" x2="752.0" y2="325" stroke="#94a3b8" stroke-width="1.7" stroke-linecap="butt"/>
<text x="752.0" y="342" font-size="12" fill="#64748b" text-anchor="middle">+f<tspan font-size="0.72em" baseline-shift="-18%">d</tspan></text>
<text x="690.0" y="362" font-size="11.5" fill="#64748b" text-anchor="middle">도플러 주파수</text>
<path d="M594.00,320.00 L594.57,320.00 L595.13,320.00 L595.70,320.00 L596.27,320.00 L596.83,320.00 L597.40,320.00 L597.97,320.00 L598.53,320.00 L599.10,320.00 L599.67,319.99 L600.23,319.99 L600.80,319.99 L601.37,319.98 L601.93,319.97 L602.50,319.96 L603.07,319.95 L603.63,319.93 L604.20,319.90 L604.77,319.86 L605.33,319.80 L605.90,319.73 L606.47,319.63 L607.03,319.51 L607.60,319.34 L608.17,319.13 L608.73,318.85 L609.30,318.51 L609.87,318.07 L610.43,317.52 L611.00,316.84 L611.57,316.01 L612.13,314.99 L612.70,313.78 L613.27,312.32 L613.83,310.60 L614.40,308.58 L614.97,306.25 L615.53,303.56 L616.10,300.50 L616.67,297.06 L617.23,293.23 L617.80,289.00 L618.37,284.38 L618.93,279.41 L619.50,274.10 L620.07,268.50 L620.63,262.69 L621.20,256.72 L621.77,250.67 L622.33,244.66 L622.90,238.76 L623.47,233.10 L624.03,227.77 L624.60,222.90 L625.17,218.57 L625.73,214.88 L626.30,211.93 L626.87,209.76 L627.43,208.44 L628.00,208.00 L628.57,208.44 L629.13,209.76 L629.70,211.93 L630.27,214.88 L630.83,218.57 L631.40,222.90 L631.97,227.77 L632.53,233.10 L633.10,238.76 L633.67,244.66 L634.23,250.67 L634.80,256.72 L635.37,262.69 L635.93,268.50 L636.50,274.10 L637.07,279.41 L637.63,284.38 L638.20,289.00 L638.77,293.23 L639.33,297.06 L639.90,300.50 L640.47,303.56 L641.03,306.25 L641.60,308.58 L642.17,310.60 L642.73,312.32 L643.30,313.78 L643.87,314.99 L644.43,316.01 L645.00,316.84 L645.57,317.52 L646.13,318.07 L646.70,318.51 L647.27,318.85 L647.83,319.13 L648.40,319.34 L648.97,319.51 L649.53,319.63 L650.10,319.73 L650.67,319.80 L651.23,319.86 L651.80,319.90 L652.37,319.93 L652.93,319.95 L653.50,319.96 L654.07,319.97 L654.63,319.98 L655.20,319.99 L655.77,319.99 L656.33,319.99 L656.90,320.00 L657.47,320.00 L658.03,320.00 L658.60,320.00 L659.17,320.00 L659.73,320.00 L660.30,320.00 L660.87,320.00 L661.43,320.00 L662.00,320.00" fill="none" stroke="#dc2626" stroke-width="2.8" stroke-linecap="round" stroke-linejoin="round"/>
<circle cx="690.0" cy="138" r="27" fill="none" stroke="#e2e8f0" stroke-width="1.6" stroke-dasharray="3 4"/>
<line x1="656.0" y1="138" x2="724.0" y2="138" stroke="#e2e8f0" stroke-width="1.2" stroke-linecap="butt"/>
<line x1="690.0" y1="104" x2="690.0" y2="172" stroke="#e2e8f0" stroke-width="1.2" stroke-linecap="butt"/>
<line x1="690.0" y1="138" x2="711.2762903473815" y2="121.37714016620723" stroke="#7c3aed" stroke-width="2.6" stroke-linecap="round" marker-end="url(#ar-violet)"/>
<path d="M667.63,106.05 A39,39 0 0 1 706.48,102.65" fill="none" stroke="#dc2626" stroke-width="2.2" stroke-linecap="round" stroke-linejoin="round" marker-end="url(#ar-red)"/>
<text x="690.0" y="190" font-size="11.5" fill="#dc2626" text-anchor="middle" font-weight="600">위상 감소 (시계 회전)</text>
<text x="690.0" y="386" font-size="12" fill="#dc2626" text-anchor="middle" font-weight="600">x(t) = A·exp(−j2πf<tspan font-size="0.72em" baseline-shift="-18%">d</tspan>t)</text>
<text x="430.0" y="432" font-size="13.5" fill="#1e293b" text-anchor="middle" font-weight="600">실수 신호의 스펙트럼은 좌우 대칭이라 접근/이탈이 겹쳐 보이지만,</text>
<text x="430.0" y="454" font-size="13.5" fill="#1e293b" text-anchor="middle" font-weight="600">복소 IQ 신호는 한쪽에만 피크가 서므로 움직임의 방향이 그대로 드러난다.</text>
</svg>
