<svg xmlns="http://www.w3.org/2000/svg" viewBox="0 0 860 450" font-family="Segoe UI, Malgun Gothic, Apple SD Gothic Neo, sans-serif">
<defs>
<marker id="ar-slate" viewBox="0 0 10 10" refX="8.5" refY="5" markerWidth="6.5" markerHeight="6.5" orient="auto-start-reverse"><path d="M0,0 L10,5 L0,10 z" fill="#64748b"/></marker>
<marker id="ar-blue" viewBox="0 0 10 10" refX="8.5" refY="5" markerWidth="6.5" markerHeight="6.5" orient="auto-start-reverse"><path d="M0,0 L10,5 L0,10 z" fill="#2563eb"/></marker>
<marker id="ar-orange" viewBox="0 0 10 10" refX="8.5" refY="5" markerWidth="6.5" markerHeight="6.5" orient="auto-start-reverse"><path d="M0,0 L10,5 L0,10 z" fill="#ea580c"/></marker>
<marker id="ar-sky" viewBox="0 0 10 10" refX="8.5" refY="5" markerWidth="6.5" markerHeight="6.5" orient="auto-start-reverse"><path d="M0,0 L10,5 L0,10 z" fill="#0284c7"/></marker>
<marker id="ar-red" viewBox="0 0 10 10" refX="8.5" refY="5" markerWidth="6.5" markerHeight="6.5" orient="auto-start-reverse"><path d="M0,0 L10,5 L0,10 z" fill="#dc2626"/></marker>
<marker id="ar-green" viewBox="0 0 10 10" refX="8.5" refY="5" markerWidth="6.5" markerHeight="6.5" orient="auto-start-reverse"><path d="M0,0 L10,5 L0,10 z" fill="#16a34a"/></marker>
<marker id="ar-violet" viewBox="0 0 10 10" refX="8.5" refY="5" markerWidth="6.5" markerHeight="6.5" orient="auto-start-reverse"><path d="M0,0 L10,5 L0,10 z" fill="#7c3aed"/></marker>
<marker id="ar-axis" viewBox="0 0 10 10" refX="8.5" refY="5" markerWidth="6.5" markerHeight="6.5" orient="auto-start-reverse"><path d="M0,0 L10,5 L0,10 z" fill="#94a3b8"/></marker>
</defs>
<rect x="1" y="1" width="858" height="448" rx="14" fill="#ffffff" stroke="#e2e8f0" stroke-width="2"/>
<text x="430.0" y="34" font-size="16.5" fill="#1e293b" text-anchor="middle" font-weight="700">단일 채널의 '감도 0' 지점(null point) — I/Q는 서로 보완한다</text>
<rect x="40" y="60" width="380" height="336" rx="12" fill="#fcfdfe" stroke="#e2e8f0" stroke-width="1.6"/>
<text x="230.0" y="86" font-size="13.5" fill="#2563eb" text-anchor="middle" font-weight="700">I 채널:  I = A cos φ</text>
<line x1="68" y1="248" x2="404" y2="248" stroke="#94a3b8" stroke-width="1.6" stroke-linecap="butt" marker-end="url(#ar-axis)"/>
<line x1="74.0" y1="245" x2="74.0" y2="251" stroke="#94a3b8" stroke-width="1.4" stroke-linecap="butt"/>
<line x1="155.0" y1="245" x2="155.0" y2="251" stroke="#94a3b8" stroke-width="1.4" stroke-linecap="butt"/>
<line x1="236.0" y1="245" x2="236.0" y2="251" stroke="#94a3b8" stroke-width="1.4" stroke-linecap="butt"/>
<line x1="317.0" y1="245" x2="317.0" y2="251" stroke="#94a3b8" stroke-width="1.4" stroke-linecap="butt"/>
<line x1="398.0" y1="245" x2="398.0" y2="251" stroke="#94a3b8" stroke-width="1.4" stroke-linecap="butt"/>
<text x="402" y="266" font-size="11.5" fill="#64748b" text-anchor="end">위상 φ</text>
<rect x="212.6" y="160" width="46.79999999999998" height="176" rx="6" fill="#f1f5f9" stroke="#cbd5e1" stroke-width="1.2" stroke-dasharray="4 4"/>
<line x1="212.6" y1="340" x2="259.4" y2="340" stroke="#64748b" stroke-width="1.6" stroke-linecap="butt" marker-end="url(#ar-slate)" marker-start="url(#ar-slate)"/>
<text x="236.0" y="358" font-size="11.5" fill="#64748b" text-anchor="middle">미세한 위상 변화 Δφ (호흡·진동 등)</text>
<path d="M74.00,324.00 L75.25,323.98 L76.49,323.91 L77.74,323.80 L78.98,323.65 L80.23,323.45 L81.48,323.20 L82.72,322.92 L83.97,322.58 L85.22,322.21 L86.46,321.79 L87.71,321.33 L88.95,320.83 L90.20,320.28 L91.45,319.69 L92.69,319.06 L93.94,318.39 L95.18,317.68 L96.43,316.92 L97.68,316.13 L98.92,315.29 L100.17,314.42 L101.42,313.51 L102.66,312.56 L103.91,311.57 L105.15,310.55 L106.40,309.49 L107.65,308.39 L108.89,307.26 L110.14,306.09 L111.38,304.89 L112.63,303.65 L113.88,302.39 L115.12,301.09 L116.37,299.76 L117.62,298.40 L118.86,297.01 L120.11,295.59 L121.35,294.14 L122.60,292.67 L123.85,291.17 L125.09,289.65 L126.34,288.10 L127.58,286.53 L128.83,284.93 L130.08,283.32 L131.32,281.68 L132.57,280.03 L133.82,278.35 L135.06,276.66 L136.31,274.95 L137.55,273.22 L138.80,271.49 L140.05,269.73 L141.29,267.97 L142.54,266.19 L143.78,264.40 L145.03,262.60 L146.28,260.80 L147.52,258.98 L148.77,257.16 L150.02,255.34 L151.26,253.51 L152.51,251.67 L153.75,249.84 L155.00,248.00 L156.25,246.16 L157.49,244.33 L158.74,242.49 L159.98,240.66 L161.23,238.84 L162.48,237.02 L163.72,235.20 L164.97,233.40 L166.22,231.60 L167.46,229.81 L168.71,228.03 L169.95,226.27 L171.20,224.51 L172.45,222.78 L173.69,221.05 L174.94,219.34 L176.18,217.65 L177.43,215.97 L178.68,214.32 L179.92,212.68 L181.17,211.07 L182.42,209.47 L183.66,207.90 L184.91,206.35 L186.15,204.83 L187.40,203.33 L188.65,201.86 L189.89,200.41 L191.14,198.99 L192.38,197.60 L193.63,196.24 L194.88,194.91 L196.12,193.61 L197.37,192.35 L198.62,191.11 L199.86,189.91 L201.11,188.74 L202.35,187.61 L203.60,186.51 L204.85,185.45 L206.09,184.43 L207.34,183.44 L208.58,182.49 L209.83,181.58 L211.08,180.71 L212.32,179.87 L213.57,179.08 L214.82,178.32 L216.06,177.61 L217.31,176.94 L218.55,176.31 L219.80,175.72 L221.05,175.17 L222.29,174.67 L223.54,174.21 L224.78,173.79 L226.03,173.42 L227.28,173.08 L228.52,172.80 L229.77,172.55 L231.02,172.35 L232.26,172.20 L233.51,172.09 L234.75,172.02 L236.00,172.00 L237.25,172.02 L238.49,172.09 L239.74,172.20 L240.98,172.35 L242.23,172.55 L243.48,172.80 L244.72,173.08 L245.97,173.42 L247.22,173.79 L248.46,174.21 L249.71,174.67 L250.95,175.17 L252.20,175.72 L253.45,176.31 L254.69,176.94 L255.94,177.61 L257.18,178.32 L258.43,179.08 L259.68,179.87 L260.92,180.71 L262.17,181.58 L263.42,182.49 L264.66,183.44 L265.91,184.43 L267.15,185.45 L268.40,186.51 L269.65,187.61 L270.89,188.74 L272.14,189.91 L273.38,191.11 L274.63,192.35 L275.88,193.61 L277.12,194.91 L278.37,196.24 L279.62,197.60 L280.86,198.99 L282.11,200.41 L283.35,201.86 L284.60,203.33 L285.85,204.83 L287.09,206.35 L288.34,207.90 L289.58,209.47 L290.83,211.07 L292.08,212.68 L293.32,214.32 L294.57,215.97 L295.82,217.65 L297.06,219.34 L298.31,221.05 L299.55,222.78 L300.80,224.51 L302.05,226.27 L303.29,228.03 L304.54,229.81 L305.78,231.60 L307.03,233.40 L308.28,235.20 L309.52,237.02 L310.77,238.84 L312.02,240.66 L313.26,242.49 L314.51,244.33 L315.75,246.16 L317.00,248.00 L318.25,249.84 L319.49,251.67 L320.74,253.51 L321.98,255.34 L323.23,257.16 L324.48,258.98 L325.72,260.80 L326.97,262.60 L328.22,264.40 L329.46,266.19 L330.71,267.97 L331.95,269.73 L333.20,271.49 L334.45,273.22 L335.69,274.95 L336.94,276.66 L338.18,278.35 L339.43,280.03 L340.68,281.68 L341.92,283.32 L343.17,284.93 L344.42,286.53 L345.66,288.10 L346.91,289.65 L348.15,291.17 L349.40,292.67 L350.65,294.14 L351.89,295.59 L353.14,297.01 L354.38,298.40 L355.63,299.76 L356.88,301.09 L358.12,302.39 L359.37,303.65 L360.62,304.89 L361.86,306.09 L363.11,307.26 L364.35,308.39 L365.60,309.49 L366.85,310.55 L368.09,311.57 L369.34,312.56 L370.58,313.51 L371.83,314.42 L373.08,315.29 L374.32,316.13 L375.57,316.92 L376.82,317.68 L378.06,318.39 L379.31,319.06 L380.55,319.69 L381.80,320.28 L383.05,320.83 L384.29,321.33 L385.54,321.79 L386.78,322.21 L388.03,322.58 L389.28,322.92 L390.52,323.20 L391.77,323.45 L393.02,323.65 L394.26,323.80 L395.51,323.91 L396.75,323.98 L398.00,324.00" fill="none" stroke="#2563eb" stroke-width="2.4" stroke-linecap="round" stroke-linejoin="round" opacity="0.45"/>
<path d="M212.60,179.69 L212.78,179.58 L212.96,179.46 L213.14,179.35 L213.32,179.23 L213.50,179.12 L213.68,179.01 L213.86,178.90 L214.04,178.79 L214.22,178.68 L214.40,178.57 L214.58,178.46 L214.76,178.36 L214.94,178.25 L215.12,178.15 L215.30,178.04 L215.48,177.94 L215.66,177.84 L215.84,177.73 L216.02,177.63 L216.20,177.53 L216.38,177.44 L216.56,177.34 L216.74,177.24 L216.92,177.14 L217.10,177.05 L217.28,176.95 L217.46,176.86 L217.64,176.77 L217.82,176.67 L218.00,176.58 L218.18,176.49 L218.36,176.40 L218.54,176.32 L218.72,176.23 L218.90,176.14 L219.08,176.05 L219.26,175.97 L219.44,175.89 L219.62,175.80 L219.80,175.72 L219.98,175.64 L220.16,175.56 L220.34,175.48 L220.52,175.40 L220.70,175.32 L220.88,175.24 L221.06,175.17 L221.24,175.09 L221.42,175.02 L221.60,174.94 L221.78,174.87 L221.96,174.80 L222.14,174.73 L222.32,174.66 L222.50,174.59 L222.68,174.52 L222.86,174.45 L223.04,174.39 L223.22,174.32 L223.40,174.26 L223.58,174.19 L223.76,174.13 L223.94,174.07 L224.12,174.01 L224.30,173.95 L224.48,173.89 L224.66,173.83 L224.84,173.77 L225.02,173.72 L225.20,173.66 L225.38,173.61 L225.56,173.55 L225.74,173.50 L225.92,173.45 L226.10,173.40 L226.28,173.35 L226.46,173.30 L226.64,173.25 L226.82,173.20 L227.00,173.15 L227.18,173.11 L227.36,173.06 L227.54,173.02 L227.72,172.98 L227.90,172.94 L228.08,172.89 L228.26,172.85 L228.44,172.82 L228.62,172.78 L228.80,172.74 L228.98,172.70 L229.16,172.67 L229.34,172.63 L229.52,172.60 L229.70,172.57 L229.88,172.53 L230.06,172.50 L230.24,172.47 L230.42,172.44 L230.60,172.42 L230.78,172.39 L230.96,172.36 L231.14,172.34 L231.32,172.31 L231.50,172.29 L231.68,172.27 L231.86,172.24 L232.04,172.22 L232.22,172.20 L232.40,172.19 L232.58,172.17 L232.76,172.15 L232.94,172.13 L233.12,172.12 L233.30,172.10 L233.48,172.09 L233.66,172.08 L233.84,172.07 L234.02,172.06 L234.20,172.05 L234.38,172.04 L234.56,172.03 L234.74,172.02 L234.92,172.02 L235.10,172.01 L235.28,172.01 L235.46,172.00 L235.64,172.00 L235.82,172.00 L236.00,172.00 L236.18,172.00 L236.36,172.00 L236.54,172.00 L236.72,172.01 L236.90,172.01 L237.08,172.02 L237.26,172.02 L237.44,172.03 L237.62,172.04 L237.80,172.05 L237.98,172.06 L238.16,172.07 L238.34,172.08 L238.52,172.09 L238.70,172.10 L238.88,172.12 L239.06,172.13 L239.24,172.15 L239.42,172.17 L239.60,172.19 L239.78,172.20 L239.96,172.22 L240.14,172.24 L240.32,172.27 L240.50,172.29 L240.68,172.31 L240.86,172.34 L241.04,172.36 L241.22,172.39 L241.40,172.42 L241.58,172.44 L241.76,172.47 L241.94,172.50 L242.12,172.53 L242.30,172.57 L242.48,172.60 L242.66,172.63 L242.84,172.67 L243.02,172.70 L243.20,172.74 L243.38,172.78 L243.56,172.82 L243.74,172.85 L243.92,172.89 L244.10,172.94 L244.28,172.98 L244.46,173.02 L244.64,173.06 L244.82,173.11 L245.00,173.15 L245.18,173.20 L245.36,173.25 L245.54,173.30 L245.72,173.35 L245.90,173.40 L246.08,173.45 L246.26,173.50 L246.44,173.55 L246.62,173.61 L246.80,173.66 L246.98,173.72 L247.16,173.77 L247.34,173.83 L247.52,173.89 L247.70,173.95 L247.88,174.01 L248.06,174.07 L248.24,174.13 L248.42,174.19 L248.60,174.26 L248.78,174.32 L248.96,174.39 L249.14,174.45 L249.32,174.52 L249.50,174.59 L249.68,174.66 L249.86,174.73 L250.04,174.80 L250.22,174.87 L250.40,174.94 L250.58,175.02 L250.76,175.09 L250.94,175.17 L251.12,175.24 L251.30,175.32 L251.48,175.40 L251.66,175.48 L251.84,175.56 L252.02,175.64 L252.20,175.72 L252.38,175.80 L252.56,175.89 L252.74,175.97 L252.92,176.05 L253.10,176.14 L253.28,176.23 L253.46,176.32 L253.64,176.40 L253.82,176.49 L254.00,176.58 L254.18,176.67 L254.36,176.77 L254.54,176.86 L254.72,176.95 L254.90,177.05 L255.08,177.14 L255.26,177.24 L255.44,177.34 L255.62,177.44 L255.80,177.53 L255.98,177.63 L256.16,177.73 L256.34,177.84 L256.52,177.94 L256.70,178.04 L256.88,178.15 L257.06,178.25 L257.24,178.36 L257.42,178.46 L257.60,178.57 L257.78,178.68 L257.96,178.79 L258.14,178.90 L258.32,179.01 L258.50,179.12 L258.68,179.23 L258.86,179.35 L259.04,179.46 L259.22,179.58 L259.40,179.69" fill="none" stroke="#2563eb" stroke-width="4.2" stroke-linecap="round" stroke-linejoin="round"/>
<line x1="60" y1="172" x2="69" y2="172" stroke="#dc2626" stroke-width="2" stroke-linecap="butt"/>
<line x1="60" y1="179.6916524812633" x2="69" y2="179.6916524812633" stroke="#dc2626" stroke-width="2" stroke-linecap="butt"/>
<line x1="64.5" y1="172" x2="64.5" y2="179.6916524812633" stroke="#dc2626" stroke-width="2" stroke-linecap="butt"/>
<line x1="212.6" y1="172" x2="64.5" y2="172" stroke="#dc2626" stroke-width="1.1" stroke-linecap="butt" stroke-dasharray="3 3" opacity="0.7"/>
<line x1="212.6" y1="179.6916524812633" x2="64.5" y2="179.6916524812633" stroke="#dc2626" stroke-width="1.1" stroke-linecap="butt" stroke-dasharray="3 3" opacity="0.7"/>
<text x="62" y="165.84582624063165" font-size="12.5" fill="#dc2626" text-anchor="start" font-weight="700">ΔI ≈ 0</text>
<circle cx="236.0" cy="172" r="5" fill="#ffffff" stroke="#7c3aed" stroke-width="2.6"/>
<text x="248.0" y="160" font-size="11.5" fill="#7c3aed" text-anchor="start" font-weight="600">동작점 φ₀ = 0°</text>
<text x="230.0" y="382" font-size="12.5" fill="#dc2626" text-anchor="middle" font-weight="700">출력이 거의 안 변한다 → 신호를 놓친다</text>
<rect x="440" y="60" width="380" height="336" rx="12" fill="#fcfdfe" stroke="#e2e8f0" stroke-width="1.6"/>
<text x="630.0" y="86" font-size="13.5" fill="#ea580c" text-anchor="middle" font-weight="700">Q 채널:  Q = A sin φ</text>
<line x1="468" y1="248" x2="804" y2="248" stroke="#94a3b8" stroke-width="1.6" stroke-linecap="butt" marker-end="url(#ar-axis)"/>
<line x1="474.0" y1="245" x2="474.0" y2="251" stroke="#94a3b8" stroke-width="1.4" stroke-linecap="butt"/>
<line x1="555.0" y1="245" x2="555.0" y2="251" stroke="#94a3b8" stroke-width="1.4" stroke-linecap="butt"/>
<line x1="636.0" y1="245" x2="636.0" y2="251" stroke="#94a3b8" stroke-width="1.4" stroke-linecap="butt"/>
<line x1="717.0" y1="245" x2="717.0" y2="251" stroke="#94a3b8" stroke-width="1.4" stroke-linecap="butt"/>
<line x1="798.0" y1="245" x2="798.0" y2="251" stroke="#94a3b8" stroke-width="1.4" stroke-linecap="butt"/>
<text x="802" y="266" font-size="11.5" fill="#64748b" text-anchor="end">위상 φ</text>
<rect x="612.6" y="160" width="46.799999999999955" height="176" rx="6" fill="#f1f5f9" stroke="#cbd5e1" stroke-width="1.2" stroke-dasharray="4 4"/>
<line x1="612.6" y1="340" x2="659.4" y2="340" stroke="#64748b" stroke-width="1.6" stroke-linecap="butt" marker-end="url(#ar-slate)" marker-start="url(#ar-slate)"/>
<text x="636.0" y="358" font-size="11.5" fill="#64748b" text-anchor="middle">미세한 위상 변화 Δφ (호흡·진동 등)</text>
<path d="M474.00,248.00 L475.25,249.84 L476.49,251.67 L477.74,253.51 L478.98,255.34 L480.23,257.16 L481.48,258.98 L482.72,260.80 L483.97,262.60 L485.22,264.40 L486.46,266.19 L487.71,267.97 L488.95,269.73 L490.20,271.49 L491.45,273.22 L492.69,274.95 L493.94,276.66 L495.18,278.35 L496.43,280.03 L497.68,281.68 L498.92,283.32 L500.17,284.93 L501.42,286.53 L502.66,288.10 L503.91,289.65 L505.15,291.17 L506.40,292.67 L507.65,294.14 L508.89,295.59 L510.14,297.01 L511.38,298.40 L512.63,299.76 L513.88,301.09 L515.12,302.39 L516.37,303.65 L517.62,304.89 L518.86,306.09 L520.11,307.26 L521.35,308.39 L522.60,309.49 L523.85,310.55 L525.09,311.57 L526.34,312.56 L527.58,313.51 L528.83,314.42 L530.08,315.29 L531.32,316.13 L532.57,316.92 L533.82,317.68 L535.06,318.39 L536.31,319.06 L537.55,319.69 L538.80,320.28 L540.05,320.83 L541.29,321.33 L542.54,321.79 L543.78,322.21 L545.03,322.58 L546.28,322.92 L547.52,323.20 L548.77,323.45 L550.02,323.65 L551.26,323.80 L552.51,323.91 L553.75,323.98 L555.00,324.00 L556.25,323.98 L557.49,323.91 L558.74,323.80 L559.98,323.65 L561.23,323.45 L562.48,323.20 L563.72,322.92 L564.97,322.58 L566.22,322.21 L567.46,321.79 L568.71,321.33 L569.95,320.83 L571.20,320.28 L572.45,319.69 L573.69,319.06 L574.94,318.39 L576.18,317.68 L577.43,316.92 L578.68,316.13 L579.92,315.29 L581.17,314.42 L582.42,313.51 L583.66,312.56 L584.91,311.57 L586.15,310.55 L587.40,309.49 L588.65,308.39 L589.89,307.26 L591.14,306.09 L592.38,304.89 L593.63,303.65 L594.88,302.39 L596.12,301.09 L597.37,299.76 L598.62,298.40 L599.86,297.01 L601.11,295.59 L602.35,294.14 L603.60,292.67 L604.85,291.17 L606.09,289.65 L607.34,288.10 L608.58,286.53 L609.83,284.93 L611.08,283.32 L612.32,281.68 L613.57,280.03 L614.82,278.35 L616.06,276.66 L617.31,274.95 L618.55,273.22 L619.80,271.49 L621.05,269.73 L622.29,267.97 L623.54,266.19 L624.78,264.40 L626.03,262.60 L627.28,260.80 L628.52,258.98 L629.77,257.16 L631.02,255.34 L632.26,253.51 L633.51,251.67 L634.75,249.84 L636.00,248.00 L637.25,246.16 L638.49,244.33 L639.74,242.49 L640.98,240.66 L642.23,238.84 L643.48,237.02 L644.72,235.20 L645.97,233.40 L647.22,231.60 L648.46,229.81 L649.71,228.03 L650.95,226.27 L652.20,224.51 L653.45,222.78 L654.69,221.05 L655.94,219.34 L657.18,217.65 L658.43,215.97 L659.68,214.32 L660.92,212.68 L662.17,211.07 L663.42,209.47 L664.66,207.90 L665.91,206.35 L667.15,204.83 L668.40,203.33 L669.65,201.86 L670.89,200.41 L672.14,198.99 L673.38,197.60 L674.63,196.24 L675.88,194.91 L677.12,193.61 L678.37,192.35 L679.62,191.11 L680.86,189.91 L682.11,188.74 L683.35,187.61 L684.60,186.51 L685.85,185.45 L687.09,184.43 L688.34,183.44 L689.58,182.49 L690.83,181.58 L692.08,180.71 L693.32,179.87 L694.57,179.08 L695.82,178.32 L697.06,177.61 L698.31,176.94 L699.55,176.31 L700.80,175.72 L702.05,175.17 L703.29,174.67 L704.54,174.21 L705.78,173.79 L707.03,173.42 L708.28,173.08 L709.52,172.80 L710.77,172.55 L712.02,172.35 L713.26,172.20 L714.51,172.09 L715.75,172.02 L717.00,172.00 L718.25,172.02 L719.49,172.09 L720.74,172.20 L721.98,172.35 L723.23,172.55 L724.48,172.80 L725.72,173.08 L726.97,173.42 L728.22,173.79 L729.46,174.21 L730.71,174.67 L731.95,175.17 L733.20,175.72 L734.45,176.31 L735.69,176.94 L736.94,177.61 L738.18,178.32 L739.43,179.08 L740.68,179.87 L741.92,180.71 L743.17,181.58 L744.42,182.49 L745.66,183.44 L746.91,184.43 L748.15,185.45 L749.40,186.51 L750.65,187.61 L751.89,188.74 L753.14,189.91 L754.38,191.11 L755.63,192.35 L756.88,193.61 L758.12,194.91 L759.37,196.24 L760.62,197.60 L761.86,198.99 L763.11,200.41 L764.35,201.86 L765.60,203.33 L766.85,204.83 L768.09,206.35 L769.34,207.90 L770.58,209.47 L771.83,211.07 L773.08,212.68 L774.32,214.32 L775.57,215.97 L776.82,217.65 L778.06,219.34 L779.31,221.05 L780.55,222.78 L781.80,224.51 L783.05,226.27 L784.29,228.03 L785.54,229.81 L786.78,231.60 L788.03,233.40 L789.28,235.20 L790.52,237.02 L791.77,238.84 L793.02,240.66 L794.26,242.49 L795.51,244.33 L796.75,246.16 L798.00,248.00" fill="none" stroke="#ea580c" stroke-width="2.4" stroke-linecap="round" stroke-linejoin="round" opacity="0.45"/>
<path d="M612.60,281.32 L612.78,281.08 L612.96,280.84 L613.14,280.60 L613.32,280.36 L613.50,280.12 L613.68,279.88 L613.86,279.64 L614.04,279.40 L614.22,279.15 L614.40,278.91 L614.58,278.67 L614.76,278.43 L614.94,278.18 L615.12,277.94 L615.30,277.70 L615.48,277.45 L615.66,277.21 L615.84,276.96 L616.02,276.72 L616.20,276.47 L616.38,276.22 L616.56,275.98 L616.74,275.73 L616.92,275.48 L617.10,275.24 L617.28,274.99 L617.46,274.74 L617.64,274.49 L617.82,274.24 L618.00,273.99 L618.18,273.74 L618.36,273.49 L618.54,273.24 L618.72,272.99 L618.90,272.74 L619.08,272.49 L619.26,272.24 L619.44,271.99 L619.62,271.74 L619.80,271.49 L619.98,271.23 L620.16,270.98 L620.34,270.73 L620.52,270.47 L620.70,270.22 L620.88,269.97 L621.06,269.71 L621.24,269.46 L621.42,269.20 L621.60,268.95 L621.78,268.69 L621.96,268.44 L622.14,268.18 L622.32,267.93 L622.50,267.67 L622.68,267.41 L622.86,267.16 L623.04,266.90 L623.22,266.64 L623.40,266.39 L623.58,266.13 L623.76,265.87 L623.94,265.61 L624.12,265.35 L624.30,265.10 L624.48,264.84 L624.66,264.58 L624.84,264.32 L625.02,264.06 L625.20,263.80 L625.38,263.54 L625.56,263.28 L625.74,263.02 L625.92,262.76 L626.10,262.50 L626.28,262.24 L626.46,261.98 L626.64,261.72 L626.82,261.46 L627.00,261.20 L627.18,260.94 L627.36,260.67 L627.54,260.41 L627.72,260.15 L627.90,259.89 L628.08,259.63 L628.26,259.36 L628.44,259.10 L628.62,258.84 L628.80,258.58 L628.98,258.31 L629.16,258.05 L629.34,257.79 L629.52,257.53 L629.70,257.26 L629.88,257.00 L630.06,256.74 L630.24,256.47 L630.42,256.21 L630.60,255.94 L630.78,255.68 L630.96,255.42 L631.14,255.15 L631.32,254.89 L631.50,254.62 L631.68,254.36 L631.86,254.10 L632.04,253.83 L632.22,253.57 L632.40,253.30 L632.58,253.04 L632.76,252.77 L632.94,252.51 L633.12,252.24 L633.30,251.98 L633.48,251.71 L633.66,251.45 L633.84,251.18 L634.02,250.92 L634.20,250.65 L634.38,250.39 L634.56,250.12 L634.74,249.86 L634.92,249.59 L635.10,249.33 L635.28,249.06 L635.46,248.80 L635.64,248.53 L635.82,248.27 L636.00,248.00 L636.18,247.73 L636.36,247.47 L636.54,247.20 L636.72,246.94 L636.90,246.67 L637.08,246.41 L637.26,246.14 L637.44,245.88 L637.62,245.61 L637.80,245.35 L637.98,245.08 L638.16,244.82 L638.34,244.55 L638.52,244.29 L638.70,244.02 L638.88,243.76 L639.06,243.49 L639.24,243.23 L639.42,242.96 L639.60,242.70 L639.78,242.43 L639.96,242.17 L640.14,241.90 L640.32,241.64 L640.50,241.38 L640.68,241.11 L640.86,240.85 L641.04,240.58 L641.22,240.32 L641.40,240.06 L641.58,239.79 L641.76,239.53 L641.94,239.26 L642.12,239.00 L642.30,238.74 L642.48,238.47 L642.66,238.21 L642.84,237.95 L643.02,237.69 L643.20,237.42 L643.38,237.16 L643.56,236.90 L643.74,236.64 L643.92,236.37 L644.10,236.11 L644.28,235.85 L644.46,235.59 L644.64,235.33 L644.82,235.06 L645.00,234.80 L645.18,234.54 L645.36,234.28 L645.54,234.02 L645.72,233.76 L645.90,233.50 L646.08,233.24 L646.26,232.98 L646.44,232.72 L646.62,232.46 L646.80,232.20 L646.98,231.94 L647.16,231.68 L647.34,231.42 L647.52,231.16 L647.70,230.90 L647.88,230.65 L648.06,230.39 L648.24,230.13 L648.42,229.87 L648.60,229.61 L648.78,229.36 L648.96,229.10 L649.14,228.84 L649.32,228.59 L649.50,228.33 L649.68,228.07 L649.86,227.82 L650.04,227.56 L650.22,227.31 L650.40,227.05 L650.58,226.80 L650.76,226.54 L650.94,226.29 L651.12,226.03 L651.30,225.78 L651.48,225.53 L651.66,225.27 L651.84,225.02 L652.02,224.77 L652.20,224.51 L652.38,224.26 L652.56,224.01 L652.74,223.76 L652.92,223.51 L653.10,223.26 L653.28,223.01 L653.46,222.76 L653.64,222.51 L653.82,222.26 L654.00,222.01 L654.18,221.76 L654.36,221.51 L654.54,221.26 L654.72,221.01 L654.90,220.76 L655.08,220.52 L655.26,220.27 L655.44,220.02 L655.62,219.78 L655.80,219.53 L655.98,219.28 L656.16,219.04 L656.34,218.79 L656.52,218.55 L656.70,218.30 L656.88,218.06 L657.06,217.82 L657.24,217.57 L657.42,217.33 L657.60,217.09 L657.78,216.85 L657.96,216.60 L658.14,216.36 L658.32,216.12 L658.50,215.88 L658.68,215.64 L658.86,215.40 L659.04,215.16 L659.22,214.92 L659.40,214.68" fill="none" stroke="#ea580c" stroke-width="4.2" stroke-linecap="round" stroke-linejoin="round"/>
<line x1="460" y1="214.6837928440301" x2="469" y2="214.6837928440301" stroke="#16a34a" stroke-width="2" stroke-linecap="butt"/>
<line x1="460" y1="281.3162071559699" x2="469" y2="281.3162071559699" stroke="#16a34a" stroke-width="2" stroke-linecap="butt"/>
<line x1="464.5" y1="214.6837928440301" x2="464.5" y2="281.3162071559699" stroke="#16a34a" stroke-width="2" stroke-linecap="butt"/>
<line x1="612.6" y1="214.6837928440301" x2="464.5" y2="214.6837928440301" stroke="#16a34a" stroke-width="1.1" stroke-linecap="butt" stroke-dasharray="3 3" opacity="0.7"/>
<line x1="612.6" y1="281.3162071559699" x2="464.5" y2="281.3162071559699" stroke="#16a34a" stroke-width="1.1" stroke-linecap="butt" stroke-dasharray="3 3" opacity="0.7"/>
<text x="462" y="252.0" font-size="12.5" fill="#16a34a" text-anchor="start" font-weight="700">ΔQ 큼</text>
<circle cx="636.0" cy="248" r="5" fill="#ffffff" stroke="#7c3aed" stroke-width="2.6"/>
<text x="622.0" y="224" font-size="11.5" fill="#7c3aed" text-anchor="end" font-weight="600">동작점 φ₀ = 0°</text>
<text x="630.0" y="382" font-size="12.5" fill="#16a34a" text-anchor="middle" font-weight="700">같은 Δφ가 큰 출력 변화로 나타난다</text>
<text x="430.0" y="424" font-size="13" fill="#1e293b" text-anchor="middle" font-weight="600">감도가 죽는 위상은 두 채널이 서로 다르다 — 함께 쓰면 (φ = atan2(Q, I)) 어떤 위상에서도 미세 움직임을 놓치지 않는다.</text>
</svg>
