<svg xmlns="http://www.w3.org/2000/svg" viewBox="0 0 860 540" font-family="Segoe UI, Malgun Gothic, Apple SD Gothic Neo, sans-serif">
<defs>
<marker id="ar-slate" viewBox="0 0 10 10" refX="8.5" refY="5" markerWidth="6.5" markerHeight="6.5" orient="auto-start-reverse"><path d="M0,0 L10,5 L0,10 z" fill="#64748b"/></marker>
<marker id="ar-blue" viewBox="0 0 10 10" refX="8.5" refY="5" markerWidth="6.5" markerHeight="6.5" orient="auto-start-reverse"><path d="M0,0 L10,5 L0,10 z" fill="#2563eb"/></marker>
<marker id="ar-orange" viewBox="0 0 10 10" refX="8.5" refY="5" markerWidth="6.5" markerHeight="6.5" orient="auto-start-reverse"><path d="M0,0 L10,5 L0,10 z" fill="#ea580c"/></marker>
<marker id="ar-sky" viewBox="0 0 10 10" refX="8.5" refY="5" markerWidth="6.5" markerHeight="6.5" orient="auto-start-reverse"><path d="M0,0 L10,5 L0,10 z" fill="#0284c7"/></marker>
<marker id="ar-red" viewBox="0 0 10 10" refX="8.5" refY="5" markerWidth="6.5" markerHeight="6.5" orient="auto-start-reverse"><path d="M0,0 L10,5 L0,10 z" fill="#dc2626"/></marker>
<marker id="ar-green" viewBox="0 0 10 10" refX="8.5" refY="5" markerWidth="6.5" markerHeight="6.5" orient="auto-start-reverse"><path d="M0,0 L10,5 L0,10 z" fill="#16a34a"/></marker>
<marker id="ar-violet" viewBox="0 0 10 10" refX="8.5" refY="5" markerWidth="6.5" markerHeight="6.5" orient="auto-start-reverse"><path d="M0,0 L10,5 L0,10 z" fill="#7c3aed"/></marker>
<marker id="ar-axis" viewBox="0 0 10 10" refX="8.5" refY="5" markerWidth="6.5" markerHeight="6.5" orient="auto-start-reverse"><path d="M0,0 L10,5 L0,10 z" fill="#94a3b8"/></marker>
</defs>
<rect x="1" y="1" width="858" height="538" rx="14" fill="#ffffff" stroke="#e2e8f0" stroke-width="2"/>
<text x="430.0" y="34" font-size="17" fill="#1e293b" text-anchor="middle" font-weight="700">실전 예시 — FMCW 레이더에서 IQ 데이터가 정보가 되기까지</text>
<rect x="40" y="58" width="380" height="210" rx="12" fill="#fcfdfe" stroke="#e2e8f0" stroke-width="1.6"/>
<text x="230.0" y="82" font-size="13" fill="#1e293b" text-anchor="middle" font-weight="700">① chirp 송신 → 지연된 에코 수신</text>
<line x1="74" y1="234" x2="396" y2="234" stroke="#94a3b8" stroke-width="1.6" stroke-linecap="butt" marker-end="url(#ar-axis)"/>
<line x1="82" y1="240" x2="82" y2="96" stroke="#94a3b8" stroke-width="1.6" stroke-linecap="butt" marker-end="url(#ar-axis)"/>
<text x="394" y="250" font-size="11" fill="#64748b" text-anchor="end">시간</text>
<text x="74" y="92" font-size="11" fill="#64748b" text-anchor="start">주파수</text>
<line x1="90" y1="226" x2="220" y2="108" stroke="#0284c7" stroke-width="2.6" stroke-linecap="butt"/>
<line x1="220" y1="226" x2="350" y2="108" stroke="#0284c7" stroke-width="2.6" stroke-linecap="butt"/>
<line x1="220" y1="108" x2="220" y2="226" stroke="#0284c7" stroke-width="1.2" stroke-linecap="butt" stroke-dasharray="3 3"/>
<line x1="112" y1="226" x2="242" y2="108" stroke="#dc2626" stroke-width="2.4" stroke-linecap="butt" stroke-dasharray="6 4"/>
<line x1="242" y1="226" x2="350" y2="127.96923076923076" stroke="#dc2626" stroke-width="2.4" stroke-linecap="butt" stroke-dasharray="6 4"/>
<line x1="220" y1="102" x2="242" y2="102" stroke="#64748b" stroke-width="1.6" stroke-linecap="butt" marker-end="url(#ar-slate)" marker-start="url(#ar-slate)"/>
<text x="231.0" y="94" font-size="12" fill="#64748b" text-anchor="middle" font-weight="600">τ</text>
<line x1="176" y1="147.93846153846152" x2="176" y2="167.90769230769232" stroke="#7c3aed" stroke-width="2" stroke-linecap="butt" marker-end="url(#ar-violet)" marker-start="url(#ar-violet)"/>
<text x="185" y="162.4230769230769" font-size="13" fill="#7c3aed" text-anchor="start" font-weight="700">f<tspan font-size="0.72em" baseline-shift="-18%">b</tspan></text>
<line x1="248" y1="102" x2="276" y2="102" stroke="#0284c7" stroke-width="2.6" stroke-linecap="butt"/>
<text x="282" y="106" font-size="11" fill="#64748b" text-anchor="start">송신</text>
<line x1="322" y1="102" x2="350" y2="102" stroke="#dc2626" stroke-width="2.4" stroke-linecap="butt" stroke-dasharray="6 4"/>
<text x="356" y="106" font-size="11" fill="#64748b" text-anchor="start">수신</text>
<rect x="440" y="58" width="380" height="210" rx="12" fill="#fcfdfe" stroke="#e2e8f0" stroke-width="1.6"/>
<text x="630.0" y="82" font-size="13" fill="#1e293b" text-anchor="middle" font-weight="700">② 믹서 출력 — 저주파 비트 신호를 I/Q로 샘플링</text>
<line x1="470" y1="180" x2="800" y2="180" stroke="#94a3b8" stroke-width="1.4" stroke-linecap="butt" marker-end="url(#ar-axis)"/>
<path d="M476.00,134.00 L477.21,134.12 L478.42,134.48 L479.62,135.08 L480.83,135.92 L482.04,136.99 L483.25,138.28 L484.45,139.80 L485.66,141.52 L486.87,143.45 L488.08,145.57 L489.28,147.87 L490.49,150.34 L491.70,152.96 L492.91,155.73 L494.12,158.62 L495.32,161.63 L496.53,164.73 L497.74,167.92 L498.95,171.16 L500.15,174.46 L501.36,177.78 L502.57,181.11 L503.78,184.44 L504.98,187.74 L506.19,191.01 L507.40,194.21 L508.61,197.35 L509.82,200.39 L511.02,203.32 L512.23,206.13 L513.44,208.80 L514.65,211.33 L515.85,213.68 L517.06,215.87 L518.27,217.86 L519.48,219.65 L520.68,221.24 L521.89,222.60 L523.10,223.75 L524.31,224.66 L525.52,225.34 L526.72,225.79 L527.93,225.99 L529.14,225.95 L530.35,225.66 L531.55,225.14 L532.76,224.38 L533.97,223.39 L535.18,222.17 L536.38,220.73 L537.59,219.08 L538.80,217.21 L540.01,215.16 L541.22,212.92 L542.42,210.50 L543.63,207.93 L544.84,205.21 L546.05,202.36 L547.25,199.38 L548.46,196.31 L549.67,193.15 L550.88,189.93 L552.08,186.65 L553.29,183.33 L554.50,180.00 L555.71,176.67 L556.92,173.35 L558.12,170.07 L559.33,166.85 L560.54,163.69 L561.75,160.62 L562.95,157.64 L564.16,154.79 L565.37,152.07 L566.58,149.50 L567.78,147.08 L568.99,144.84 L570.20,142.79 L571.41,140.92 L572.62,139.27 L573.82,137.83 L575.03,136.61 L576.24,135.62 L577.45,134.86 L578.65,134.34 L579.86,134.05 L581.07,134.01 L582.28,134.21 L583.48,134.66 L584.69,135.34 L585.90,136.25 L587.11,137.40 L588.32,138.76 L589.52,140.35 L590.73,142.14 L591.94,144.13 L593.15,146.32 L594.35,148.67 L595.56,151.20 L596.77,153.87 L597.98,156.68 L599.18,159.61 L600.39,162.65 L601.60,165.79 L602.81,168.99 L604.02,172.26 L605.22,175.56 L606.43,178.89 L607.64,182.22 L608.85,185.54 L610.05,188.84 L611.26,192.08 L612.47,195.27 L613.68,198.37 L614.88,201.38 L616.09,204.27 L617.30,207.04 L618.51,209.66 L619.72,212.13 L620.92,214.43 L622.13,216.55 L623.34,218.48 L624.55,220.20 L625.75,221.72 L626.96,223.01 L628.17,224.08 L629.38,224.92 L630.58,225.52 L631.79,225.88 L633.00,226.00 L634.21,225.88 L635.42,225.52 L636.62,224.92 L637.83,224.08 L639.04,223.01 L640.25,221.72 L641.45,220.20 L642.66,218.48 L643.87,216.55 L645.08,214.43 L646.28,212.13 L647.49,209.66 L648.70,207.04 L649.91,204.27 L651.12,201.38 L652.32,198.37 L653.53,195.27 L654.74,192.08 L655.95,188.84 L657.15,185.54 L658.36,182.22 L659.57,178.89 L660.78,175.56 L661.98,172.26 L663.19,168.99 L664.40,165.79 L665.61,162.65 L666.82,159.61 L668.02,156.68 L669.23,153.87 L670.44,151.20 L671.65,148.67 L672.85,146.32 L674.06,144.13 L675.27,142.14 L676.48,140.35 L677.68,138.76 L678.89,137.40 L680.10,136.25 L681.31,135.34 L682.52,134.66 L683.72,134.21 L684.93,134.01 L686.14,134.05 L687.35,134.34 L688.55,134.86 L689.76,135.62 L690.97,136.61 L692.18,137.83 L693.38,139.27 L694.59,140.92 L695.80,142.79 L697.01,144.84 L698.22,147.08 L699.42,149.50 L700.63,152.07 L701.84,154.79 L703.05,157.64 L704.25,160.62 L705.46,163.69 L706.67,166.85 L707.88,170.07 L709.08,173.35 L710.29,176.67 L711.50,180.00 L712.71,183.33 L713.92,186.65 L715.12,189.93 L716.33,193.15 L717.54,196.31 L718.75,199.38 L719.95,202.36 L721.16,205.21 L722.37,207.93 L723.58,210.50 L724.78,212.92 L725.99,215.16 L727.20,217.21 L728.41,219.08 L729.62,220.73 L730.82,222.17 L732.03,223.39 L733.24,224.38 L734.45,225.14 L735.65,225.66 L736.86,225.95 L738.07,225.99 L739.28,225.79 L740.48,225.34 L741.69,224.66 L742.90,223.75 L744.11,222.60 L745.32,221.24 L746.52,219.65 L747.73,217.86 L748.94,215.87 L750.15,213.68 L751.35,211.33 L752.56,208.80 L753.77,206.13 L754.98,203.32 L756.18,200.39 L757.39,197.35 L758.60,194.21 L759.81,191.01 L761.02,187.74 L762.22,184.44 L763.43,181.11 L764.64,177.78 L765.85,174.46 L767.05,171.16 L768.26,167.92 L769.47,164.73 L770.68,161.63 L771.88,158.62 L773.09,155.73 L774.30,152.96 L775.51,150.34 L776.72,147.87 L777.92,145.57 L779.13,143.45 L780.34,141.52 L781.55,139.80 L782.75,138.28 L783.96,136.99 L785.17,135.92 L786.38,135.08 L787.58,134.48 L788.79,134.12 L790.00,134.00" fill="none" stroke="#2563eb" stroke-width="2.4" stroke-linecap="round" stroke-linejoin="round"/>
<path d="M476.00,180.00 L477.21,176.67 L478.42,173.35 L479.62,170.07 L480.83,166.85 L482.04,163.69 L483.25,160.62 L484.45,157.64 L485.66,154.79 L486.87,152.07 L488.08,149.50 L489.28,147.08 L490.49,144.84 L491.70,142.79 L492.91,140.92 L494.12,139.27 L495.32,137.83 L496.53,136.61 L497.74,135.62 L498.95,134.86 L500.15,134.34 L501.36,134.05 L502.57,134.01 L503.78,134.21 L504.98,134.66 L506.19,135.34 L507.40,136.25 L508.61,137.40 L509.82,138.76 L511.02,140.35 L512.23,142.14 L513.44,144.13 L514.65,146.32 L515.85,148.67 L517.06,151.20 L518.27,153.87 L519.48,156.68 L520.68,159.61 L521.89,162.65 L523.10,165.79 L524.31,168.99 L525.52,172.26 L526.72,175.56 L527.93,178.89 L529.14,182.22 L530.35,185.54 L531.55,188.84 L532.76,192.08 L533.97,195.27 L535.18,198.37 L536.38,201.38 L537.59,204.27 L538.80,207.04 L540.01,209.66 L541.22,212.13 L542.42,214.43 L543.63,216.55 L544.84,218.48 L546.05,220.20 L547.25,221.72 L548.46,223.01 L549.67,224.08 L550.88,224.92 L552.08,225.52 L553.29,225.88 L554.50,226.00 L555.71,225.88 L556.92,225.52 L558.12,224.92 L559.33,224.08 L560.54,223.01 L561.75,221.72 L562.95,220.20 L564.16,218.48 L565.37,216.55 L566.58,214.43 L567.78,212.13 L568.99,209.66 L570.20,207.04 L571.41,204.27 L572.62,201.38 L573.82,198.37 L575.03,195.27 L576.24,192.08 L577.45,188.84 L578.65,185.54 L579.86,182.22 L581.07,178.89 L582.28,175.56 L583.48,172.26 L584.69,168.99 L585.90,165.79 L587.11,162.65 L588.32,159.61 L589.52,156.68 L590.73,153.87 L591.94,151.20 L593.15,148.67 L594.35,146.32 L595.56,144.13 L596.77,142.14 L597.98,140.35 L599.18,138.76 L600.39,137.40 L601.60,136.25 L602.81,135.34 L604.02,134.66 L605.22,134.21 L606.43,134.01 L607.64,134.05 L608.85,134.34 L610.05,134.86 L611.26,135.62 L612.47,136.61 L613.68,137.83 L614.88,139.27 L616.09,140.92 L617.30,142.79 L618.51,144.84 L619.72,147.08 L620.92,149.50 L622.13,152.07 L623.34,154.79 L624.55,157.64 L625.75,160.62 L626.96,163.69 L628.17,166.85 L629.38,170.07 L630.58,173.35 L631.79,176.67 L633.00,180.00 L634.21,183.33 L635.42,186.65 L636.62,189.93 L637.83,193.15 L639.04,196.31 L640.25,199.38 L641.45,202.36 L642.66,205.21 L643.87,207.93 L645.08,210.50 L646.28,212.92 L647.49,215.16 L648.70,217.21 L649.91,219.08 L651.12,220.73 L652.32,222.17 L653.53,223.39 L654.74,224.38 L655.95,225.14 L657.15,225.66 L658.36,225.95 L659.57,225.99 L660.78,225.79 L661.98,225.34 L663.19,224.66 L664.40,223.75 L665.61,222.60 L666.82,221.24 L668.02,219.65 L669.23,217.86 L670.44,215.87 L671.65,213.68 L672.85,211.33 L674.06,208.80 L675.27,206.13 L676.48,203.32 L677.68,200.39 L678.89,197.35 L680.10,194.21 L681.31,191.01 L682.52,187.74 L683.72,184.44 L684.93,181.11 L686.14,177.78 L687.35,174.46 L688.55,171.16 L689.76,167.92 L690.97,164.73 L692.18,161.63 L693.38,158.62 L694.59,155.73 L695.80,152.96 L697.01,150.34 L698.22,147.87 L699.42,145.57 L700.63,143.45 L701.84,141.52 L703.05,139.80 L704.25,138.28 L705.46,136.99 L706.67,135.92 L707.88,135.08 L709.08,134.48 L710.29,134.12 L711.50,134.00 L712.71,134.12 L713.92,134.48 L715.12,135.08 L716.33,135.92 L717.54,136.99 L718.75,138.28 L719.95,139.80 L721.16,141.52 L722.37,143.45 L723.58,145.57 L724.78,147.87 L725.99,150.34 L727.20,152.96 L728.41,155.73 L729.62,158.62 L730.82,161.63 L732.03,164.73 L733.24,167.92 L734.45,171.16 L735.65,174.46 L736.86,177.78 L738.07,181.11 L739.28,184.44 L740.48,187.74 L741.69,191.01 L742.90,194.21 L744.11,197.35 L745.32,200.39 L746.52,203.32 L747.73,206.13 L748.94,208.80 L750.15,211.33 L751.35,213.68 L752.56,215.87 L753.77,217.86 L754.98,219.65 L756.18,221.24 L757.39,222.60 L758.60,223.75 L759.81,224.66 L761.02,225.34 L762.22,225.79 L763.43,225.99 L764.64,225.95 L765.85,225.66 L767.05,225.14 L768.26,224.38 L769.47,223.39 L770.68,222.17 L771.88,220.73 L773.09,219.08 L774.30,217.21 L775.51,215.16 L776.72,212.92 L777.92,210.50 L779.13,207.93 L780.34,205.21 L781.55,202.36 L782.75,199.38 L783.96,196.31 L785.17,193.15 L786.38,189.93 L787.58,186.65 L788.79,183.33 L790.00,180.00" fill="none" stroke="#ea580c" stroke-width="2.4" stroke-linecap="round" stroke-linejoin="round" opacity="0.85"/>
<circle cx="476.0" cy="134.0" r="3.4" fill="#ffffff" stroke="#2563eb" stroke-width="2"/>
<circle cx="502.1666666666667" cy="180.0" r="3.4" fill="#ffffff" stroke="#2563eb" stroke-width="2"/>
<circle cx="528.3333333333334" cy="226.0" r="3.4" fill="#ffffff" stroke="#2563eb" stroke-width="2"/>
<circle cx="554.5" cy="180.0" r="3.4" fill="#ffffff" stroke="#2563eb" stroke-width="2"/>
<circle cx="580.6666666666666" cy="134.0" r="3.4" fill="#ffffff" stroke="#2563eb" stroke-width="2"/>
<circle cx="606.8333333333334" cy="179.99999999999997" r="3.4" fill="#ffffff" stroke="#2563eb" stroke-width="2"/>
<circle cx="633.0" cy="226.0" r="3.4" fill="#ffffff" stroke="#2563eb" stroke-width="2"/>
<circle cx="659.1666666666667" cy="180.00000000000003" r="3.4" fill="#ffffff" stroke="#2563eb" stroke-width="2"/>
<circle cx="685.3333333333333" cy="134.0" r="3.4" fill="#ffffff" stroke="#2563eb" stroke-width="2"/>
<circle cx="711.5" cy="179.99999999999997" r="3.4" fill="#ffffff" stroke="#2563eb" stroke-width="2"/>
<circle cx="737.6666666666667" cy="226.0" r="3.4" fill="#ffffff" stroke="#2563eb" stroke-width="2"/>
<circle cx="763.8333333333333" cy="180.00000000000003" r="3.4" fill="#ffffff" stroke="#2563eb" stroke-width="2"/>
<circle cx="790.0" cy="134.0" r="3.4" fill="#ffffff" stroke="#2563eb" stroke-width="2"/>
<text x="630.0" y="252" font-size="12" fill="#1e293b" text-anchor="middle" font-weight="600">chirp 하나당 N개의 복소 샘플  x[n] = I[n] + jQ[n]</text>
<line x1="690" y1="102" x2="714" y2="102" stroke="#2563eb" stroke-width="2.6" stroke-linecap="butt"/>
<text x="720" y="106" font-size="11.5" fill="#2563eb" text-anchor="start" font-weight="700">I</text>
<line x1="740" y1="102" x2="764" y2="102" stroke="#ea580c" stroke-width="2.6" stroke-linecap="butt"/>
<text x="770" y="106" font-size="11.5" fill="#ea580c" text-anchor="start" font-weight="700">Q</text>
<line x1="430.0" y1="276" x2="430.0" y2="306" stroke="#64748b" stroke-width="2.2" stroke-linecap="butt" marker-end="url(#ar-slate)"/>
<text x="442.0" y="296" font-size="11.5" fill="#64748b" text-anchor="start">N 샘플 × M chirp 저장 (레이더 데이터 큐브)</text>
<rect x="40" y="312" width="170" height="168" rx="12" fill="#ffffff" stroke="#94a3b8" stroke-width="1.7"/>
<text x="125.0" y="336" font-size="12.5" fill="#1e293b" text-anchor="middle" font-weight="700">③ Range FFT</text>
<line x1="62" y1="420" x2="188" y2="420" stroke="#94a3b8" stroke-width="1.5" stroke-linecap="butt" marker-end="url(#ar-axis)"/>
<path d="M113.00,420.00 L113.50,420.00 L114.00,420.00 L114.50,420.00 L115.00,420.00 L115.50,420.00 L116.00,420.00 L116.50,420.00 L117.00,420.00 L117.50,420.00 L118.00,420.00 L118.50,420.00 L119.00,420.00 L119.50,420.00 L120.00,420.00 L120.50,420.00 L121.00,420.00 L121.50,420.00 L122.00,420.00 L122.50,420.00 L123.00,420.00 L123.50,419.99 L124.00,419.99 L124.50,419.98 L125.00,419.97 L125.50,419.96 L126.00,419.94 L126.50,419.91 L127.00,419.87 L127.50,419.81 L128.00,419.73 L128.50,419.61 L129.00,419.46 L129.50,419.25 L130.00,418.97 L130.50,418.61 L131.00,418.15 L131.50,417.55 L132.00,416.81 L132.50,415.88 L133.00,414.75 L133.50,413.39 L134.00,411.77 L134.50,409.87 L135.00,407.69 L135.50,405.21 L136.00,402.44 L136.50,399.40 L137.00,396.11 L137.50,392.63 L138.00,389.01 L138.50,385.32 L139.00,381.65 L139.50,378.09 L140.00,374.74 L140.50,371.70 L141.00,369.06 L141.50,366.90 L142.00,365.31 L142.50,364.33 L143.00,364.00 L143.50,364.33 L144.00,365.31 L144.50,366.90 L145.00,369.06 L145.50,371.70 L146.00,374.74 L146.50,378.09 L147.00,381.65 L147.50,385.32 L148.00,389.01 L148.50,392.63 L149.00,396.11 L149.50,399.40 L150.00,402.44 L150.50,405.21 L151.00,407.69 L151.50,409.87 L152.00,411.77 L152.50,413.39 L153.00,414.75 L153.50,415.88 L154.00,416.81 L154.50,417.55 L155.00,418.15 L155.50,418.61 L156.00,418.97 L156.50,419.25 L157.00,419.46 L157.50,419.61 L158.00,419.73 L158.50,419.81 L159.00,419.87 L159.50,419.91 L160.00,419.94 L160.50,419.96 L161.00,419.97 L161.50,419.98 L162.00,419.99 L162.50,419.99 L163.00,420.00 L163.50,420.00 L164.00,420.00 L164.50,420.00 L165.00,420.00 L165.50,420.00 L166.00,420.00 L166.50,420.00 L167.00,420.00 L167.50,420.00 L168.00,420.00 L168.50,420.00 L169.00,420.00 L169.50,420.00 L170.00,420.00 L170.50,420.00 L171.00,420.00 L171.50,420.00 L172.00,420.00 L172.50,420.00 L173.00,420.00" fill="none" stroke="#7c3aed" stroke-width="2.4" stroke-linecap="round" stroke-linejoin="round"/>
<text x="125.0" y="438" font-size="10.5" fill="#64748b" text-anchor="middle">거리 스펙트럼</text>
<line x1="212" y1="396.0" x2="248" y2="396.0" stroke="#64748b" stroke-width="2.2" stroke-linecap="butt" marker-end="url(#ar-slate)"/>
<rect x="250" y="312" width="170" height="168" rx="12" fill="#ffffff" stroke="#94a3b8" stroke-width="1.7"/>
<text x="335.0" y="336" font-size="12.5" fill="#1e293b" text-anchor="middle" font-weight="700">④ Doppler FFT</text>
<line x1="272" y1="420" x2="398" y2="420" stroke="#94a3b8" stroke-width="1.5" stroke-linecap="butt" marker-end="url(#ar-axis)"/>
<line x1="335.0" y1="423" x2="335.0" y2="358" stroke="#e2e8f0" stroke-width="1.3" stroke-linecap="butt" stroke-dasharray="3 3"/>
<path d="M341.00,420.00 L341.47,420.00 L341.93,420.00 L342.40,420.00 L342.87,420.00 L343.33,420.00 L343.80,420.00 L344.27,420.00 L344.73,420.00 L345.20,420.00 L345.67,420.00 L346.13,420.00 L346.60,420.00 L347.07,420.00 L347.53,420.00 L348.00,420.00 L348.47,420.00 L348.93,420.00 L349.40,419.99 L349.87,419.99 L350.33,419.99 L350.80,419.98 L351.27,419.97 L351.73,419.95 L352.20,419.93 L352.67,419.90 L353.13,419.86 L353.60,419.80 L354.07,419.71 L354.53,419.60 L355.00,419.46 L355.47,419.27 L355.93,419.02 L356.40,418.69 L356.87,418.28 L357.33,417.77 L357.80,417.12 L358.27,416.34 L358.73,415.38 L359.20,414.23 L359.67,412.88 L360.13,411.29 L360.60,409.46 L361.07,407.37 L361.53,405.03 L362.00,402.44 L362.47,399.61 L362.93,396.56 L363.40,393.34 L363.87,389.99 L364.33,386.56 L364.80,383.11 L365.27,379.74 L365.73,376.50 L366.20,373.48 L366.67,370.77 L367.13,368.43 L367.60,366.54 L368.07,365.14 L368.53,364.29 L369.00,364.00 L369.47,364.29 L369.93,365.14 L370.40,366.54 L370.87,368.43 L371.33,370.77 L371.80,373.48 L372.27,376.50 L372.73,379.74 L373.20,383.11 L373.67,386.56 L374.13,389.99 L374.60,393.34 L375.07,396.56 L375.53,399.61 L376.00,402.44 L376.47,405.03 L376.93,407.37 L377.40,409.46 L377.87,411.29 L378.33,412.88 L378.80,414.23 L379.27,415.38 L379.73,416.34 L380.20,417.12 L380.67,417.77 L381.13,418.28 L381.60,418.69 L382.07,419.02 L382.53,419.27 L383.00,419.46 L383.47,419.60 L383.93,419.71 L384.40,419.80 L384.87,419.86 L385.33,419.90 L385.80,419.93 L386.27,419.95 L386.73,419.97 L387.20,419.98 L387.67,419.99 L388.13,419.99 L388.60,419.99 L389.07,420.00 L389.53,420.00 L390.00,420.00 L390.47,420.00 L390.93,420.00 L391.40,420.00 L391.87,420.00 L392.33,420.00 L392.80,420.00 L393.27,420.00 L393.73,420.00 L394.20,420.00 L394.67,420.00 L395.13,420.00 L395.60,420.00 L396.07,420.00 L396.53,420.00 L397.00,420.00" fill="none" stroke="#16a34a" stroke-width="2.4" stroke-linecap="round" stroke-linejoin="round"/>
<text x="335.0" y="438" font-size="10" fill="#64748b" text-anchor="middle">0</text>
<text x="335.0" y="452" font-size="10.5" fill="#64748b" text-anchor="middle">± 부호 = 접근/이탈</text>
<line x1="422" y1="396.0" x2="458" y2="396.0" stroke="#64748b" stroke-width="2.2" stroke-linecap="butt" marker-end="url(#ar-slate)"/>
<rect x="460" y="312" width="170" height="168" rx="12" fill="#ffffff" stroke="#94a3b8" stroke-width="1.7"/>
<text x="545.0" y="336" font-size="12.5" fill="#1e293b" text-anchor="middle" font-weight="700">⑤ Range–Doppler 맵</text>
<rect x="490" y="356" width="15.5" height="15.5" rx="2.5" fill="#e2e8f0" stroke="none" stroke-width="0"/>
<rect x="508" y="356" width="15.5" height="15.5" rx="2.5" fill="#e2e8f0" stroke="none" stroke-width="0"/>
<rect x="526" y="356" width="15.5" height="15.5" rx="2.5" fill="#e2e8f0" stroke="none" stroke-width="0"/>
<rect x="544" y="356" width="15.5" height="15.5" rx="2.5" fill="#e2e8f0" stroke="none" stroke-width="0"/>
<rect x="562" y="356" width="15.5" height="15.5" rx="2.5" fill="#fca5a5" stroke="none" stroke-width="0"/>
<rect x="580" y="356" width="15.5" height="15.5" rx="2.5" fill="#e2e8f0" stroke="none" stroke-width="0"/>
<rect x="490" y="374" width="15.5" height="15.5" rx="2.5" fill="#e2e8f0" stroke="none" stroke-width="0"/>
<rect x="508" y="374" width="15.5" height="15.5" rx="2.5" fill="#e2e8f0" stroke="none" stroke-width="0"/>
<rect x="526" y="374" width="15.5" height="15.5" rx="2.5" fill="#e2e8f0" stroke="none" stroke-width="0"/>
<rect x="544" y="374" width="15.5" height="15.5" rx="2.5" fill="#fca5a5" stroke="none" stroke-width="0"/>
<rect x="562" y="374" width="15.5" height="15.5" rx="2.5" fill="#dc2626" stroke="none" stroke-width="0"/>
<rect x="580" y="374" width="15.5" height="15.5" rx="2.5" fill="#fca5a5" stroke="none" stroke-width="0"/>
<rect x="490" y="392" width="15.5" height="15.5" rx="2.5" fill="#e2e8f0" stroke="none" stroke-width="0"/>
<rect x="508" y="392" width="15.5" height="15.5" rx="2.5" fill="#e2e8f0" stroke="none" stroke-width="0"/>
<rect x="526" y="392" width="15.5" height="15.5" rx="2.5" fill="#e2e8f0" stroke="none" stroke-width="0"/>
<rect x="544" y="392" width="15.5" height="15.5" rx="2.5" fill="#e2e8f0" stroke="none" stroke-width="0"/>
<rect x="562" y="392" width="15.5" height="15.5" rx="2.5" fill="#fca5a5" stroke="none" stroke-width="0"/>
<rect x="580" y="392" width="15.5" height="15.5" rx="2.5" fill="#e2e8f0" stroke="none" stroke-width="0"/>
<rect x="490" y="410" width="15.5" height="15.5" rx="2.5" fill="#e2e8f0" stroke="none" stroke-width="0"/>
<rect x="508" y="410" width="15.5" height="15.5" rx="2.5" fill="#e2e8f0" stroke="none" stroke-width="0"/>
<rect x="526" y="410" width="15.5" height="15.5" rx="2.5" fill="#e2e8f0" stroke="none" stroke-width="0"/>
<rect x="544" y="410" width="15.5" height="15.5" rx="2.5" fill="#e2e8f0" stroke="none" stroke-width="0"/>
<rect x="562" y="410" width="15.5" height="15.5" rx="2.5" fill="#e2e8f0" stroke="none" stroke-width="0"/>
<rect x="580" y="410" width="15.5" height="15.5" rx="2.5" fill="#e2e8f0" stroke="none" stroke-width="0"/>
<rect x="490" y="428" width="15.5" height="15.5" rx="2.5" fill="#e2e8f0" stroke="none" stroke-width="0"/>
<rect x="508" y="428" width="15.5" height="15.5" rx="2.5" fill="#e2e8f0" stroke="none" stroke-width="0"/>
<rect x="526" y="428" width="15.5" height="15.5" rx="2.5" fill="#e2e8f0" stroke="none" stroke-width="0"/>
<rect x="544" y="428" width="15.5" height="15.5" rx="2.5" fill="#e2e8f0" stroke="none" stroke-width="0"/>
<rect x="562" y="428" width="15.5" height="15.5" rx="2.5" fill="#e2e8f0" stroke="none" stroke-width="0"/>
<rect x="580" y="428" width="15.5" height="15.5" rx="2.5" fill="#e2e8f0" stroke="none" stroke-width="0"/>
<text x="545.0" y="464" font-size="10.5" fill="#64748b" text-anchor="middle">가로: 속도 / 세로: 거리</text>
<line x1="632" y1="396.0" x2="668" y2="396.0" stroke="#64748b" stroke-width="2.2" stroke-linecap="butt" marker-end="url(#ar-slate)"/>
<rect x="670" y="312" width="170" height="168" rx="12" fill="#ffffff" stroke="#94a3b8" stroke-width="1.7"/>
<text x="755.0" y="336" font-size="12.5" fill="#1e293b" text-anchor="middle" font-weight="700">⑥ 각도 추정 (AoA)</text>
<line x1="725.0" y1="430" x2="725.0" y2="414" stroke="#64748b" stroke-width="2" stroke-linecap="butt"/>
<path d="M725.0,414 L716.0,400 L734.0,400 Z" fill="#ffffff" stroke="#64748b" stroke-width="1.8" stroke-linecap="round" stroke-linejoin="round"/>
<line x1="785.0" y1="430" x2="785.0" y2="414" stroke="#64748b" stroke-width="2" stroke-linecap="butt"/>
<path d="M785.0,414 L776.0,400 L794.0,400 Z" fill="#ffffff" stroke="#64748b" stroke-width="1.8" stroke-linecap="round" stroke-linejoin="round"/>
<text x="725.0" y="444" font-size="10" fill="#64748b" text-anchor="middle">RX1</text>
<text x="785.0" y="444" font-size="10" fill="#64748b" text-anchor="middle">RX2</text>
<line x1="699.0" y1="352.0" x2="803.0" y2="374.0" stroke="#0284c7" stroke-width="1.6" stroke-linecap="butt" opacity="0.75"/>
<line x1="713.0" y1="359.7" x2="817.0" y2="381.7" stroke="#0284c7" stroke-width="1.6" stroke-linecap="butt" opacity="0.75"/>
<line x1="727.0" y1="367.4" x2="831.0" y2="389.4" stroke="#0284c7" stroke-width="1.6" stroke-linecap="butt" opacity="0.75"/>
<text x="755.0" y="464" font-size="10.5" fill="#64748b" text-anchor="middle">도달 위상차 Δφ → θ</text>
<text x="430.0" y="516" font-size="13" fill="#1e293b" text-anchor="middle" font-weight="600">모든 단계의 입력은 복소 IQ 데이터다 — FFT 한 번이면 거리, 두 번이면 속도, 안테나 간 위상 비교면 각도가 나온다.</text>
</svg>
