<svg width="2580" height="1410" xmlns="http://www.w3.org/2000/svg" viewBox="0 0 860 470" font-family="Segoe UI, Malgun Gothic, Apple SD Gothic Neo, sans-serif">
<defs><marker id="ar-mute" viewBox="0 0 10 10" refX="8.5" refY="5" markerWidth="6.5" markerHeight="6.5" orient="auto-start-reverse"><path d="M0,0 L10,5 L0,10 z" fill="#64748b"/></marker><marker id="ar-blue" viewBox="0 0 10 10" refX="8.5" refY="5" markerWidth="6.5" markerHeight="6.5" orient="auto-start-reverse"><path d="M0,0 L10,5 L0,10 z" fill="#2563eb"/></marker><marker id="ar-orange" viewBox="0 0 10 10" refX="8.5" refY="5" markerWidth="6.5" markerHeight="6.5" orient="auto-start-reverse"><path d="M0,0 L10,5 L0,10 z" fill="#ea580c"/></marker><marker id="ar-green" viewBox="0 0 10 10" refX="8.5" refY="5" markerWidth="6.5" markerHeight="6.5" orient="auto-start-reverse"><path d="M0,0 L10,5 L0,10 z" fill="#16a34a"/></marker><marker id="ar-red" viewBox="0 0 10 10" refX="8.5" refY="5" markerWidth="6.5" markerHeight="6.5" orient="auto-start-reverse"><path d="M0,0 L10,5 L0,10 z" fill="#dc2626"/></marker><marker id="ar-violet" viewBox="0 0 10 10" refX="8.5" refY="5" markerWidth="6.5" markerHeight="6.5" orient="auto-start-reverse"><path d="M0,0 L10,5 L0,10 z" fill="#7c3aed"/></marker><marker id="ar-axis" viewBox="0 0 10 10" refX="8.5" refY="5" markerWidth="6.5" markerHeight="6.5" orient="auto-start-reverse"><path d="M0,0 L10,5 L0,10 z" fill="#94a3b8"/></marker><marker id="ar-sky" viewBox="0 0 10 10" refX="8.5" refY="5" markerWidth="6.5" markerHeight="6.5" orient="auto-start-reverse"><path d="M0,0 L10,5 L0,10 z" fill="#0284c7"/></marker></defs>
<rect x="1" y="1" width="858" height="468" rx="14" fill="#ffffff" stroke="#e2e8f0" stroke-width="2"/>
<text x="430.0" y="34.0" font-size="17" fill="#1e293b" text-anchor="middle" font-weight="700">부엽으로 들어오는 재머 — 소자 20개, 재머는 표적보다 100배 강하다</text>
<rect x="60.0" y="108.0" width="340.0" height="204.0" rx="8" fill="#f8fafc" stroke="#cbd5e1" stroke-width="1.4"/>
<text x="230.0" y="96.0" font-size="12.5" fill="#1e293b" text-anchor="middle" font-weight="700">부엽이 높은 배열 (Uniform)</text>
<line x1="60.0" y1="312.0" x2="400.0" y2="312.0" stroke="#94a3b8" stroke-width="1.6" stroke-linecap="butt"/>
<line x1="60.0" y1="312.0" x2="60.0" y2="108.0" stroke="#94a3b8" stroke-width="1.6" stroke-linecap="butt"/>
<line x1="55.0" y1="123.1" x2="60.0" y2="123.1" stroke="#94a3b8" stroke-width="1.4" stroke-linecap="butt"/>
<text x="52.0" y="127.1" font-size="10.5" fill="#64748b" text-anchor="end" font-weight="400">0</text>
<line x1="60.0" y1="123.1" x2="400.0" y2="123.1" stroke="#cbd5e1" stroke-width="1" stroke-linecap="butt" stroke-dasharray="3 4"/>
<line x1="55.0" y1="160.9" x2="60.0" y2="160.9" stroke="#94a3b8" stroke-width="1.4" stroke-linecap="butt"/>
<text x="52.0" y="164.9" font-size="10.5" fill="#64748b" text-anchor="end" font-weight="400">-10</text>
<line x1="60.0" y1="160.9" x2="400.0" y2="160.9" stroke="#cbd5e1" stroke-width="1" stroke-linecap="butt" stroke-dasharray="3 4"/>
<line x1="55.0" y1="198.7" x2="60.0" y2="198.7" stroke="#94a3b8" stroke-width="1.4" stroke-linecap="butt"/>
<text x="52.0" y="202.7" font-size="10.5" fill="#64748b" text-anchor="end" font-weight="400">-20</text>
<line x1="60.0" y1="198.7" x2="400.0" y2="198.7" stroke="#cbd5e1" stroke-width="1" stroke-linecap="butt" stroke-dasharray="3 4"/>
<line x1="55.0" y1="236.4" x2="60.0" y2="236.4" stroke="#94a3b8" stroke-width="1.4" stroke-linecap="butt"/>
<text x="52.0" y="240.4" font-size="10.5" fill="#64748b" text-anchor="end" font-weight="400">-30</text>
<line x1="60.0" y1="236.4" x2="400.0" y2="236.4" stroke="#cbd5e1" stroke-width="1" stroke-linecap="butt" stroke-dasharray="3 4"/>
<line x1="55.0" y1="274.2" x2="60.0" y2="274.2" stroke="#94a3b8" stroke-width="1.4" stroke-linecap="butt"/>
<text x="52.0" y="278.2" font-size="10.5" fill="#64748b" text-anchor="end" font-weight="400">-40</text>
<line x1="60.0" y1="274.2" x2="400.0" y2="274.2" stroke="#cbd5e1" stroke-width="1" stroke-linecap="butt" stroke-dasharray="3 4"/>
<line x1="55.0" y1="312.0" x2="60.0" y2="312.0" stroke="#94a3b8" stroke-width="1.4" stroke-linecap="butt"/>
<text x="52.0" y="316.0" font-size="10.5" fill="#64748b" text-anchor="end" font-weight="400">-50</text>
<line x1="60.0" y1="312.0" x2="400.0" y2="312.0" stroke="#cbd5e1" stroke-width="1" stroke-linecap="butt" stroke-dasharray="3 4"/>
<line x1="60.0" y1="312.0" x2="60.0" y2="318.0" stroke="#94a3b8" stroke-width="1.4" stroke-linecap="butt"/>
<text x="60.0" y="330.0" font-size="10.5" fill="#64748b" text-anchor="middle" font-weight="400">-30°</text>
<line x1="116.7" y1="312.0" x2="116.7" y2="318.0" stroke="#94a3b8" stroke-width="1.4" stroke-linecap="butt"/>
<text x="116.7" y="330.0" font-size="10.5" fill="#64748b" text-anchor="middle" font-weight="400">-20°</text>
<line x1="173.3" y1="312.0" x2="173.3" y2="318.0" stroke="#94a3b8" stroke-width="1.4" stroke-linecap="butt"/>
<text x="173.3" y="330.0" font-size="10.5" fill="#64748b" text-anchor="middle" font-weight="400">-10°</text>
<line x1="230.0" y1="312.0" x2="230.0" y2="318.0" stroke="#94a3b8" stroke-width="1.4" stroke-linecap="butt"/>
<text x="230.0" y="330.0" font-size="10.5" fill="#64748b" text-anchor="middle" font-weight="400">0°</text>
<line x1="286.7" y1="312.0" x2="286.7" y2="318.0" stroke="#94a3b8" stroke-width="1.4" stroke-linecap="butt"/>
<text x="286.7" y="330.0" font-size="10.5" fill="#64748b" text-anchor="middle" font-weight="400">10°</text>
<line x1="343.3" y1="312.0" x2="343.3" y2="318.0" stroke="#94a3b8" stroke-width="1.4" stroke-linecap="butt"/>
<text x="343.3" y="330.0" font-size="10.5" fill="#64748b" text-anchor="middle" font-weight="400">20°</text>
<line x1="400.0" y1="312.0" x2="400.0" y2="318.0" stroke="#94a3b8" stroke-width="1.4" stroke-linecap="butt"/>
<text x="400.0" y="330.0" font-size="10.5" fill="#64748b" text-anchor="middle" font-weight="400">30°</text>
<path d="M60.5,311.6 L61.1,288.4 L61.6,274.9 L62.2,265.6 L62.7,258.2 L63.3,252.2 L63.8,247.3 L64.4,242.9 L64.9,239.2 L65.5,235.8 L66.0,232.9 L66.6,230.2 L67.1,227.7 L67.7,225.6 L68.2,223.5 L68.8,221.7 L69.3,220.0 L69.9,218.5 L70.4,217.1 L71.0,215.8 L71.5,214.6 L72.1,213.5 L72.6,212.5 L73.2,211.6 L73.7,210.8 L74.3,210.1 L74.8,209.5 L75.3,208.9 L75.9,208.5 L76.4,208.1 L77.0,207.8 L77.5,207.5 L78.1,207.3 L78.6,207.2 L79.1,207.2 L79.2,207.2 L79.7,207.2 L80.3,207.4 L80.8,207.6 L81.4,207.8 L81.9,208.2 L82.5,208.6 L83.0,209.1 L83.6,209.7 L84.1,210.4 L84.7,211.2 L85.2,212.1 L85.8,213.1 L86.3,214.3 L86.9,215.5 L87.4,216.9 L88.0,218.5 L88.5,220.1 L89.1,222.0 L89.6,224.2 L90.2,226.5 L90.7,229.1 L91.3,232.1 L91.8,235.5 L92.4,239.3 L92.9,243.8 L93.5,249.2 L94.0,255.6 L94.6,264.1 L95.1,275.6 L95.7,293.9 L96.7,312.0 L97.3,286.9 L97.8,271.4 L98.4,260.7 L98.9,252.6 L99.5,246.1 L100.0,240.9 L100.6,236.3 L101.1,232.3 L101.7,228.9 L102.2,225.8 L102.8,223.0 L103.3,220.5 L103.9,218.2 L104.4,216.1 L105.0,214.2 L105.5,212.5 L106.1,211.0 L106.6,209.5 L107.2,208.2 L107.7,207.0 L108.3,205.9 L108.8,204.9 L109.3,204.1 L109.9,203.3 L110.4,202.6 L111.0,202.0 L111.5,201.4 L112.1,201.0 L112.6,200.6 L113.2,200.4 L113.7,200.2 L114.3,200.0 L114.8,200.0 L114.8,200.0 L115.4,200.0 L115.9,200.2 L116.5,200.4 L117.0,200.7 L117.6,201.1 L118.1,201.5 L118.7,202.1 L119.2,202.8 L119.8,203.6 L120.3,204.5 L120.9,205.4 L121.4,206.6 L122.0,207.9 L122.5,209.3 L123.1,210.8 L123.6,212.6 L124.2,214.6 L124.7,216.8 L125.3,219.3 L125.8,222.1 L126.4,225.3 L126.9,229.0 L127.5,233.3 L128.0,238.2 L128.6,244.4 L129.1,252.2 L129.7,262.8 L130.2,278.3 L130.7,310.6 L131.8,282.9 L132.4,264.6 L132.9,253.0 L133.5,244.3 L134.0,237.7 L134.6,232.0 L135.1,227.2 L135.7,223.2 L136.2,219.5 L136.8,216.3 L137.3,213.4 L137.9,210.8 L138.4,208.4 L139.0,206.3 L139.5,204.4 L140.1,202.6 L140.6,200.9 L141.2,199.4 L141.7,198.1 L142.3,196.8 L142.8,195.7 L143.3,194.7 L143.9,193.8 L144.4,193.0 L145.0,192.3 L145.5,191.6 L146.1,191.1 L146.6,190.6 L147.2,190.3 L147.7,190.0 L148.3,189.8 L148.8,189.7 L149.3,189.6 L149.4,189.7 L149.9,189.7 L150.5,189.9 L151.0,190.1 L151.6,190.4 L152.1,190.9 L152.7,191.4 L153.2,192.1 L153.8,192.8 L154.3,193.7 L154.9,194.7 L155.4,195.8 L156.0,197.1 L156.5,198.5 L157.1,200.2 L157.6,202.0 L158.2,204.1 L158.7,206.4 L159.3,209.0 L159.8,212.1 L160.4,215.5 L160.9,219.6 L161.5,224.4 L162.0,230.1 L162.6,237.5 L163.1,247.3 L163.7,261.8 L164.2,288.2 L165.3,273.4 L165.8,253.6 L166.4,241.0 L166.9,231.9 L167.5,224.7 L168.0,218.9 L168.6,213.9 L169.1,209.5 L169.7,205.8 L170.2,202.4 L170.8,199.3 L171.3,196.6 L171.9,194.1 L172.4,191.8 L173.0,189.7 L173.5,187.8 L174.1,186.1 L174.6,184.4 L175.2,183.0 L175.7,181.6 L176.3,180.4 L176.8,179.2 L177.3,178.2 L177.9,177.3 L178.4,176.4 L179.0,175.7 L179.5,175.1 L180.1,174.5 L180.6,174.0 L181.2,173.6 L181.7,173.3 L182.3,173.1 L182.8,173.0 L183.4,172.9 L183.4,172.9 L183.9,173.0 L184.5,173.1 L185.0,173.4 L185.6,173.7 L186.1,174.2 L186.7,174.7 L187.2,175.4 L187.8,176.2 L188.3,177.1 L188.9,178.2 L189.4,179.4 L190.0,180.9 L190.5,182.5 L191.1,184.3 L191.6,186.5 L192.2,189.0 L192.7,191.7 L193.3,195.0 L193.8,198.9 L194.4,203.5 L194.9,209.2 L195.5,216.5 L196.0,226.1 L196.6,240.8 L197.1,270.1 L198.2,248.2 L198.7,228.7 L199.3,216.2 L199.8,207.2 L200.4,199.8 L200.9,193.6 L201.5,188.3 L202.0,183.8 L202.6,179.7 L203.1,175.9 L203.7,172.6 L204.2,169.5 L204.8,166.6 L205.3,163.9 L205.9,161.5 L206.4,159.2 L207.0,157.0 L207.5,154.9 L208.1,153.0 L208.6,151.1 L209.2,149.4 L209.7,147.8 L210.3,146.2 L210.8,144.7 L211.3,143.3 L211.9,142.0 L212.4,140.7 L213.0,139.5 L213.5,138.3 L214.1,137.2 L214.6,136.2 L215.2,135.2 L215.7,134.3 L216.3,133.3 L216.8,132.5 L217.4,131.7 L217.9,130.9 L218.5,130.2 L219.0,129.5 L219.6,128.9 L220.1,128.3 L220.7,127.7 L221.2,127.2 L221.8,126.6 L222.3,126.2 L222.9,125.8 L223.4,125.4 L224.0,125.0 L224.5,124.7 L225.1,124.4 L225.6,124.1 L226.2,123.9 L226.7,123.7 L227.3,123.5 L227.8,123.4 L228.3,123.3 L228.9,123.2 L229.4,123.1 L230.0,123.1 L230.0,123.1 L230.6,123.1 L231.1,123.2 L231.7,123.3 L232.2,123.4 L232.7,123.5 L233.3,123.7 L233.8,123.9 L234.4,124.1 L234.9,124.4 L235.5,124.7 L236.0,125.0 L236.6,125.4 L237.1,125.8 L237.7,126.2 L238.2,126.6 L238.8,127.2 L239.3,127.7 L239.9,128.3 L240.4,128.9 L241.0,129.5 L241.5,130.2 L242.1,130.9 L242.6,131.7 L243.2,132.5 L243.7,133.3 L244.3,134.3 L244.8,135.2 L245.4,136.2 L245.9,137.2 L246.5,138.3 L247.0,139.5 L247.6,140.7 L248.1,142.0 L248.7,143.3 L249.2,144.7 L249.7,146.2 L250.3,147.8 L250.8,149.4 L251.4,151.1 L251.9,153.0 L252.5,154.9 L253.0,157.0 L253.6,159.2 L254.1,161.5 L254.7,163.9 L255.2,166.6 L255.8,169.5 L256.3,172.6 L256.9,175.9 L257.4,179.7 L258.0,183.8 L258.5,188.3 L259.1,193.6 L259.6,199.8 L260.2,207.2 L260.7,216.2 L261.3,228.7 L261.8,248.2 L262.9,270.1 L263.4,240.8 L264.0,226.4 L264.5,216.5 L265.1,209.2 L265.6,203.5 L266.2,198.9 L266.7,195.0 L267.3,191.7 L267.8,189.0 L268.4,186.5 L268.9,184.3 L269.5,182.5 L270.0,180.9 L270.6,179.4 L271.1,178.2 L271.7,177.1 L272.2,176.2 L272.8,175.4 L273.3,174.7 L273.9,174.2 L274.4,173.7 L275.0,173.4 L275.5,173.1 L276.1,173.0 L276.6,172.9 L276.6,172.9 L277.2,173.0 L277.7,173.1 L278.3,173.3 L278.8,173.6 L279.4,174.0 L279.9,174.5 L280.5,175.1 L281.0,175.7 L281.6,176.4 L282.1,177.3 L282.7,178.2 L283.2,179.2 L283.7,180.4 L284.3,181.6 L284.8,183.0 L285.4,184.4 L285.9,186.1 L286.5,187.8 L287.0,189.7 L287.6,191.8 L288.1,194.1 L288.7,196.6 L289.2,199.3 L289.8,202.4 L290.3,205.8 L290.9,209.5 L291.4,213.9 L292.0,218.9 L292.5,224.7 L293.1,231.9 L293.6,241.0 L294.2,253.6 L294.7,273.4 L295.8,288.2 L296.3,261.8 L296.9,247.3 L297.4,237.5 L298.0,230.3 L298.5,224.4 L299.1,219.6 L299.6,215.5 L300.2,212.1 L300.7,209.0 L301.3,206.4 L301.8,204.1 L302.4,202.0 L302.9,200.2 L303.5,198.5 L304.0,197.1 L304.6,195.8 L305.1,194.7 L305.7,193.7 L306.2,192.8 L306.8,192.1 L307.3,191.4 L307.9,190.9 L308.4,190.4 L309.0,190.1 L309.5,189.9 L310.1,189.7 L310.6,189.7 L310.7,189.6 L311.2,189.7 L311.7,189.8 L312.3,190.0 L312.8,190.3 L313.4,190.6 L313.9,191.1 L314.5,191.6 L315.0,192.2 L315.6,193.0 L316.1,193.8 L316.7,194.7 L317.2,195.7 L317.7,196.8 L318.3,198.1 L318.8,199.4 L319.4,200.9 L319.9,202.6 L320.5,204.4 L321.0,206.3 L321.6,208.4 L322.1,210.8 L322.7,213.4 L323.2,216.3 L323.8,219.5 L324.3,223.2 L324.9,227.2 L325.4,232.0 L326.0,237.7 L326.5,244.3 L327.1,253.0 L327.6,264.6 L328.2,282.9 L329.3,310.6 L329.8,278.3 L330.3,262.8 L330.9,252.2 L331.4,244.4 L332.0,238.4 L332.5,233.3 L333.1,229.0 L333.6,225.3 L334.2,222.1 L334.7,219.3 L335.3,216.8 L335.8,214.6 L336.4,212.6 L336.9,210.8 L337.5,209.3 L338.0,207.9 L338.6,206.6 L339.1,205.4 L339.7,204.5 L340.2,203.6 L340.8,202.8 L341.3,202.1 L341.9,201.5 L342.4,201.1 L343.0,200.7 L343.5,200.4 L344.1,200.2 L344.6,200.0 L345.2,200.0 L345.2,200.0 L345.7,200.0 L346.3,200.2 L346.8,200.4 L347.4,200.6 L347.9,201.0 L348.5,201.4 L349.0,202.0 L349.6,202.6 L350.1,203.3 L350.7,204.1 L351.2,204.9 L351.7,205.9 L352.3,207.0 L352.8,208.2 L353.4,209.5 L353.9,211.0 L354.5,212.5 L355.0,214.2 L355.6,216.1 L356.1,218.2 L356.7,220.5 L357.2,223.0 L357.8,225.8 L358.3,228.9 L358.9,232.3 L359.4,236.3 L360.0,240.9 L360.5,246.1 L361.1,252.6 L361.6,260.7 L362.2,271.4 L362.7,286.9 L363.3,312.0 L364.3,293.9 L364.9,275.6 L365.4,264.1 L366.0,255.8 L366.5,249.2 L367.1,243.8 L367.6,239.3 L368.2,235.5 L368.7,232.1 L369.3,229.1 L369.8,226.5 L370.4,224.2 L370.9,222.0 L371.5,220.1 L372.0,218.5 L372.6,216.9 L373.1,215.5 L373.7,214.3 L374.2,213.1 L374.8,212.1 L375.3,211.2 L375.9,210.4 L376.4,209.7 L377.0,209.1 L377.5,208.6 L378.1,208.2 L378.6,207.8 L379.2,207.6 L379.7,207.4 L380.3,207.2 L380.8,207.2 L380.9,207.2 L381.4,207.2 L381.9,207.3 L382.5,207.5 L383.0,207.7 L383.6,208.1 L384.1,208.5 L384.7,208.9 L385.2,209.5 L385.7,210.1 L386.3,210.8 L386.8,211.6 L387.4,212.5 L387.9,213.5 L388.5,214.6 L389.0,215.8 L389.6,217.1 L390.1,218.5 L390.7,220.0 L391.2,221.7 L391.8,223.5 L392.3,225.6 L392.9,227.7 L393.4,230.2 L394.0,232.9 L394.5,235.8 L395.1,239.2 L395.6,242.9 L396.2,247.3 L396.7,252.2 L397.3,258.2 L397.8,265.6 L398.4,274.9 L398.9,288.4 L399.5,311.6" fill="none" stroke="#2563eb" stroke-width="1.5" stroke-linecap="round" stroke-linejoin="round"/>
<line x1="230.0" y1="108.0" x2="230.0" y2="312.0" stroke="#16a34a" stroke-width="1.2" stroke-linecap="butt" stroke-dasharray="4 4"/>
<line x1="230.0" y1="122.0" x2="230.0" y2="140.0" stroke="#16a34a" stroke-width="1.6" stroke-linecap="butt" marker-end="url(#ar-green)"/>
<text x="224.0" y="118.0" font-size="11" fill="#16a34a" text-anchor="end" font-weight="700">표적</text>
<line x1="276.6" y1="108.0" x2="276.6" y2="312.0" stroke="#dc2626" stroke-width="1.2" stroke-linecap="butt" stroke-dasharray="4 4"/>
<line x1="276.6" y1="122.0" x2="276.6" y2="140.0" stroke="#dc2626" stroke-width="1.6" stroke-linecap="butt" marker-end="url(#ar-red)"/>
<text x="282.6" y="118.0" font-size="11" fill="#dc2626" text-anchor="start" font-weight="700">재머</text>
<circle cx="276.6" cy="172.9" r="3.4" fill="#dc2626"/>
<text x="286.6" y="176.9" font-size="11" fill="#dc2626" text-anchor="start" font-weight="700">−13.2 dB</text>
<text x="230.0" y="352.0" font-size="11" fill="#64748b" text-anchor="middle" font-weight="700">빔이 향한 정면에서 벗어난 각도</text>
<text x="58.0" y="98.0" font-size="10.5" fill="#64748b" text-anchor="start" font-weight="700">응답 (dB)</text>
<rect x="60.0" y="364.0" width="340.0" height="56.0" rx="8" fill="#dc2626" fill-opacity="0.1"/>
<rect x="60.0" y="364.0" width="340.0" height="56.0" rx="8" fill="none" stroke="#dc2626" stroke-width="1.3"/>
<text x="230.0" y="386.0" font-size="12" fill="#dc2626" text-anchor="middle" font-weight="700">재머가 표적의 4.8 배로 들어온다</text>
<text x="230.0" y="407.0" font-size="11" fill="#64748b" text-anchor="middle" font-weight="400">표적이 묻힌다</text>
<rect x="460.0" y="108.0" width="340.0" height="204.0" rx="8" fill="#f8fafc" stroke="#cbd5e1" stroke-width="1.4"/>
<text x="630.0" y="96.0" font-size="12.5" fill="#1e293b" text-anchor="middle" font-weight="700">부엽을 낮춘 배열 (Taylor −35 dB)</text>
<line x1="460.0" y1="312.0" x2="800.0" y2="312.0" stroke="#94a3b8" stroke-width="1.6" stroke-linecap="butt"/>
<line x1="460.0" y1="312.0" x2="460.0" y2="108.0" stroke="#94a3b8" stroke-width="1.6" stroke-linecap="butt"/>
<line x1="455.0" y1="123.1" x2="460.0" y2="123.1" stroke="#94a3b8" stroke-width="1.4" stroke-linecap="butt"/>
<text x="452.0" y="127.1" font-size="10.5" fill="#64748b" text-anchor="end" font-weight="400">0</text>
<line x1="460.0" y1="123.1" x2="800.0" y2="123.1" stroke="#cbd5e1" stroke-width="1" stroke-linecap="butt" stroke-dasharray="3 4"/>
<line x1="455.0" y1="160.9" x2="460.0" y2="160.9" stroke="#94a3b8" stroke-width="1.4" stroke-linecap="butt"/>
<text x="452.0" y="164.9" font-size="10.5" fill="#64748b" text-anchor="end" font-weight="400">-10</text>
<line x1="460.0" y1="160.9" x2="800.0" y2="160.9" stroke="#cbd5e1" stroke-width="1" stroke-linecap="butt" stroke-dasharray="3 4"/>
<line x1="455.0" y1="198.7" x2="460.0" y2="198.7" stroke="#94a3b8" stroke-width="1.4" stroke-linecap="butt"/>
<text x="452.0" y="202.7" font-size="10.5" fill="#64748b" text-anchor="end" font-weight="400">-20</text>
<line x1="460.0" y1="198.7" x2="800.0" y2="198.7" stroke="#cbd5e1" stroke-width="1" stroke-linecap="butt" stroke-dasharray="3 4"/>
<line x1="455.0" y1="236.4" x2="460.0" y2="236.4" stroke="#94a3b8" stroke-width="1.4" stroke-linecap="butt"/>
<text x="452.0" y="240.4" font-size="10.5" fill="#64748b" text-anchor="end" font-weight="400">-30</text>
<line x1="460.0" y1="236.4" x2="800.0" y2="236.4" stroke="#cbd5e1" stroke-width="1" stroke-linecap="butt" stroke-dasharray="3 4"/>
<line x1="455.0" y1="274.2" x2="460.0" y2="274.2" stroke="#94a3b8" stroke-width="1.4" stroke-linecap="butt"/>
<text x="452.0" y="278.2" font-size="10.5" fill="#64748b" text-anchor="end" font-weight="400">-40</text>
<line x1="460.0" y1="274.2" x2="800.0" y2="274.2" stroke="#cbd5e1" stroke-width="1" stroke-linecap="butt" stroke-dasharray="3 4"/>
<line x1="455.0" y1="312.0" x2="460.0" y2="312.0" stroke="#94a3b8" stroke-width="1.4" stroke-linecap="butt"/>
<text x="452.0" y="316.0" font-size="10.5" fill="#64748b" text-anchor="end" font-weight="400">-50</text>
<line x1="460.0" y1="312.0" x2="800.0" y2="312.0" stroke="#cbd5e1" stroke-width="1" stroke-linecap="butt" stroke-dasharray="3 4"/>
<line x1="460.0" y1="312.0" x2="460.0" y2="318.0" stroke="#94a3b8" stroke-width="1.4" stroke-linecap="butt"/>
<text x="460.0" y="330.0" font-size="10.5" fill="#64748b" text-anchor="middle" font-weight="400">-30°</text>
<line x1="516.7" y1="312.0" x2="516.7" y2="318.0" stroke="#94a3b8" stroke-width="1.4" stroke-linecap="butt"/>
<text x="516.7" y="330.0" font-size="10.5" fill="#64748b" text-anchor="middle" font-weight="400">-20°</text>
<line x1="573.3" y1="312.0" x2="573.3" y2="318.0" stroke="#94a3b8" stroke-width="1.4" stroke-linecap="butt"/>
<text x="573.3" y="330.0" font-size="10.5" fill="#64748b" text-anchor="middle" font-weight="400">-10°</text>
<line x1="630.0" y1="312.0" x2="630.0" y2="318.0" stroke="#94a3b8" stroke-width="1.4" stroke-linecap="butt"/>
<text x="630.0" y="330.0" font-size="10.5" fill="#64748b" text-anchor="middle" font-weight="400">0°</text>
<line x1="686.7" y1="312.0" x2="686.7" y2="318.0" stroke="#94a3b8" stroke-width="1.4" stroke-linecap="butt"/>
<text x="686.7" y="330.0" font-size="10.5" fill="#64748b" text-anchor="middle" font-weight="400">10°</text>
<line x1="743.3" y1="312.0" x2="743.3" y2="318.0" stroke="#94a3b8" stroke-width="1.4" stroke-linecap="butt"/>
<text x="743.3" y="330.0" font-size="10.5" fill="#64748b" text-anchor="middle" font-weight="400">20°</text>
<line x1="800.0" y1="312.0" x2="800.0" y2="318.0" stroke="#94a3b8" stroke-width="1.4" stroke-linecap="butt"/>
<text x="800.0" y="330.0" font-size="10.5" fill="#64748b" text-anchor="middle" font-weight="400">30°</text>
<path d="M460.5,312.0 L461.1,312.0 L461.6,312.0 L462.2,312.0 L462.7,306.3 L463.3,300.4 L463.8,295.5 L464.4,291.2 L464.9,287.5 L465.5,284.2 L466.0,281.3 L466.6,278.6 L467.1,276.2 L467.7,274.1 L468.2,272.1 L468.8,270.4 L469.3,268.7 L469.9,267.3 L470.4,265.9 L471.0,264.6 L471.5,263.5 L472.1,262.5 L472.6,261.6 L473.2,260.8 L473.7,260.0 L474.3,259.4 L474.8,258.8 L475.3,258.3 L475.9,257.9 L476.4,257.6 L477.0,257.4 L477.5,257.2 L478.1,257.1 L478.5,257.1 L478.7,257.1 L479.2,257.1 L479.7,257.3 L480.3,257.5 L480.8,257.8 L481.4,258.1 L481.9,258.6 L482.5,259.1 L483.0,259.8 L483.6,260.5 L484.1,261.3 L484.7,262.2 L485.2,263.3 L485.8,264.4 L486.3,265.7 L486.9,267.1 L487.4,268.7 L488.0,270.4 L488.5,272.3 L489.1,274.4 L489.6,276.8 L490.2,279.5 L490.7,282.4 L491.3,285.8 L491.8,289.7 L492.4,294.1 L492.9,299.4 L493.5,305.8 L494.0,312.0 L494.6,312.0 L495.1,312.0 L495.7,312.0 L496.7,312.0 L497.3,312.0 L497.8,312.0 L498.4,305.6 L498.9,299.0 L499.5,293.6 L500.0,289.1 L500.6,285.2 L501.1,281.7 L501.7,278.7 L502.2,276.0 L502.8,273.5 L503.3,271.3 L503.9,269.3 L504.4,267.5 L505.0,265.9 L505.5,264.5 L506.1,263.1 L506.6,261.9 L507.2,260.9 L507.7,259.9 L508.3,259.1 L508.8,258.3 L509.3,257.7 L509.9,257.2 L510.4,256.7 L511.0,256.4 L511.5,256.1 L512.1,256.0 L512.6,255.9 L512.8,255.9 L513.2,255.9 L513.7,256.0 L514.3,256.2 L514.8,256.5 L515.4,256.9 L515.9,257.4 L516.5,258.0 L517.0,258.7 L517.6,259.5 L518.1,260.5 L518.7,261.5 L519.2,262.7 L519.8,264.1 L520.3,265.6 L520.9,267.2 L521.4,269.1 L522.0,271.2 L522.5,273.6 L523.1,276.2 L523.6,279.3 L524.2,282.7 L524.7,286.6 L525.3,291.2 L525.8,296.8 L526.4,303.4 L526.9,312.0 L527.5,312.0 L528.0,312.0 L529.1,312.0 L529.6,312.0 L530.2,312.0 L530.7,307.0 L531.3,299.3 L531.8,293.3 L532.4,288.1 L532.9,283.8 L533.5,280.0 L534.0,276.8 L534.6,273.9 L535.1,271.3 L535.7,269.1 L536.2,267.0 L536.8,265.2 L537.3,263.5 L537.9,262.1 L538.4,260.8 L539.0,259.7 L539.5,258.7 L540.1,257.8 L540.6,257.1 L541.2,256.5 L541.7,256.1 L542.3,255.7 L542.8,255.5 L543.3,255.4 L543.6,255.4 L543.9,255.4 L544.5,255.5 L545.0,255.8 L545.6,256.2 L546.1,256.7 L546.7,257.3 L547.2,258.1 L547.7,259.1 L548.3,260.2 L548.8,261.5 L549.4,263.0 L549.9,264.8 L550.5,266.8 L551.0,269.0 L551.6,271.6 L552.1,274.6 L552.7,278.0 L553.2,282.1 L553.8,286.9 L554.3,292.8 L554.9,300.0 L555.4,309.9 L556.0,312.0 L556.5,312.0 L557.6,312.0 L558.2,312.0 L558.7,304.8 L559.3,295.9 L559.8,289.0 L560.3,283.5 L560.9,278.8 L561.4,274.8 L562.0,271.4 L562.5,268.5 L563.1,265.9 L563.6,263.7 L564.2,261.8 L564.7,260.2 L565.3,258.8 L565.8,257.7 L566.4,256.9 L566.9,256.3 L567.5,255.9 L568.0,255.8 L568.0,255.8 L568.6,255.9 L569.1,256.4 L569.7,257.1 L570.2,258.3 L570.8,259.8 L571.3,261.8 L571.9,264.4 L572.4,267.8 L573.0,272.2 L573.5,278.0 L574.1,286.2 L574.6,298.9 L575.2,312.0 L576.3,310.9 L576.8,288.4 L577.3,274.6 L577.9,264.0 L578.4,255.5 L579.0,248.5 L579.5,242.2 L580.1,236.6 L580.6,231.6 L581.2,227.1 L581.7,222.8 L582.3,218.8 L582.8,215.2 L583.4,211.7 L583.9,208.4 L584.5,205.3 L585.0,202.4 L585.6,199.6 L586.1,196.9 L586.7,194.3 L587.2,191.8 L587.8,189.4 L588.3,187.1 L588.9,184.9 L589.4,182.8 L590.0,180.7 L590.5,178.8 L591.1,176.8 L591.6,174.9 L592.2,173.1 L592.7,171.4 L593.3,169.7 L593.8,168.0 L594.3,166.4 L594.9,164.9 L595.4,163.3 L596.0,161.9 L596.5,160.5 L597.1,159.1 L597.6,157.7 L598.2,156.4 L598.7,155.1 L599.3,153.9 L599.8,152.7 L600.4,151.5 L600.9,150.3 L601.5,149.2 L602.0,148.1 L602.6,147.1 L603.1,146.0 L603.7,145.0 L604.2,144.1 L604.8,143.1 L605.3,142.2 L605.9,141.3 L606.4,140.4 L607.0,139.6 L607.5,138.8 L608.1,138.0 L608.6,137.2 L609.2,136.5 L609.7,135.8 L610.3,135.0 L610.8,134.4 L611.3,133.7 L611.9,133.1 L612.4,132.5 L613.0,131.9 L613.5,131.3 L614.1,130.7 L614.6,130.2 L615.2,129.7 L615.7,129.2 L616.3,128.8 L616.8,128.3 L617.4,127.9 L617.9,127.5 L618.5,127.1 L619.0,126.7 L619.6,126.3 L620.1,126.0 L620.7,125.7 L621.2,125.4 L621.8,125.1 L622.3,124.9 L622.9,124.6 L623.4,124.4 L624.0,124.2 L624.5,124.0 L625.1,123.8 L625.6,123.7 L626.2,123.5 L626.7,123.4 L627.3,123.3 L627.8,123.3 L628.3,123.2 L628.9,123.1 L629.4,123.1 L630.0,123.1 L630.0,123.1 L630.6,123.1 L631.1,123.1 L631.7,123.2 L632.2,123.3 L632.7,123.3 L633.3,123.4 L633.8,123.5 L634.4,123.7 L634.9,123.8 L635.5,124.0 L636.0,124.2 L636.6,124.4 L637.1,124.6 L637.7,124.9 L638.2,125.1 L638.8,125.4 L639.3,125.7 L639.9,126.0 L640.4,126.3 L641.0,126.7 L641.5,127.1 L642.1,127.5 L642.6,127.9 L643.2,128.3 L643.7,128.8 L644.3,129.2 L644.8,129.7 L645.4,130.2 L645.9,130.7 L646.5,131.3 L647.0,131.9 L647.6,132.5 L648.1,133.1 L648.7,133.7 L649.2,134.4 L649.7,135.0 L650.3,135.8 L650.8,136.5 L651.4,137.2 L651.9,138.0 L652.5,138.8 L653.0,139.6 L653.6,140.4 L654.1,141.3 L654.7,142.2 L655.2,143.1 L655.8,144.1 L656.3,145.0 L656.9,146.0 L657.4,147.1 L658.0,148.1 L658.5,149.2 L659.1,150.3 L659.6,151.5 L660.2,152.7 L660.7,153.9 L661.3,155.1 L661.8,156.4 L662.4,157.7 L662.9,159.1 L663.5,160.5 L664.0,161.9 L664.6,163.3 L665.1,164.9 L665.7,166.4 L666.2,168.0 L666.7,169.7 L667.3,171.4 L667.8,173.1 L668.4,174.9 L668.9,176.8 L669.5,178.8 L670.0,180.7 L670.6,182.8 L671.1,184.9 L671.7,187.1 L672.2,189.4 L672.8,191.8 L673.3,194.3 L673.9,196.9 L674.4,199.6 L675.0,202.4 L675.5,205.3 L676.1,208.4 L676.6,211.7 L677.2,215.2 L677.7,218.8 L678.3,222.8 L678.8,227.1 L679.4,231.6 L679.9,236.6 L680.5,242.2 L681.0,248.3 L681.6,255.5 L682.1,264.0 L682.7,274.6 L683.2,288.4 L683.7,310.9 L684.8,312.0 L685.4,298.9 L685.9,286.2 L686.5,278.0 L687.0,272.2 L687.6,267.8 L688.1,264.4 L688.7,261.8 L689.2,259.8 L689.8,258.3 L690.3,257.1 L690.9,256.4 L691.4,255.9 L692.0,255.8 L692.0,255.8 L692.5,255.9 L693.1,256.3 L693.6,256.9 L694.2,257.7 L694.7,258.8 L695.3,260.2 L695.8,261.8 L696.4,263.7 L696.9,265.9 L697.5,268.5 L698.0,271.3 L698.6,274.8 L699.1,278.8 L699.7,283.5 L700.2,289.0 L700.7,295.9 L701.3,304.8 L701.8,312.0 L702.4,312.0 L703.5,312.0 L704.0,312.0 L704.6,309.9 L705.1,300.0 L705.7,292.8 L706.2,286.9 L706.8,282.1 L707.3,278.0 L707.9,274.6 L708.4,271.6 L709.0,269.0 L709.5,266.8 L710.1,264.8 L710.6,263.0 L711.2,261.5 L711.7,260.2 L712.3,259.1 L712.8,258.1 L713.3,257.3 L713.9,256.7 L714.4,256.2 L715.0,255.8 L715.5,255.5 L716.1,255.4 L716.4,255.4 L716.7,255.4 L717.2,255.5 L717.7,255.7 L718.3,256.1 L718.8,256.5 L719.4,257.1 L719.9,257.8 L720.5,258.7 L721.0,259.7 L721.6,260.8 L722.1,262.1 L722.7,263.5 L723.2,265.2 L723.8,267.0 L724.3,269.1 L724.9,271.3 L725.4,273.9 L726.0,276.8 L726.5,280.0 L727.1,283.8 L727.6,288.1 L728.2,293.3 L728.7,299.3 L729.3,307.0 L729.8,312.0 L730.4,312.0 L730.9,312.0 L732.0,312.0 L732.5,312.0 L733.1,312.0 L733.6,303.4 L734.2,296.8 L734.7,291.2 L735.3,286.6 L735.8,282.7 L736.4,279.3 L736.9,276.2 L737.5,273.6 L738.0,271.2 L738.6,269.1 L739.1,267.2 L739.7,265.6 L740.2,264.1 L740.8,262.7 L741.3,261.5 L741.9,260.5 L742.4,259.5 L743.0,258.7 L743.5,258.0 L744.1,257.4 L744.6,256.9 L745.2,256.5 L745.7,256.2 L746.3,256.0 L746.8,255.9 L747.2,255.9 L747.4,255.9 L747.9,256.0 L748.5,256.1 L749.0,256.4 L749.6,256.7 L750.1,257.2 L750.7,257.7 L751.2,258.3 L751.7,259.1 L752.3,259.9 L752.8,260.9 L753.4,261.9 L753.9,263.1 L754.5,264.5 L755.0,265.9 L755.6,267.5 L756.1,269.3 L756.7,271.3 L757.2,273.5 L757.8,276.0 L758.3,278.7 L758.9,281.7 L759.4,285.2 L760.0,289.1 L760.5,293.6 L761.1,299.0 L761.6,305.6 L762.2,312.0 L762.7,312.0 L763.3,312.0 L764.3,312.0 L764.9,312.0 L765.4,312.0 L766.0,312.0 L766.5,305.8 L767.1,299.4 L767.6,294.1 L768.2,289.7 L768.7,285.8 L769.3,282.4 L769.8,279.5 L770.4,276.8 L770.9,274.4 L771.5,272.3 L772.0,270.4 L772.6,268.7 L773.1,267.1 L773.7,265.7 L774.2,264.4 L774.8,263.3 L775.3,262.2 L775.9,261.3 L776.4,260.5 L777.0,259.8 L777.5,259.1 L778.1,258.6 L778.6,258.1 L779.2,257.8 L779.7,257.5 L780.3,257.3 L780.8,257.1 L781.3,257.1 L781.5,257.1 L781.9,257.1 L782.5,257.2 L783.0,257.4 L783.6,257.6 L784.1,257.9 L784.7,258.3 L785.2,258.8 L785.7,259.4 L786.3,260.0 L786.8,260.8 L787.4,261.6 L787.9,262.5 L788.5,263.5 L789.0,264.6 L789.6,265.9 L790.1,267.3 L790.7,268.7 L791.2,270.4 L791.8,272.1 L792.3,274.1 L792.9,276.2 L793.4,278.6 L794.0,281.3 L794.5,284.2 L795.1,287.5 L795.6,291.2 L796.2,295.5 L796.7,300.4 L797.3,306.3 L797.8,312.0 L798.4,312.0 L798.9,312.0 L799.5,312.0" fill="none" stroke="#2563eb" stroke-width="1.5" stroke-linecap="round" stroke-linejoin="round"/>
<line x1="630.0" y1="108.0" x2="630.0" y2="312.0" stroke="#16a34a" stroke-width="1.2" stroke-linecap="butt" stroke-dasharray="4 4"/>
<line x1="630.0" y1="122.0" x2="630.0" y2="140.0" stroke="#16a34a" stroke-width="1.6" stroke-linecap="butt" marker-end="url(#ar-green)"/>
<text x="624.0" y="118.0" font-size="11" fill="#16a34a" text-anchor="end" font-weight="700">표적</text>
<line x1="692.0" y1="108.0" x2="692.0" y2="312.0" stroke="#dc2626" stroke-width="1.2" stroke-linecap="butt" stroke-dasharray="4 4"/>
<line x1="692.0" y1="122.0" x2="692.0" y2="140.0" stroke="#dc2626" stroke-width="1.6" stroke-linecap="butt" marker-end="url(#ar-red)"/>
<text x="698.0" y="118.0" font-size="11" fill="#dc2626" text-anchor="start" font-weight="700">재머</text>
<circle cx="692.0" cy="255.8" r="3.4" fill="#dc2626"/>
<text x="702.0" y="259.8" font-size="11" fill="#dc2626" text-anchor="start" font-weight="700">−35.1 dB</text>
<text x="630.0" y="352.0" font-size="11" fill="#64748b" text-anchor="middle" font-weight="700">빔이 향한 정면에서 벗어난 각도</text>
<text x="458.0" y="98.0" font-size="10.5" fill="#64748b" text-anchor="start" font-weight="700">응답 (dB)</text>
<rect x="460.0" y="364.0" width="340.0" height="56.0" rx="8" fill="#16a34a" fill-opacity="0.1"/>
<rect x="460.0" y="364.0" width="340.0" height="56.0" rx="8" fill="none" stroke="#16a34a" stroke-width="1.3"/>
<text x="630.0" y="386.0" font-size="12" fill="#16a34a" text-anchor="middle" font-weight="700">재머가 표적의 1/32 로 줄어든다</text>
<text x="630.0" y="407.0" font-size="11" fill="#64748b" text-anchor="middle" font-weight="400">표적이 보인다</text>
<text x="430.0" y="442.0" font-size="11.5" fill="#1e293b" text-anchor="middle" font-weight="400">재머 자체의 세기는 같다. 달라진 것은 그 방향에서 안테나가 얼마나 받아 주느냐뿐이다.</text>
</svg>
