<svg width="2580" height="1410" xmlns="http://www.w3.org/2000/svg" viewBox="0 0 860 470" font-family="Segoe UI, Malgun Gothic, Apple SD Gothic Neo, sans-serif">
<defs><marker id="ar-mute" viewBox="0 0 10 10" refX="8.5" refY="5" markerWidth="6.5" markerHeight="6.5" orient="auto-start-reverse"><path d="M0,0 L10,5 L0,10 z" fill="#64748b"/></marker><marker id="ar-blue" viewBox="0 0 10 10" refX="8.5" refY="5" markerWidth="6.5" markerHeight="6.5" orient="auto-start-reverse"><path d="M0,0 L10,5 L0,10 z" fill="#2563eb"/></marker><marker id="ar-orange" viewBox="0 0 10 10" refX="8.5" refY="5" markerWidth="6.5" markerHeight="6.5" orient="auto-start-reverse"><path d="M0,0 L10,5 L0,10 z" fill="#ea580c"/></marker><marker id="ar-green" viewBox="0 0 10 10" refX="8.5" refY="5" markerWidth="6.5" markerHeight="6.5" orient="auto-start-reverse"><path d="M0,0 L10,5 L0,10 z" fill="#16a34a"/></marker><marker id="ar-red" viewBox="0 0 10 10" refX="8.5" refY="5" markerWidth="6.5" markerHeight="6.5" orient="auto-start-reverse"><path d="M0,0 L10,5 L0,10 z" fill="#dc2626"/></marker><marker id="ar-violet" viewBox="0 0 10 10" refX="8.5" refY="5" markerWidth="6.5" markerHeight="6.5" orient="auto-start-reverse"><path d="M0,0 L10,5 L0,10 z" fill="#7c3aed"/></marker><marker id="ar-axis" viewBox="0 0 10 10" refX="8.5" refY="5" markerWidth="6.5" markerHeight="6.5" orient="auto-start-reverse"><path d="M0,0 L10,5 L0,10 z" fill="#94a3b8"/></marker><marker id="ar-sky" viewBox="0 0 10 10" refX="8.5" refY="5" markerWidth="6.5" markerHeight="6.5" orient="auto-start-reverse"><path d="M0,0 L10,5 L0,10 z" fill="#0284c7"/></marker></defs>
<rect x="1" y="1" width="858" height="468" rx="14" fill="#ffffff" stroke="#e2e8f0" stroke-width="2"/>
<text x="430.0" y="34.0" font-size="17" fill="#1e293b" text-anchor="middle" font-weight="700">합 빔과 차 빔 — 각도 정확도는 차 빔이 만든다</text>
<rect x="76.0" y="88.0" width="340.0" height="250.0" rx="8" fill="#f8fafc" stroke="#cbd5e1" stroke-width="1.4"/>
<line x1="76.0" y1="338.0" x2="416.0" y2="338.0" stroke="#94a3b8" stroke-width="1.6" stroke-linecap="butt"/>
<line x1="76.0" y1="338.0" x2="76.0" y2="88.0" stroke="#94a3b8" stroke-width="1.6" stroke-linecap="butt"/>
<line x1="71.0" y1="99.9" x2="76.0" y2="99.9" stroke="#94a3b8" stroke-width="1.4" stroke-linecap="butt"/>
<text x="68.0" y="103.9" font-size="11.5" fill="#64748b" text-anchor="end" font-weight="400">0</text>
<line x1="76.0" y1="99.9" x2="416.0" y2="99.9" stroke="#cbd5e1" stroke-width="1" stroke-linecap="butt" stroke-dasharray="3 4"/>
<line x1="71.0" y1="159.4" x2="76.0" y2="159.4" stroke="#94a3b8" stroke-width="1.4" stroke-linecap="butt"/>
<text x="68.0" y="163.4" font-size="11.5" fill="#64748b" text-anchor="end" font-weight="400">-10</text>
<line x1="76.0" y1="159.4" x2="416.0" y2="159.4" stroke="#cbd5e1" stroke-width="1" stroke-linecap="butt" stroke-dasharray="3 4"/>
<line x1="71.0" y1="219.0" x2="76.0" y2="219.0" stroke="#94a3b8" stroke-width="1.4" stroke-linecap="butt"/>
<text x="68.0" y="223.0" font-size="11.5" fill="#64748b" text-anchor="end" font-weight="400">-20</text>
<line x1="76.0" y1="219.0" x2="416.0" y2="219.0" stroke="#cbd5e1" stroke-width="1" stroke-linecap="butt" stroke-dasharray="3 4"/>
<line x1="71.0" y1="278.5" x2="76.0" y2="278.5" stroke="#94a3b8" stroke-width="1.4" stroke-linecap="butt"/>
<text x="68.0" y="282.5" font-size="11.5" fill="#64748b" text-anchor="end" font-weight="400">-30</text>
<line x1="76.0" y1="278.5" x2="416.0" y2="278.5" stroke="#cbd5e1" stroke-width="1" stroke-linecap="butt" stroke-dasharray="3 4"/>
<line x1="71.0" y1="338.0" x2="76.0" y2="338.0" stroke="#94a3b8" stroke-width="1.4" stroke-linecap="butt"/>
<text x="68.0" y="342.0" font-size="11.5" fill="#64748b" text-anchor="end" font-weight="400">-40</text>
<line x1="76.0" y1="338.0" x2="416.0" y2="338.0" stroke="#cbd5e1" stroke-width="1" stroke-linecap="butt" stroke-dasharray="3 4"/>
<path d="M76.6,282.5 L77.3,282.1 L78.0,281.9 L78.7,281.7 L79.3,281.6 L80.0,281.5 L80.1,281.5 L80.8,281.6 L81.4,281.7 L82.1,281.9 L82.8,282.1 L83.5,282.4 L84.2,282.8 L84.8,283.3 L85.5,283.9 L86.2,284.5 L86.9,285.2 L87.6,286.0 L88.2,286.9 L88.9,287.9 L89.6,289.0 L90.3,290.2 L91.0,291.5 L91.6,292.9 L92.3,294.4 L93.0,296.1 L93.7,297.9 L94.4,299.8 L95.0,302.0 L95.7,304.3 L96.4,306.8 L97.1,309.5 L97.8,312.5 L98.4,315.7 L99.1,319.3 L99.8,323.2 L100.5,327.5 L101.2,332.4 L101.8,337.9 L102.5,338.0 L103.2,338.0 L103.9,338.0 L104.6,338.0 L105.2,338.0 L105.9,338.0 L106.6,338.0 L107.9,338.0 L108.6,338.0 L109.3,338.0 L109.9,338.0 L110.6,338.0 L111.3,338.0 L112.0,338.0 L112.7,338.0 L113.3,334.9 L114.0,329.3 L114.7,324.4 L115.4,319.9 L116.1,315.8 L116.7,312.1 L117.4,308.8 L118.1,305.7 L118.8,302.8 L119.5,300.2 L120.1,297.8 L120.8,295.6 L121.5,293.6 L122.2,291.7 L122.9,290.0 L123.5,288.4 L124.2,287.0 L124.9,285.7 L125.6,284.6 L126.3,283.6 L126.9,282.7 L127.6,281.9 L128.3,281.3 L129.0,280.7 L129.7,280.3 L130.3,280.1 L131.0,279.9 L131.4,279.9 L131.8,279.9 L132.4,280.1 L133.1,280.4 L133.8,280.8 L134.5,281.4 L135.2,282.2 L135.8,283.1 L136.5,284.3 L137.2,285.6 L137.9,287.2 L138.6,289.0 L139.2,291.2 L139.9,293.6 L140.6,296.4 L141.3,299.7 L142.0,303.5 L142.6,307.9 L143.3,313.2 L144.0,319.4 L144.7,327.0 L145.4,336.6 L146.0,338.0 L146.7,338.0 L147.4,338.0 L148.7,338.0 L149.4,338.0 L150.1,338.0 L150.7,334.1 L151.4,320.5 L152.1,309.3 L152.8,299.7 L153.5,291.4 L154.1,283.9 L154.8,277.2 L155.5,271.1 L156.2,265.4 L156.9,260.1 L157.5,255.1 L158.2,250.5 L158.9,246.1 L159.6,242.0 L160.3,238.0 L160.9,234.2 L161.6,230.6 L162.3,227.1 L163.0,223.8 L163.7,220.6 L164.3,217.5 L165.0,214.5 L165.7,211.7 L166.4,208.9 L167.1,206.2 L167.7,203.5 L168.4,201.0 L169.1,198.5 L169.8,196.1 L170.5,193.8 L171.1,191.5 L171.8,189.3 L172.5,187.1 L173.2,185.0 L173.9,182.9 L174.5,180.9 L175.2,179.0 L175.9,177.0 L176.6,175.2 L177.3,173.3 L177.9,171.5 L178.6,169.8 L179.3,168.1 L180.0,166.4 L180.7,164.7 L181.3,163.1 L182.0,161.5 L182.7,160.0 L183.4,158.5 L184.1,157.0 L184.7,155.5 L185.4,154.1 L186.1,152.7 L186.8,151.3 L187.5,150.0 L188.1,148.7 L188.8,147.4 L189.5,146.1 L190.2,144.8 L190.9,143.6 L191.5,142.4 L192.2,141.2 L192.9,140.1 L193.6,138.9 L194.3,137.8 L194.9,136.7 L195.6,135.7 L196.3,134.6 L197.0,133.6 L197.7,132.6 L198.3,131.6 L199.0,130.6 L199.7,129.7 L200.4,128.7 L201.1,127.8 L201.7,126.9 L202.4,126.0 L203.1,125.2 L203.8,124.3 L204.5,123.5 L205.1,122.7 L205.8,121.9 L206.5,121.1 L207.2,120.4 L207.9,119.6 L208.5,118.9 L209.2,118.2 L209.9,117.5 L210.6,116.8 L211.3,116.1 L211.9,115.5 L212.6,114.8 L213.3,114.2 L214.0,113.6 L214.7,113.0 L215.3,112.4 L216.0,111.9 L216.7,111.3 L217.4,110.8 L218.1,110.3 L218.7,109.7 L219.4,109.2 L220.1,108.8 L220.8,108.3 L221.5,107.8 L222.1,107.4 L222.8,107.0 L223.5,106.6 L224.2,106.2 L224.9,105.8 L225.5,105.4 L226.2,105.0 L226.9,104.7 L227.6,104.3 L228.3,104.0 L228.9,103.7 L229.6,103.4 L230.3,103.1 L231.0,102.8 L231.7,102.6 L232.3,102.3 L233.0,102.1 L233.7,101.9 L234.4,101.7 L235.1,101.5 L235.7,101.3 L236.4,101.1 L237.1,100.9 L237.8,100.8 L238.5,100.6 L239.1,100.5 L239.8,100.4 L240.5,100.3 L241.2,100.2 L241.9,100.1 L242.5,100.1 L243.2,100.0 L243.9,100.0 L244.6,99.9 L245.3,99.9 L245.9,99.9 L246.0,99.9 L246.7,99.9 L247.4,99.9 L248.0,100.0 L248.7,100.0 L249.4,100.1 L250.1,100.1 L250.8,100.2 L251.4,100.3 L252.1,100.4 L252.8,100.5 L253.5,100.6 L254.2,100.8 L254.8,100.9 L255.5,101.1 L256.2,101.3 L256.9,101.4 L257.6,101.6 L258.2,101.9 L258.9,102.1 L259.6,102.3 L260.3,102.6 L261.0,102.8 L261.6,103.1 L262.3,103.4 L263.0,103.7 L263.7,104.0 L264.4,104.3 L265.0,104.6 L265.7,105.0 L266.4,105.4 L267.1,105.7 L267.8,106.1 L268.4,106.5 L269.1,106.9 L269.8,107.4 L270.5,107.8 L271.2,108.3 L271.8,108.7 L272.5,109.2 L273.2,109.7 L273.9,110.2 L274.6,110.7 L275.2,111.3 L275.9,111.8 L276.6,112.4 L277.3,113.0 L278.0,113.6 L278.6,114.2 L279.3,114.8 L280.0,115.4 L280.7,116.1 L281.4,116.7 L282.0,117.4 L282.7,118.1 L283.4,118.8 L284.1,119.6 L284.8,120.3 L285.4,121.1 L286.1,121.8 L286.8,122.6 L287.5,123.4 L288.2,124.3 L288.8,125.1 L289.5,126.0 L290.2,126.9 L290.9,127.7 L291.6,128.7 L292.2,129.6 L292.9,130.5 L293.6,131.5 L294.3,132.5 L295.0,133.5 L295.6,134.5 L296.3,135.6 L297.0,136.7 L297.7,137.7 L298.4,138.9 L299.0,140.0 L299.7,141.1 L300.4,142.3 L301.1,143.5 L301.8,144.7 L302.4,146.0 L303.1,147.2 L303.8,148.5 L304.5,149.9 L305.2,151.2 L305.8,152.6 L306.5,154.0 L307.2,155.4 L307.9,156.9 L308.6,158.3 L309.2,159.9 L309.9,161.4 L310.6,163.0 L311.3,164.6 L312.0,166.2 L312.6,167.9 L313.3,169.6 L314.0,171.4 L314.7,173.2 L315.4,175.0 L316.0,176.9 L316.7,178.8 L317.4,180.8 L318.1,182.8 L318.8,184.8 L319.4,186.9 L320.1,189.1 L320.8,191.3 L321.5,193.6 L322.2,195.9 L322.8,198.3 L323.5,200.8 L324.2,203.3 L324.9,205.9 L325.6,208.6 L326.2,211.4 L326.9,214.3 L327.6,217.3 L328.3,220.3 L329.0,223.5 L329.6,226.9 L330.3,230.3 L331.0,233.9 L331.7,237.7 L332.4,241.6 L333.0,245.8 L333.7,250.1 L334.4,254.8 L335.1,259.7 L335.8,264.9 L336.4,270.6 L337.1,276.7 L337.8,283.4 L338.5,290.7 L339.2,299.0 L339.8,308.4 L340.5,319.4 L341.2,332.8 L341.9,338.0 L342.6,338.0 L343.2,338.0 L344.5,338.0 L345.2,338.0 L345.9,338.0 L346.6,337.5 L347.3,327.7 L347.9,320.0 L348.6,313.6 L349.3,308.3 L350.0,303.9 L350.7,300.0 L351.3,296.7 L352.0,293.8 L352.7,291.4 L353.4,289.2 L354.1,287.3 L354.7,285.7 L355.4,284.4 L356.1,283.2 L356.8,282.3 L357.5,281.5 L358.1,280.9 L358.8,280.4 L359.5,280.1 L360.2,279.9 L360.6,279.9 L360.9,279.9 L361.6,280.1 L362.3,280.3 L363.0,280.7 L363.6,281.2 L364.3,281.8 L365.0,282.6 L365.7,283.5 L366.4,284.5 L367.0,285.6 L367.7,286.9 L368.4,288.3 L369.1,289.9 L369.8,291.6 L370.4,293.4 L371.1,295.4 L371.8,297.6 L372.5,300.0 L373.2,302.6 L373.8,305.4 L374.5,308.5 L375.2,311.9 L375.9,315.5 L376.6,319.5 L377.2,324.0 L377.9,328.9 L378.6,334.4 L379.3,338.0 L380.0,338.0 L380.6,338.0 L381.3,338.0 L382.0,338.0 L382.7,338.0 L383.4,338.0 L384.0,338.0 L385.3,338.0 L386.0,338.0 L386.7,338.0 L387.4,338.0 L388.1,338.0 L388.7,338.0 L389.4,338.0 L390.1,338.0 L390.8,332.8 L391.5,327.9 L392.1,323.5 L392.8,319.6 L393.5,316.0 L394.2,312.7 L394.9,309.7 L395.5,307.0 L396.2,304.5 L396.9,302.2 L397.6,300.0 L398.3,298.0 L398.9,296.2 L399.6,294.6 L400.3,293.0 L401.0,291.6 L401.7,290.3 L402.3,289.1 L403.0,288.0 L403.7,287.0 L404.4,286.1 L405.1,285.3 L405.7,284.5 L406.4,283.9 L407.1,283.3 L407.8,282.9 L408.5,282.5 L409.1,282.1 L409.8,281.9 L410.5,281.7 L411.2,281.6 L411.9,281.5 L411.9,281.5 L412.6,281.6 L413.3,281.7 L414.0,281.9 L414.6,282.1 L415.3,282.4" fill="none" stroke="#2563eb" stroke-width="1.9" stroke-linecap="round" stroke-linejoin="round"/>
<path d="M76.0,181.5 L76.7,181.6 L77.4,181.6 L78.0,181.7 L78.7,181.7 L79.4,181.8 L80.1,181.8 L80.8,181.8 L81.4,181.9 L82.1,181.9 L82.8,181.9 L83.5,182.0 L84.2,182.0 L84.8,182.0 L85.5,182.0 L86.2,182.0 L86.9,182.1 L88.2,182.0 L88.9,182.0 L89.5,182.0 L90.2,182.0 L90.9,182.0 L91.6,181.9 L92.3,181.9 L92.9,181.8 L93.6,181.7 L94.3,181.6 L95.0,181.6 L95.7,181.4 L96.3,181.3 L97.0,181.2 L97.7,181.1 L98.4,180.9 L99.1,180.8 L99.7,180.6 L100.4,180.4 L101.1,180.2 L101.8,180.0 L102.5,179.8 L103.1,179.5 L103.8,179.3 L104.5,179.0 L105.2,178.7 L105.9,178.4 L106.5,178.1 L107.2,177.8 L107.9,177.4 L108.6,177.1 L109.3,176.7 L109.9,176.3 L110.6,175.9 L111.3,175.5 L112.0,175.1 L112.7,174.7 L113.3,174.2 L114.0,173.7 L114.7,173.3 L115.4,172.8 L116.1,172.3 L116.7,171.8 L117.4,171.2 L118.1,170.7 L118.8,170.2 L119.5,169.6 L120.1,169.1 L120.8,168.5 L121.5,167.9 L122.2,167.3 L122.9,166.7 L123.5,166.1 L124.2,165.5 L124.9,164.9 L125.6,164.2 L126.3,163.6 L126.9,163.0 L127.6,162.3 L128.3,161.7 L129.0,161.0 L129.7,160.3 L130.3,159.7 L131.0,159.0 L131.7,158.3 L132.4,157.7 L133.1,157.0 L133.7,156.3 L134.4,155.7 L135.1,155.0 L135.8,154.3 L136.5,153.6 L137.1,152.9 L137.8,152.3 L138.5,151.6 L139.2,150.9 L139.9,150.3 L140.5,149.6 L141.2,148.9 L141.9,148.3 L142.6,147.6 L143.3,147.0 L143.9,146.3 L144.6,145.7 L145.3,145.0 L146.0,144.4 L146.7,143.8 L147.3,143.1 L148.0,142.5 L148.7,141.9 L149.4,141.3 L150.1,140.7 L150.7,140.1 L151.4,139.5 L152.1,138.9 L152.8,138.3 L153.5,137.8 L154.1,137.2 L154.8,136.7 L155.5,136.1 L156.2,135.6 L156.9,135.0 L157.5,134.5 L158.2,134.0 L158.9,133.5 L159.6,133.0 L160.3,132.5 L160.9,132.0 L161.6,131.6 L162.3,131.1 L163.0,130.7 L163.7,130.2 L164.3,129.8 L165.0,129.4 L165.7,129.0 L166.4,128.6 L167.1,128.2 L167.7,127.8 L168.4,127.4 L169.1,127.1 L169.8,126.7 L170.5,126.4 L171.1,126.1 L171.8,125.8 L172.5,125.5 L173.2,125.2 L173.9,124.9 L174.5,124.6 L175.2,124.4 L175.9,124.1 L176.6,123.9 L177.3,123.7 L177.9,123.5 L178.6,123.3 L179.3,123.1 L180.0,122.9 L180.7,122.8 L181.3,122.6 L182.0,122.5 L182.7,122.4 L183.4,122.3 L184.1,122.2 L184.7,122.1 L185.4,122.1 L186.1,122.0 L186.8,122.0 L187.5,122.0 L188.1,122.0 L188.2,122.0 L188.9,122.0 L189.6,122.0 L190.2,122.0 L190.9,122.1 L191.6,122.1 L192.3,122.2 L193.0,122.3 L193.6,122.4 L194.3,122.6 L195.0,122.7 L195.7,122.9 L196.4,123.1 L197.0,123.3 L197.7,123.5 L198.4,123.7 L199.1,124.0 L199.8,124.2 L200.4,124.5 L201.1,124.8 L201.8,125.2 L202.5,125.5 L203.2,125.9 L203.8,126.3 L204.5,126.7 L205.2,127.1 L205.9,127.5 L206.6,128.0 L207.2,128.5 L207.9,129.0 L208.6,129.6 L209.3,130.1 L210.0,130.7 L210.6,131.3 L211.3,132.0 L212.0,132.6 L212.7,133.3 L213.4,134.1 L214.0,134.8 L214.7,135.6 L215.4,136.4 L216.1,137.3 L216.8,138.1 L217.4,139.1 L218.1,140.0 L218.8,141.0 L219.5,142.0 L220.2,143.1 L220.8,144.2 L221.5,145.4 L222.2,146.6 L222.9,147.9 L223.6,149.2 L224.2,150.5 L224.9,152.0 L225.6,153.4 L226.3,155.0 L227.0,156.6 L227.6,158.3 L228.3,160.1 L229.0,161.9 L229.7,163.8 L230.4,165.9 L231.0,168.0 L231.7,170.3 L232.4,172.7 L233.1,175.2 L233.8,177.8 L234.4,180.7 L235.1,183.7 L235.8,186.9 L236.5,190.4 L237.2,194.1 L237.8,198.2 L238.5,202.6 L239.2,207.4 L239.9,212.8 L240.6,218.9 L241.2,225.7 L241.9,233.6 L242.6,243.0 L243.3,254.5 L244.0,269.4 L244.6,290.3 L245.3,326.2 L246.6,330.6 L247.3,292.5 L248.0,270.8 L248.7,255.6 L249.3,243.9 L250.0,234.4 L250.7,226.3 L251.4,219.4 L252.1,213.3 L252.7,207.9 L253.4,203.0 L254.1,198.5 L254.8,194.4 L255.5,190.7 L256.1,187.2 L256.8,184.0 L257.5,180.9 L258.2,178.1 L258.9,175.4 L259.5,172.9 L260.2,170.5 L260.9,168.2 L261.6,166.1 L262.3,164.0 L262.9,162.1 L263.6,160.2 L264.3,158.4 L265.0,156.7 L265.7,155.1 L266.3,153.6 L267.0,152.1 L267.7,150.6 L268.4,149.3 L269.1,148.0 L269.7,146.7 L270.4,145.5 L271.1,144.3 L271.8,143.2 L272.5,142.1 L273.1,141.1 L273.8,140.1 L274.5,139.1 L275.2,138.2 L275.9,137.3 L276.5,136.5 L277.2,135.7 L277.9,134.9 L278.6,134.1 L279.3,133.4 L279.9,132.7 L280.6,132.0 L281.3,131.4 L282.0,130.8 L282.7,130.2 L283.3,129.6 L284.0,129.1 L284.7,128.5 L285.4,128.0 L286.1,127.6 L286.7,127.1 L287.4,126.7 L288.1,126.3 L288.8,125.9 L289.5,125.5 L290.1,125.2 L290.8,124.9 L291.5,124.5 L292.2,124.3 L292.9,124.0 L293.5,123.7 L294.2,123.5 L294.9,123.3 L295.6,123.1 L296.3,122.9 L296.9,122.7 L297.6,122.6 L298.3,122.5 L299.0,122.3 L299.7,122.2 L300.3,122.1 L301.0,122.1 L301.7,122.0 L302.4,122.0 L303.1,122.0 L303.7,122.0 L303.9,122.0 L304.5,122.0 L305.2,122.0 L305.8,122.0 L306.5,122.1 L307.2,122.1 L307.9,122.2 L308.6,122.3 L309.2,122.4 L309.9,122.5 L310.6,122.6 L311.3,122.8 L312.0,122.9 L312.6,123.1 L313.3,123.3 L314.0,123.5 L314.7,123.7 L315.4,123.9 L316.0,124.1 L316.7,124.4 L317.4,124.6 L318.1,124.9 L318.8,125.2 L319.4,125.4 L320.1,125.7 L320.8,126.1 L321.5,126.4 L322.2,126.7 L322.8,127.1 L323.5,127.4 L324.2,127.8 L324.9,128.2 L325.6,128.5 L326.2,128.9 L326.9,129.3 L327.6,129.8 L328.3,130.2 L329.0,130.6 L329.6,131.1 L330.3,131.5 L331.0,132.0 L331.7,132.5 L332.4,133.0 L333.0,133.5 L333.7,134.0 L334.4,134.5 L335.1,135.0 L335.8,135.5 L336.4,136.1 L337.1,136.6 L337.8,137.2 L338.5,137.7 L339.2,138.3 L339.8,138.9 L340.5,139.4 L341.2,140.0 L341.9,140.6 L342.6,141.2 L343.2,141.8 L343.9,142.5 L344.6,143.1 L345.3,143.7 L346.0,144.3 L346.6,145.0 L347.3,145.6 L348.0,146.3 L348.7,146.9 L349.4,147.6 L350.0,148.2 L350.7,148.9 L351.4,149.5 L352.1,150.2 L352.8,150.9 L353.4,151.5 L354.1,152.2 L354.8,152.9 L355.5,153.6 L356.2,154.2 L356.8,154.9 L357.5,155.6 L358.2,156.3 L358.9,156.9 L359.6,157.6 L360.2,158.3 L360.9,159.0 L361.6,159.6 L362.3,160.3 L363.0,160.9 L363.6,161.6 L364.3,162.3 L365.0,162.9 L365.7,163.5 L366.4,164.2 L367.0,164.8 L367.7,165.4 L368.4,166.0 L369.1,166.7 L369.8,167.3 L370.4,167.8 L371.1,168.4 L371.8,169.0 L372.5,169.6 L373.2,170.1 L373.8,170.7 L374.5,171.2 L375.2,171.7 L375.9,172.2 L376.6,172.7 L377.2,173.2 L377.9,173.7 L378.6,174.2 L379.3,174.6 L380.0,175.1 L380.6,175.5 L381.3,175.9 L382.0,176.3 L382.7,176.7 L383.4,177.0 L384.0,177.4 L384.7,177.7 L385.4,178.1 L386.1,178.4 L386.8,178.7 L387.4,179.0 L388.1,179.2 L388.8,179.5 L389.5,179.7 L390.2,180.0 L390.8,180.2 L391.5,180.4 L392.2,180.6 L392.9,180.7 L393.6,180.9 L394.2,181.1 L394.9,181.2 L395.6,181.3 L396.3,181.4 L397.0,181.5 L397.6,181.6 L398.3,181.7 L399.0,181.8 L399.7,181.9 L400.4,181.9 L401.0,182.0 L401.7,182.0 L402.4,182.0 L403.1,182.0 L403.8,182.0 L404.4,182.1 L405.7,182.0 L406.4,182.0 L407.1,182.0 L407.8,182.0 L408.5,182.0 L409.1,181.9 L409.8,181.9 L410.5,181.9 L411.2,181.8 L411.9,181.8 L412.5,181.8 L413.2,181.7 L413.9,181.7 L414.6,181.6 L415.3,181.6 L416.0,181.5" fill="none" stroke="#ea580c" stroke-width="1.9" stroke-linecap="round" stroke-linejoin="round"/>
<line x1="76.0" y1="338.0" x2="76.0" y2="344.0" stroke="#94a3b8" stroke-width="1.4" stroke-linecap="butt"/>
<text x="76.0" y="356.0" font-size="11.5" fill="#64748b" text-anchor="middle" font-weight="400">-6</text>
<line x1="161.0" y1="338.0" x2="161.0" y2="344.0" stroke="#94a3b8" stroke-width="1.4" stroke-linecap="butt"/>
<text x="161.0" y="356.0" font-size="11.5" fill="#64748b" text-anchor="middle" font-weight="400">-3</text>
<line x1="246.0" y1="338.0" x2="246.0" y2="344.0" stroke="#94a3b8" stroke-width="1.4" stroke-linecap="butt"/>
<text x="246.0" y="356.0" font-size="11.5" fill="#64748b" text-anchor="middle" font-weight="400">0</text>
<line x1="331.0" y1="338.0" x2="331.0" y2="344.0" stroke="#94a3b8" stroke-width="1.4" stroke-linecap="butt"/>
<text x="331.0" y="356.0" font-size="11.5" fill="#64748b" text-anchor="middle" font-weight="400">3</text>
<line x1="416.0" y1="338.0" x2="416.0" y2="344.0" stroke="#94a3b8" stroke-width="1.4" stroke-linecap="butt"/>
<text x="416.0" y="356.0" font-size="11.5" fill="#64748b" text-anchor="middle" font-weight="400">6</text>
<text x="246.0" y="376.0" font-size="11.5" fill="#64748b" text-anchor="middle" font-weight="700">각도 [°]</text>
<text x="88.0" y="78.0" font-size="11.5" fill="#64748b" text-anchor="start" font-weight="700">dB</text>
<text x="246.0" y="66.0" font-size="12" fill="#1e293b" text-anchor="middle" font-weight="700">합 Σ (파랑) 와 차 Δ (주황)</text>
<text x="246.0" y="91.9" font-size="10.5" fill="#2563eb" text-anchor="middle" font-weight="700">Σ 정점은 평평하다</text>
<text x="246.0" y="306.3" font-size="10.5" fill="#ea580c" text-anchor="middle" font-weight="700">Δ 는 정면이 널</text>
<rect x="470.0" y="88.0" width="336.0" height="250.0" rx="8" fill="#f8fafc" stroke="#cbd5e1" stroke-width="1.4"/>
<line x1="470.0" y1="338.0" x2="806.0" y2="338.0" stroke="#94a3b8" stroke-width="1.6" stroke-linecap="butt"/>
<line x1="470.0" y1="338.0" x2="470.0" y2="88.0" stroke="#94a3b8" stroke-width="1.6" stroke-linecap="butt"/>
<line x1="465.0" y1="291.1" x2="470.0" y2="291.1" stroke="#94a3b8" stroke-width="1.4" stroke-linecap="butt"/>
<text x="462.0" y="295.1" font-size="11.5" fill="#64748b" text-anchor="end" font-weight="400">-1</text>
<line x1="470.0" y1="291.1" x2="806.0" y2="291.1" stroke="#cbd5e1" stroke-width="1" stroke-linecap="butt" stroke-dasharray="3 4"/>
<line x1="465.0" y1="213.0" x2="470.0" y2="213.0" stroke="#94a3b8" stroke-width="1.4" stroke-linecap="butt"/>
<text x="462.0" y="217.0" font-size="11.5" fill="#64748b" text-anchor="end" font-weight="400">0</text>
<line x1="470.0" y1="213.0" x2="806.0" y2="213.0" stroke="#cbd5e1" stroke-width="1" stroke-linecap="butt" stroke-dasharray="3 4"/>
<line x1="465.0" y1="134.9" x2="470.0" y2="134.9" stroke="#94a3b8" stroke-width="1.4" stroke-linecap="butt"/>
<text x="462.0" y="138.9" font-size="11.5" fill="#64748b" text-anchor="end" font-weight="400">1</text>
<line x1="470.0" y1="134.9" x2="806.0" y2="134.9" stroke="#cbd5e1" stroke-width="1" stroke-linecap="butt" stroke-dasharray="3 4"/>
<path d="M470.0,338.0 L470.2,338.0 L470.3,337.8 L470.5,337.5 L470.7,337.3 L470.8,337.0 L471.0,336.8 L471.2,336.5 L471.3,336.2 L471.5,336.0 L471.7,335.7 L471.8,335.5 L472.0,335.2 L472.2,335.0 L472.4,334.7 L472.5,334.5 L472.7,334.2 L472.9,334.0 L473.0,333.7 L473.2,333.5 L473.4,333.2 L473.5,333.0 L473.7,332.7 L473.9,332.5 L474.0,332.2 L474.2,332.0 L474.4,331.8 L474.5,331.5 L474.7,331.3 L474.9,331.0 L475.0,330.8 L475.2,330.5 L475.4,330.3 L475.5,330.1 L475.7,329.8 L475.9,329.6 L476.0,329.3 L476.2,329.1 L476.4,328.9 L476.6,328.6 L476.7,328.4 L476.9,328.2 L477.1,327.9 L477.2,327.7 L477.4,327.5 L477.6,327.2 L477.7,327.0 L477.9,326.8 L478.1,326.5 L478.2,326.3 L478.4,326.1 L478.6,325.9 L478.7,325.6 L478.9,325.4 L479.1,325.2 L479.2,324.9 L479.4,324.7 L479.6,324.5 L479.7,324.3 L479.9,324.0 L480.1,323.8 L480.2,323.6 L480.4,323.4 L480.6,323.1 L480.8,322.9 L480.9,322.7 L481.1,322.5 L481.3,322.3 L481.4,322.0 L481.6,321.8 L481.8,321.6 L481.9,321.4 L482.1,321.2 L482.3,321.0 L482.4,320.7 L482.6,320.5 L482.8,320.3 L482.9,320.1 L483.1,319.9 L483.3,319.7 L483.4,319.5 L483.6,319.2 L483.8,319.0 L483.9,318.8 L484.1,318.6 L484.3,318.4 L484.4,318.2 L484.6,318.0 L484.8,317.8 L485.0,317.6 L485.1,317.3 L485.3,317.1 L485.5,316.9 L485.6,316.7 L485.8,316.5 L486.0,316.3 L486.1,316.1 L486.3,315.9 L486.5,315.7 L486.6,315.5 L486.8,315.3 L487.0,315.1 L487.1,314.9 L487.3,314.7 L487.5,314.5 L487.6,314.3 L487.8,314.1 L488.0,313.9 L488.1,313.7 L488.3,313.5 L488.5,313.3 L488.6,313.1 L488.8,312.9 L489.0,312.7 L489.2,312.5 L489.3,312.3 L489.5,312.1 L489.7,311.9 L489.8,311.7 L490.0,311.5 L490.2,311.3 L490.3,311.1 L490.5,310.9 L490.7,310.7 L490.8,310.5 L491.0,310.3 L491.2,310.1 L491.3,310.0 L491.5,309.8 L491.7,309.6 L491.8,309.4 L492.0,309.2 L492.2,309.0 L492.3,308.8 L492.5,308.6 L492.7,308.4 L492.8,308.2 L493.0,308.1 L493.2,307.9 L493.4,307.7 L493.5,307.5 L493.7,307.3 L493.9,307.1 L494.0,306.9 L494.2,306.8 L494.4,306.6 L494.5,306.4 L494.7,306.2 L494.9,306.0 L495.0,305.8 L495.2,305.7 L495.4,305.5 L495.5,305.3 L495.7,305.1 L495.9,304.9 L496.0,304.7 L496.2,304.6 L496.4,304.4 L496.5,304.2 L496.7,304.0 L496.9,303.8 L497.0,303.7 L497.2,303.5 L497.4,303.3 L497.6,303.1 L497.7,303.0 L497.9,302.8 L498.1,302.6 L498.2,302.4 L498.4,302.2 L498.6,302.1 L498.7,301.9 L498.9,301.7 L499.1,301.5 L499.2,301.4 L499.4,301.2 L499.6,301.0 L499.7,300.9 L499.9,300.7 L500.1,300.5 L500.2,300.3 L500.4,300.2 L500.6,300.0 L500.7,299.8 L500.9,299.7 L501.1,299.5 L501.2,299.3 L501.4,299.1 L501.6,299.0 L501.8,298.8 L501.9,298.6 L502.1,298.5 L502.3,298.3 L502.4,298.1 L502.6,298.0 L502.8,297.8 L502.9,297.6 L503.1,297.5 L503.3,297.3 L503.4,297.1 L503.6,297.0 L503.8,296.8 L503.9,296.6 L504.1,296.5 L504.3,296.3 L504.4,296.1 L504.6,296.0 L504.8,295.8 L504.9,295.7 L505.1,295.5 L505.3,295.3 L505.4,295.2 L505.6,295.0 L505.8,294.9 L506.0,294.7 L506.1,294.5 L506.3,294.4 L506.5,294.2 L506.6,294.0 L506.8,293.9 L507.0,293.7 L507.1,293.6 L507.3,293.4 L507.5,293.3 L507.6,293.1 L507.8,292.9 L508.0,292.8 L508.1,292.6 L508.3,292.5 L508.5,292.3 L508.6,292.2 L508.8,292.0 L509.0,291.8 L509.1,291.7 L509.3,291.5 L509.5,291.4 L509.6,291.2 L509.8,291.1 L510.0,290.9 L510.2,290.8 L510.3,290.6 L510.5,290.5 L510.7,290.3 L510.8,290.1 L511.0,290.0 L511.2,289.8 L511.3,289.7 L511.5,289.5 L511.7,289.4 L511.8,289.2 L512.0,289.1 L512.2,288.9 L512.3,288.8 L512.5,288.6 L512.7,288.5 L512.8,288.3 L513.0,288.2 L513.2,288.0 L513.3,287.9 L513.5,287.7 L513.7,287.6 L513.8,287.4 L514.0,287.3 L514.2,287.1 L514.4,287.0 L514.5,286.9 L514.7,286.7 L514.9,286.6 L515.0,286.4 L515.2,286.3 L515.4,286.1 L515.5,286.0 L515.7,285.8 L515.9,285.7 L516.0,285.5 L516.2,285.4 L516.4,285.3 L516.5,285.1 L516.7,285.0 L516.9,284.8 L517.0,284.7 L517.2,284.5 L517.4,284.4 L517.5,284.3 L517.7,284.1 L517.9,284.0 L518.0,283.8 L518.2,283.7 L518.4,283.5 L518.6,283.4 L518.7,283.3 L518.9,283.1 L519.1,283.0 L519.2,282.8 L519.4,282.7 L519.6,282.6 L519.7,282.4 L519.9,282.3 L520.1,282.1 L520.2,282.0 L520.4,281.9 L520.6,281.7 L520.7,281.6 L520.9,281.4 L521.1,281.3 L521.2,281.2 L521.4,281.0 L521.6,280.9 L521.7,280.8 L521.9,280.6 L522.1,280.5 L522.2,280.4 L522.4,280.2 L522.6,280.1 L522.8,279.9 L522.9,279.8 L523.1,279.7 L523.3,279.5 L523.4,279.4 L523.6,279.3 L523.8,279.1 L523.9,279.0 L524.1,278.9 L524.3,278.7 L524.4,278.6 L524.6,278.5 L524.8,278.3 L524.9,278.2 L525.1,278.1 L525.3,277.9 L525.4,277.8 L525.6,277.7 L525.8,277.5 L525.9,277.4 L526.1,277.3 L526.3,277.1 L526.4,277.0 L526.6,276.9 L526.8,276.8 L527.0,276.6 L527.1,276.5 L527.3,276.4 L527.5,276.2 L527.6,276.1 L527.8,276.0 L528.0,275.8 L528.1,275.7 L528.3,275.6 L528.5,275.5 L528.6,275.3 L528.8,275.2 L529.0,275.1 L529.1,274.9 L529.3,274.8 L529.5,274.7 L529.6,274.6 L529.8,274.4 L530.0,274.3 L530.1,274.2 L530.3,274.0 L530.5,273.9 L530.6,273.8 L530.8,273.7 L531.0,273.5 L531.2,273.4 L531.3,273.3 L531.5,273.2 L531.7,273.0 L531.8,272.9 L532.0,272.8 L532.2,272.7 L532.3,272.5 L532.5,272.4 L532.7,272.3 L532.8,272.2 L533.0,272.0 L533.2,271.9 L533.3,271.8 L533.5,271.7 L533.7,271.5 L533.8,271.4 L534.0,271.3 L534.2,271.2 L534.3,271.1 L534.5,270.9 L534.7,270.8 L534.8,270.7 L535.0,270.6 L535.2,270.4 L535.4,270.3 L535.5,270.2 L535.7,270.1 L535.9,270.0 L536.0,269.8 L536.2,269.7 L536.4,269.6 L536.5,269.5 L536.7,269.4 L536.9,269.2 L537.0,269.1 L537.2,269.0 L537.4,268.9 L537.5,268.8 L537.7,268.6 L537.9,268.5 L538.0,268.4 L538.2,268.3 L538.4,268.2 L538.5,268.0 L538.7,267.9 L538.9,267.8 L539.0,267.7 L539.2,267.6 L539.4,267.5 L539.6,267.3 L539.7,267.2 L539.9,267.1 L540.1,267.0 L540.2,266.9 L540.4,266.8 L540.6,266.6 L540.7,266.5 L540.9,266.4 L541.1,266.3 L541.2,266.2 L541.4,266.1 L541.6,265.9 L541.7,265.8 L541.9,265.7 L542.1,265.6 L542.2,265.5 L542.4,265.4 L542.6,265.2 L542.7,265.1 L542.9,265.0 L543.1,264.9 L543.2,264.8 L543.4,264.7 L543.6,264.6 L543.8,264.4 L543.9,264.3 L544.1,264.2 L544.3,264.1 L544.4,264.0 L544.6,263.9 L544.8,263.8 L544.9,263.7 L545.1,263.5 L545.3,263.4 L545.4,263.3 L545.6,263.2 L545.8,263.1 L545.9,263.0 L546.1,262.9 L546.3,262.8 L546.4,262.6 L546.6,262.5 L546.8,262.4 L546.9,262.3 L547.1,262.2 L547.3,262.1 L547.4,262.0 L547.6,261.9 L547.8,261.8 L548.0,261.6 L548.1,261.5 L548.3,261.4 L548.5,261.3 L548.6,261.2 L548.8,261.1 L549.0,261.0 L549.1,260.9 L549.3,260.8 L549.5,260.6 L549.6,260.5 L549.8,260.4 L550.0,260.3 L550.1,260.2 L550.3,260.1 L550.5,260.0 L550.6,259.9 L550.8,259.8 L551.0,259.7 L551.1,259.6 L551.3,259.5 L551.5,259.3 L551.6,259.2 L551.8,259.1 L552.0,259.0 L552.2,258.9 L552.3,258.8 L552.5,258.7 L552.7,258.6 L552.8,258.5 L553.0,258.4 L553.2,258.3 L553.3,258.2 L553.5,258.1 L553.7,258.0 L553.8,257.8 L554.0,257.7 L554.2,257.6 L554.3,257.5 L554.5,257.4 L554.7,257.3 L554.8,257.2 L555.0,257.1 L555.2,257.0 L555.3,256.9 L555.5,256.8 L555.7,256.7 L555.8,256.6 L556.0,256.5 L556.2,256.4 L556.4,256.3 L556.5,256.2 L556.7,256.1 L556.9,255.9 L557.0,255.8 L557.2,255.7 L557.4,255.6 L557.5,255.5 L557.7,255.4 L557.9,255.3 L558.0,255.2 L558.2,255.1 L558.4,255.0 L558.5,254.9 L558.7,254.8 L558.9,254.7 L559.0,254.6 L559.2,254.5 L559.4,254.4 L559.5,254.3 L559.7,254.2 L559.9,254.1 L560.0,254.0 L560.2,253.9 L560.4,253.8 L560.6,253.7 L560.7,253.6 L560.9,253.5 L561.1,253.4 L561.2,253.3 L561.4,253.2 L561.6,253.1 L561.7,253.0 L561.9,252.9 L562.1,252.8 L562.2,252.7 L562.4,252.6 L562.6,252.5 L562.7,252.4 L562.9,252.3 L563.1,252.2 L563.2,252.1 L563.4,252.0 L563.6,251.9 L563.7,251.8 L563.9,251.7 L564.1,251.6 L564.2,251.5 L564.4,251.4 L564.6,251.3 L564.8,251.2 L564.9,251.1 L565.1,251.0 L565.3,250.9 L565.4,250.8 L565.6,250.7 L565.8,250.6 L565.9,250.5 L566.1,250.4 L566.3,250.3 L566.4,250.2 L566.6,250.1 L566.8,250.0 L566.9,249.9 L567.1,249.8 L567.3,249.7 L567.4,249.6 L567.6,249.5 L567.8,249.4 L567.9,249.3 L568.1,249.2 L568.3,249.1 L568.4,249.0 L568.6,248.9 L568.8,248.8 L569.0,248.7 L569.1,248.6 L569.3,248.5 L569.5,248.4 L569.6,248.3 L569.8,248.2 L570.0,248.1 L570.1,248.0 L570.3,247.9 L570.5,247.8 L570.6,247.7 L570.8,247.6 L571.0,247.5 L571.1,247.4 L571.3,247.3 L571.5,247.2 L571.6,247.1 L571.8,247.1 L572.0,247.0 L572.1,246.9 L572.3,246.8 L572.5,246.7 L572.6,246.6 L572.8,246.5 L573.0,246.4 L573.2,246.3 L573.3,246.2 L573.5,246.1 L573.7,246.0 L573.8,245.9 L574.0,245.8 L574.2,245.7 L574.3,245.6 L574.5,245.5 L574.7,245.4 L574.8,245.3 L575.0,245.2 L575.2,245.1 L575.3,245.1 L575.5,245.0 L575.7,244.9 L575.8,244.8 L576.0,244.7 L576.2,244.6 L576.3,244.5 L576.5,244.4 L576.7,244.3 L576.8,244.2 L577.0,244.1 L577.2,244.0 L577.4,243.9 L577.5,243.8 L577.7,243.7 L577.9,243.6 L578.0,243.5 L578.2,243.5 L578.4,243.4 L578.5,243.3 L578.7,243.2 L578.9,243.1 L579.0,243.0 L579.2,242.9 L579.4,242.8 L579.5,242.7 L579.7,242.6 L579.9,242.5 L580.0,242.4 L580.2,242.3 L580.4,242.2 L580.5,242.2 L580.7,242.1 L580.9,242.0 L581.0,241.9 L581.2,241.8 L581.4,241.7 L581.6,241.6 L581.7,241.5 L581.9,241.4 L582.1,241.3 L582.2,241.2 L582.4,241.1 L582.6,241.1 L582.7,241.0 L582.9,240.9 L583.1,240.8 L583.2,240.7 L583.4,240.6 L583.6,240.5 L583.7,240.4 L583.9,240.3 L584.1,240.2 L584.2,240.1 L584.4,240.0 L584.6,240.0 L584.7,239.9 L584.9,239.8 L585.1,239.7 L585.2,239.6 L585.4,239.5 L585.6,239.4 L585.8,239.3 L585.9,239.2 L586.1,239.1 L586.3,239.1 L586.4,239.0 L586.6,238.9 L586.8,238.8 L586.9,238.7 L587.1,238.6 L587.3,238.5 L587.4,238.4 L587.6,238.3 L587.8,238.2 L587.9,238.2 L588.1,238.1 L588.3,238.0 L588.4,237.9 L588.6,237.8 L588.8,237.7 L588.9,237.6 L589.1,237.5 L589.3,237.4 L589.4,237.4 L589.6,237.3 L589.8,237.2 L590.0,237.1 L590.1,237.0 L590.3,236.9 L590.5,236.8 L590.6,236.7 L590.8,236.6 L591.0,236.5 L591.1,236.5 L591.3,236.4 L591.5,236.3 L591.6,236.2 L591.8,236.1 L592.0,236.0 L592.1,235.9 L592.3,235.8 L592.5,235.8 L592.6,235.7 L592.8,235.6 L593.0,235.5 L593.1,235.4 L593.3,235.3 L593.5,235.2 L593.6,235.1 L593.8,235.0 L594.0,235.0 L594.2,234.9 L594.3,234.8 L594.5,234.7 L594.7,234.6 L594.8,234.5 L595.0,234.4 L595.2,234.3 L595.3,234.3 L595.5,234.2 L595.7,234.1 L595.8,234.0 L596.0,233.9 L596.2,233.8 L596.3,233.7 L596.5,233.6 L596.7,233.6 L596.8,233.5 L597.0,233.4 L597.2,233.3 L597.3,233.2 L597.5,233.1 L597.7,233.0 L597.8,233.0 L598.0,232.9 L598.2,232.8 L598.4,232.7 L598.5,232.6 L598.7,232.5 L598.9,232.4 L599.0,232.3 L599.2,232.3 L599.4,232.2 L599.5,232.1 L599.7,232.0 L599.9,231.9 L600.0,231.8 L600.2,231.7 L600.4,231.7 L600.5,231.6 L600.7,231.5 L600.9,231.4 L601.0,231.3 L601.2,231.2 L601.4,231.1 L601.5,231.1 L601.7,231.0 L601.9,230.9 L602.0,230.8 L602.2,230.7 L602.4,230.6 L602.6,230.5 L602.7,230.5 L602.9,230.4 L603.1,230.3 L603.2,230.2 L603.4,230.1 L603.6,230.0 L603.7,229.9 L603.9,229.9 L604.1,229.8 L604.2,229.7 L604.4,229.6 L604.6,229.5 L604.7,229.4 L604.9,229.3 L605.1,229.3 L605.2,229.2 L605.4,229.1 L605.6,229.0 L605.7,228.9 L605.9,228.8 L606.1,228.7 L606.2,228.7 L606.4,228.6 L606.6,228.5 L606.8,228.4 L606.9,228.3 L607.1,228.2 L607.3,228.2 L607.4,228.1 L607.6,228.0 L607.8,227.9 L607.9,227.8 L608.1,227.7 L608.3,227.6 L608.4,227.6 L608.6,227.5 L608.8,227.4 L608.9,227.3 L609.1,227.2 L609.3,227.1 L609.4,227.1 L609.6,227.0 L609.8,226.9 L609.9,226.8 L610.1,226.7 L610.3,226.6 L610.4,226.6 L610.6,226.5 L610.8,226.4 L611.0,226.3 L611.1,226.2 L611.3,226.1 L611.5,226.0 L611.6,226.0 L611.8,225.9 L612.0,225.8 L612.1,225.7 L612.3,225.6 L612.5,225.5 L612.6,225.5 L612.8,225.4 L613.0,225.3 L613.1,225.2 L613.3,225.1 L613.5,225.0 L613.6,225.0 L613.8,224.9 L614.0,224.8 L614.1,224.7 L614.3,224.6 L614.5,224.5 L614.6,224.5 L614.8,224.4 L615.0,224.3 L615.2,224.2 L615.3,224.1 L615.5,224.0 L615.7,224.0 L615.8,223.9 L616.0,223.8 L616.2,223.7 L616.3,223.6 L616.5,223.5 L616.7,223.5 L616.8,223.4 L617.0,223.3 L617.2,223.2 L617.3,223.1 L617.5,223.0 L617.7,223.0 L617.8,222.9 L618.0,222.8 L618.2,222.7 L618.3,222.6 L618.5,222.5 L618.7,222.5 L618.8,222.4 L619.0,222.3 L619.2,222.2 L619.4,222.1 L619.5,222.0 L619.7,222.0 L619.9,221.9 L620.0,221.8 L620.2,221.7 L620.4,221.6 L620.5,221.5 L620.7,221.5 L620.9,221.4 L621.0,221.3 L621.2,221.2 L621.4,221.1 L621.5,221.1 L621.7,221.0 L621.9,220.9 L622.0,220.8 L622.2,220.7 L622.4,220.6 L622.5,220.6 L622.7,220.5 L622.9,220.4 L623.0,220.3 L623.2,220.2 L623.4,220.1 L623.6,220.1 L623.7,220.0 L623.9,219.9 L624.1,219.8 L624.2,219.7 L624.4,219.6 L624.6,219.6 L624.7,219.5 L624.9,219.4 L625.1,219.3 L625.2,219.2 L625.4,219.2 L625.6,219.1 L625.7,219.0 L625.9,218.9 L626.1,218.8 L626.2,218.7 L626.4,218.7 L626.6,218.6 L626.7,218.5 L626.9,218.4 L627.1,218.3 L627.2,218.2 L627.4,218.2 L627.6,218.1 L627.8,218.0 L627.9,217.9 L628.1,217.8 L628.3,217.8 L628.4,217.7 L628.6,217.6 L628.8,217.5 L628.9,217.4 L629.1,217.3 L629.3,217.3 L629.4,217.2 L629.6,217.1 L629.8,217.0 L629.9,216.9 L630.1,216.9 L630.3,216.8 L630.4,216.7 L630.6,216.6 L630.8,216.5 L630.9,216.4 L631.1,216.4 L631.3,216.3 L631.4,216.2 L631.6,216.1 L631.8,216.0 L632.0,215.9 L632.1,215.9 L632.3,215.8 L632.5,215.7 L632.6,215.6 L632.8,215.5 L633.0,215.5 L633.1,215.4 L633.3,215.3 L633.5,215.2 L633.6,215.1 L633.8,215.0 L634.0,215.0 L634.1,214.9 L634.3,214.8 L634.5,214.7 L634.6,214.6 L634.8,214.6 L635.0,214.5 L635.1,214.4 L635.3,214.3 L635.5,214.2 L635.6,214.1 L635.8,214.1 L636.0,214.0 L636.2,213.9 L636.3,213.8 L636.5,213.7 L636.7,213.7 L636.8,213.6 L637.0,213.5 L637.2,213.4 L637.3,213.3 L637.5,213.2 L637.7,213.2 L637.8,213.1 L638.0,213.0 L638.2,212.9 L638.3,212.8 L638.5,212.8 L638.7,212.7 L638.8,212.6 L639.0,212.5 L639.2,212.4 L639.3,212.3 L639.5,212.3 L639.7,212.2 L639.8,212.1 L640.0,212.0 L640.2,211.9 L640.4,211.9 L640.5,211.8 L640.7,211.7 L640.9,211.6 L641.0,211.5 L641.2,211.4 L641.4,211.4 L641.5,211.3 L641.7,211.2 L641.9,211.1 L642.0,211.0 L642.2,211.0 L642.4,210.9 L642.5,210.8 L642.7,210.7 L642.9,210.6 L643.0,210.5 L643.2,210.5 L643.4,210.4 L643.5,210.3 L643.7,210.2 L643.9,210.1 L644.0,210.1 L644.2,210.0 L644.4,209.9 L644.6,209.8 L644.7,209.7 L644.9,209.6 L645.1,209.6 L645.2,209.5 L645.4,209.4 L645.6,209.3 L645.7,209.2 L645.9,209.1 L646.1,209.1 L646.2,209.0 L646.4,208.9 L646.6,208.8 L646.7,208.7 L646.9,208.7 L647.1,208.6 L647.2,208.5 L647.4,208.4 L647.6,208.3 L647.7,208.2 L647.9,208.2 L648.1,208.1 L648.2,208.0 L648.4,207.9 L648.6,207.8 L648.8,207.8 L648.9,207.7 L649.1,207.6 L649.3,207.5 L649.4,207.4 L649.6,207.3 L649.8,207.3 L649.9,207.2 L650.1,207.1 L650.3,207.0 L650.4,206.9 L650.6,206.8 L650.8,206.8 L650.9,206.7 L651.1,206.6 L651.3,206.5 L651.4,206.4 L651.6,206.4 L651.8,206.3 L651.9,206.2 L652.1,206.1 L652.3,206.0 L652.4,205.9 L652.6,205.9 L652.8,205.8 L653.0,205.7 L653.1,205.6 L653.3,205.5 L653.5,205.4 L653.6,205.4 L653.8,205.3 L654.0,205.2 L654.1,205.1 L654.3,205.0 L654.5,204.9 L654.6,204.9 L654.8,204.8 L655.0,204.7 L655.1,204.6 L655.3,204.5 L655.5,204.5 L655.6,204.4 L655.8,204.3 L656.0,204.2 L656.1,204.1 L656.3,204.0 L656.5,204.0 L656.6,203.9 L656.8,203.8 L657.0,203.7 L657.2,203.6 L657.3,203.5 L657.5,203.5 L657.7,203.4 L657.8,203.3 L658.0,203.2 L658.2,203.1 L658.3,203.0 L658.5,203.0 L658.7,202.9 L658.8,202.8 L659.0,202.7 L659.2,202.6 L659.3,202.5 L659.5,202.5 L659.7,202.4 L659.8,202.3 L660.0,202.2 L660.2,202.1 L660.3,202.0 L660.5,202.0 L660.7,201.9 L660.8,201.8 L661.0,201.7 L661.2,201.6 L661.4,201.5 L661.5,201.5 L661.7,201.4 L661.9,201.3 L662.0,201.2 L662.2,201.1 L662.4,201.0 L662.5,201.0 L662.7,200.9 L662.9,200.8 L663.0,200.7 L663.2,200.6 L663.4,200.5 L663.5,200.5 L663.7,200.4 L663.9,200.3 L664.0,200.2 L664.2,200.1 L664.4,200.0 L664.5,200.0 L664.7,199.9 L664.9,199.8 L665.0,199.7 L665.2,199.6 L665.4,199.5 L665.6,199.4 L665.7,199.4 L665.9,199.3 L666.1,199.2 L666.2,199.1 L666.4,199.0 L666.6,198.9 L666.7,198.9 L666.9,198.8 L667.1,198.7 L667.2,198.6 L667.4,198.5 L667.6,198.4 L667.7,198.4 L667.9,198.3 L668.1,198.2 L668.2,198.1 L668.4,198.0 L668.6,197.9 L668.7,197.8 L668.9,197.8 L669.1,197.7 L669.2,197.6 L669.4,197.5 L669.6,197.4 L669.8,197.3 L669.9,197.3 L670.1,197.2 L670.3,197.1 L670.4,197.0 L670.6,196.9 L670.8,196.8 L670.9,196.7 L671.1,196.7 L671.3,196.6 L671.4,196.5 L671.6,196.4 L671.8,196.3 L671.9,196.2 L672.1,196.1 L672.3,196.1 L672.4,196.0 L672.6,195.9 L672.8,195.8 L672.9,195.7 L673.1,195.6 L673.3,195.5 L673.4,195.5 L673.6,195.4 L673.8,195.3 L674.0,195.2 L674.1,195.1 L674.3,195.0 L674.5,194.9 L674.6,194.9 L674.8,194.8 L675.0,194.7 L675.1,194.6 L675.3,194.5 L675.5,194.4 L675.6,194.3 L675.8,194.3 L676.0,194.2 L676.1,194.1 L676.3,194.0 L676.5,193.9 L676.6,193.8 L676.8,193.7 L677.0,193.7 L677.1,193.6 L677.3,193.5 L677.5,193.4 L677.6,193.3 L677.8,193.2 L678.0,193.1 L678.2,193.0 L678.3,193.0 L678.5,192.9 L678.7,192.8 L678.8,192.7 L679.0,192.6 L679.2,192.5 L679.3,192.4 L679.5,192.4 L679.7,192.3 L679.8,192.2 L680.0,192.1 L680.2,192.0 L680.3,191.9 L680.5,191.8 L680.7,191.7 L680.8,191.7 L681.0,191.6 L681.2,191.5 L681.3,191.4 L681.5,191.3 L681.7,191.2 L681.8,191.1 L682.0,191.0 L682.2,191.0 L682.4,190.9 L682.5,190.8 L682.7,190.7 L682.9,190.6 L683.0,190.5 L683.2,190.4 L683.4,190.3 L683.5,190.2 L683.7,190.2 L683.9,190.1 L684.0,190.0 L684.2,189.9 L684.4,189.8 L684.5,189.7 L684.7,189.6 L684.9,189.5 L685.0,189.5 L685.2,189.4 L685.4,189.3 L685.5,189.2 L685.7,189.1 L685.9,189.0 L686.0,188.9 L686.2,188.8 L686.4,188.7 L686.6,188.6 L686.7,188.6 L686.9,188.5 L687.1,188.4 L687.2,188.3 L687.4,188.2 L687.6,188.1 L687.7,188.0 L687.9,187.9 L688.1,187.8 L688.2,187.8 L688.4,187.7 L688.6,187.6 L688.7,187.5 L688.9,187.4 L689.1,187.3 L689.2,187.2 L689.4,187.1 L689.6,187.0 L689.7,186.9 L689.9,186.9 L690.1,186.8 L690.2,186.7 L690.4,186.6 L690.6,186.5 L690.8,186.4 L690.9,186.3 L691.1,186.2 L691.3,186.1 L691.4,186.0 L691.6,186.0 L691.8,185.9 L691.9,185.8 L692.1,185.7 L692.3,185.6 L692.4,185.5 L692.6,185.4 L692.8,185.3 L692.9,185.2 L693.1,185.1 L693.3,185.0 L693.4,184.9 L693.6,184.9 L693.8,184.8 L693.9,184.7 L694.1,184.6 L694.3,184.5 L694.4,184.4 L694.6,184.3 L694.8,184.2 L695.0,184.1 L695.1,184.0 L695.3,183.9 L695.5,183.8 L695.6,183.8 L695.8,183.7 L696.0,183.6 L696.1,183.5 L696.3,183.4 L696.5,183.3 L696.6,183.2 L696.8,183.1 L697.0,183.0 L697.1,182.9 L697.3,182.8 L697.5,182.7 L697.6,182.6 L697.8,182.5 L698.0,182.5 L698.1,182.4 L698.3,182.3 L698.5,182.2 L698.6,182.1 L698.8,182.0 L699.0,181.9 L699.2,181.8 L699.3,181.7 L699.5,181.6 L699.7,181.5 L699.8,181.4 L700.0,181.3 L700.2,181.2 L700.3,181.1 L700.5,181.0 L700.7,180.9 L700.8,180.9 L701.0,180.8 L701.2,180.7 L701.3,180.6 L701.5,180.5 L701.7,180.4 L701.8,180.3 L702.0,180.2 L702.2,180.1 L702.3,180.0 L702.5,179.9 L702.7,179.8 L702.8,179.7 L703.0,179.6 L703.2,179.5 L703.4,179.4 L703.5,179.3 L703.7,179.2 L703.9,179.1 L704.0,179.0 L704.2,178.9 L704.4,178.9 L704.5,178.8 L704.7,178.7 L704.9,178.6 L705.0,178.5 L705.2,178.4 L705.4,178.3 L705.5,178.2 L705.7,178.1 L705.9,178.0 L706.0,177.9 L706.2,177.8 L706.4,177.7 L706.5,177.6 L706.7,177.5 L706.9,177.4 L707.0,177.3 L707.2,177.2 L707.4,177.1 L707.6,177.0 L707.7,176.9 L707.9,176.8 L708.1,176.7 L708.2,176.6 L708.4,176.5 L708.6,176.4 L708.7,176.3 L708.9,176.2 L709.1,176.1 L709.2,176.0 L709.4,175.9 L709.6,175.8 L709.7,175.7 L709.9,175.6 L710.1,175.5 L710.2,175.4 L710.4,175.3 L710.6,175.2 L710.7,175.1 L710.9,175.0 L711.1,174.9 L711.2,174.8 L711.4,174.7 L711.6,174.6 L711.8,174.5 L711.9,174.4 L712.1,174.3 L712.3,174.2 L712.4,174.1 L712.6,174.0 L712.8,173.9 L712.9,173.8 L713.1,173.7 L713.3,173.6 L713.4,173.5 L713.6,173.4 L713.8,173.3 L713.9,173.2 L714.1,173.1 L714.3,173.0 L714.4,172.9 L714.6,172.8 L714.8,172.7 L714.9,172.6 L715.1,172.5 L715.3,172.4 L715.4,172.3 L715.6,172.2 L715.8,172.1 L716.0,172.0 L716.1,171.9 L716.3,171.8 L716.5,171.7 L716.6,171.6 L716.8,171.5 L717.0,171.4 L717.1,171.3 L717.3,171.2 L717.5,171.1 L717.6,171.0 L717.8,170.9 L718.0,170.8 L718.1,170.7 L718.3,170.6 L718.5,170.5 L718.6,170.4 L718.8,170.3 L719.0,170.2 L719.1,170.1 L719.3,169.9 L719.5,169.8 L719.6,169.7 L719.8,169.6 L720.0,169.5 L720.2,169.4 L720.3,169.3 L720.5,169.2 L720.7,169.1 L720.8,169.0 L721.0,168.9 L721.2,168.8 L721.3,168.7 L721.5,168.6 L721.7,168.5 L721.8,168.4 L722.0,168.3 L722.2,168.2 L722.3,168.0 L722.5,167.9 L722.7,167.8 L722.8,167.7 L723.0,167.6 L723.2,167.5 L723.3,167.4 L723.5,167.3 L723.7,167.2 L723.8,167.1 L724.0,167.0 L724.2,166.9 L724.4,166.8 L724.5,166.7 L724.7,166.5 L724.9,166.4 L725.0,166.3 L725.2,166.2 L725.4,166.1 L725.5,166.0 L725.7,165.9 L725.9,165.8 L726.0,165.7 L726.2,165.6 L726.4,165.5 L726.5,165.4 L726.7,165.2 L726.9,165.1 L727.0,165.0 L727.2,164.9 L727.4,164.8 L727.5,164.7 L727.7,164.6 L727.9,164.5 L728.0,164.4 L728.2,164.2 L728.4,164.1 L728.6,164.0 L728.7,163.9 L728.9,163.8 L729.1,163.7 L729.2,163.6 L729.4,163.5 L729.6,163.4 L729.7,163.2 L729.9,163.1 L730.1,163.0 L730.2,162.9 L730.4,162.8 L730.6,162.7 L730.7,162.6 L730.9,162.5 L731.1,162.3 L731.2,162.2 L731.4,162.1 L731.6,162.0 L731.7,161.9 L731.9,161.8 L732.1,161.7 L732.2,161.6 L732.4,161.4 L732.6,161.3 L732.8,161.2 L732.9,161.1 L733.1,161.0 L733.3,160.9 L733.4,160.8 L733.6,160.6 L733.8,160.5 L733.9,160.4 L734.1,160.3 L734.3,160.2 L734.4,160.1 L734.6,159.9 L734.8,159.8 L734.9,159.7 L735.1,159.6 L735.3,159.5 L735.4,159.4 L735.6,159.2 L735.8,159.1 L735.9,159.0 L736.1,158.9 L736.3,158.8 L736.4,158.7 L736.6,158.5 L736.8,158.4 L737.0,158.3 L737.1,158.2 L737.3,158.1 L737.5,158.0 L737.6,157.8 L737.8,157.7 L738.0,157.6 L738.1,157.5 L738.3,157.4 L738.5,157.2 L738.6,157.1 L738.8,157.0 L739.0,156.9 L739.1,156.8 L739.3,156.6 L739.5,156.5 L739.6,156.4 L739.8,156.3 L740.0,156.2 L740.1,156.0 L740.3,155.9 L740.5,155.8 L740.6,155.7 L740.8,155.6 L741.0,155.4 L741.2,155.3 L741.3,155.2 L741.5,155.1 L741.7,154.9 L741.8,154.8 L742.0,154.7 L742.2,154.6 L742.3,154.5 L742.5,154.3 L742.7,154.2 L742.8,154.1 L743.0,154.0 L743.2,153.8 L743.3,153.7 L743.5,153.6 L743.7,153.5 L743.8,153.3 L744.0,153.2 L744.2,153.1 L744.3,153.0 L744.5,152.8 L744.7,152.7 L744.8,152.6 L745.0,152.5 L745.2,152.3 L745.4,152.2 L745.5,152.1 L745.7,152.0 L745.9,151.8 L746.0,151.7 L746.2,151.6 L746.4,151.4 L746.5,151.3 L746.7,151.2 L746.9,151.1 L747.0,150.9 L747.2,150.8 L747.4,150.7 L747.5,150.5 L747.7,150.4 L747.9,150.3 L748.0,150.2 L748.2,150.0 L748.4,149.9 L748.5,149.8 L748.7,149.6 L748.9,149.5 L749.0,149.4 L749.2,149.2 L749.4,149.1 L749.6,149.0 L749.7,148.9 L749.9,148.7 L750.1,148.6 L750.2,148.5 L750.4,148.3 L750.6,148.2 L750.7,148.1 L750.9,147.9 L751.1,147.8 L751.2,147.7 L751.4,147.5 L751.6,147.4 L751.7,147.3 L751.9,147.1 L752.1,147.0 L752.2,146.9 L752.4,146.7 L752.6,146.6 L752.7,146.5 L752.9,146.3 L753.1,146.2 L753.2,146.1 L753.4,145.9 L753.6,145.8 L753.8,145.6 L753.9,145.5 L754.1,145.4 L754.3,145.2 L754.4,145.1 L754.6,145.0 L754.8,144.8 L754.9,144.7 L755.1,144.6 L755.3,144.4 L755.4,144.3 L755.6,144.1 L755.8,144.0 L755.9,143.9 L756.1,143.7 L756.3,143.6 L756.4,143.4 L756.6,143.3 L756.8,143.2 L756.9,143.0 L757.1,142.9 L757.3,142.7 L757.4,142.6 L757.6,142.5 L757.8,142.3 L758.0,142.2 L758.1,142.0 L758.3,141.9 L758.5,141.7 L758.6,141.6 L758.8,141.5 L759.0,141.3 L759.1,141.2 L759.3,141.0 L759.5,140.9 L759.6,140.7 L759.8,140.6 L760.0,140.5 L760.1,140.3 L760.3,140.2 L760.5,140.0 L760.6,139.9 L760.8,139.7 L761.0,139.6 L761.1,139.4 L761.3,139.3 L761.5,139.1 L761.6,139.0 L761.8,138.9 L762.0,138.7 L762.2,138.6 L762.3,138.4 L762.5,138.3 L762.7,138.1 L762.8,138.0 L763.0,137.8 L763.2,137.7 L763.3,137.5 L763.5,137.4 L763.7,137.2 L763.8,137.1 L764.0,136.9 L764.2,136.8 L764.3,136.6 L764.5,136.5 L764.7,136.3 L764.8,136.2 L765.0,136.0 L765.2,135.9 L765.3,135.7 L765.5,135.5 L765.7,135.4 L765.8,135.2 L766.0,135.1 L766.2,134.9 L766.4,134.8 L766.5,134.6 L766.7,134.5 L766.9,134.3 L767.0,134.2 L767.2,134.0 L767.4,133.8 L767.5,133.7 L767.7,133.5 L767.9,133.4 L768.0,133.2 L768.2,133.1 L768.4,132.9 L768.5,132.7 L768.7,132.6 L768.9,132.4 L769.0,132.3 L769.2,132.1 L769.4,132.0 L769.5,131.8 L769.7,131.6 L769.9,131.5 L770.0,131.3 L770.2,131.1 L770.4,131.0 L770.6,130.8 L770.7,130.7 L770.9,130.5 L771.1,130.3 L771.2,130.2 L771.4,130.0 L771.6,129.9 L771.7,129.7 L771.9,129.5 L772.1,129.4 L772.2,129.2 L772.4,129.0 L772.6,128.9 L772.7,128.7 L772.9,128.5 L773.1,128.4 L773.2,128.2 L773.4,128.0 L773.6,127.9 L773.7,127.7 L773.9,127.5 L774.1,127.4 L774.2,127.2 L774.4,127.0 L774.6,126.9 L774.8,126.7 L774.9,126.5 L775.1,126.3 L775.3,126.2 L775.4,126.0 L775.6,125.8 L775.8,125.7 L775.9,125.5 L776.1,125.3 L776.3,125.1 L776.4,125.0 L776.6,124.8 L776.8,124.6 L776.9,124.5 L777.1,124.3 L777.3,124.1 L777.4,123.9 L777.6,123.8 L777.8,123.6 L777.9,123.4 L778.1,123.2 L778.3,123.0 L778.4,122.9 L778.6,122.7 L778.8,122.5 L779.0,122.3 L779.1,122.2 L779.3,122.0 L779.5,121.8 L779.6,121.6 L779.8,121.4 L780.0,121.3 L780.1,121.1 L780.3,120.9 L780.5,120.7 L780.6,120.5 L780.8,120.3 L781.0,120.2 L781.1,120.0 L781.3,119.8 L781.5,119.6 L781.6,119.4 L781.8,119.2 L782.0,119.1 L782.1,118.9 L782.3,118.7 L782.5,118.5 L782.6,118.3 L782.8,118.1 L783.0,117.9 L783.2,117.8 L783.3,117.6 L783.5,117.4 L783.7,117.2 L783.8,117.0 L784.0,116.8 L784.2,116.6 L784.3,116.4 L784.5,116.2 L784.7,116.0 L784.8,115.9 L785.0,115.7 L785.2,115.5 L785.3,115.3 L785.5,115.1 L785.7,114.9 L785.8,114.7 L786.0,114.5 L786.2,114.3 L786.3,114.1 L786.5,113.9 L786.7,113.7 L786.8,113.5 L787.0,113.3 L787.2,113.1 L787.4,112.9 L787.5,112.7 L787.7,112.5 L787.9,112.3 L788.0,112.1 L788.2,111.9 L788.4,111.7 L788.5,111.5 L788.7,111.3 L788.9,111.1 L789.0,110.9 L789.2,110.7 L789.4,110.5 L789.5,110.3 L789.7,110.1 L789.9,109.9 L790.0,109.7 L790.2,109.5 L790.4,109.3 L790.5,109.1 L790.7,108.9 L790.9,108.7 L791.0,108.4 L791.2,108.2 L791.4,108.0 L791.6,107.8 L791.7,107.6 L791.9,107.4 L792.1,107.2 L792.2,107.0 L792.4,106.8 L792.6,106.5 L792.7,106.3 L792.9,106.1 L793.1,105.9 L793.2,105.7 L793.4,105.5 L793.6,105.3 L793.7,105.0 L793.9,104.8 L794.1,104.6 L794.2,104.4 L794.4,104.2 L794.6,104.0 L794.7,103.7 L794.9,103.5 L795.1,103.3 L795.2,103.1 L795.4,102.9 L795.6,102.6 L795.8,102.4 L795.9,102.2 L796.1,102.0 L796.3,101.7 L796.4,101.5 L796.6,101.3 L796.8,101.1 L796.9,100.8 L797.1,100.6 L797.3,100.4 L797.4,100.1 L797.6,99.9 L797.8,99.7 L797.9,99.5 L798.1,99.2 L798.3,99.0 L798.4,98.8 L798.6,98.5 L798.8,98.3 L798.9,98.1 L799.1,97.8 L799.3,97.6 L799.4,97.4 L799.6,97.1 L799.8,96.9 L800.0,96.7 L800.1,96.4 L800.3,96.2 L800.5,95.9 L800.6,95.7 L800.8,95.5 L801.0,95.2 L801.1,95.0 L801.3,94.7 L801.5,94.5 L801.6,94.2 L801.8,94.0 L802.0,93.8 L802.1,93.5 L802.3,93.3 L802.5,93.0 L802.6,92.8 L802.8,92.5 L803.0,92.3 L803.1,92.0 L803.3,91.8 L803.5,91.5 L803.6,91.3 L803.8,91.0 L804.0,90.8 L804.2,90.5 L804.3,90.3 L804.5,90.0 L804.7,89.8 L804.8,89.5 L805.0,89.2 L805.2,89.0 L805.3,88.7 L805.5,88.5 L805.7,88.2 L805.8,88.0 L806.0,88.0" fill="none" stroke="#16a34a" stroke-width="1.9" stroke-linecap="round" stroke-linejoin="round"/>
<line x1="470.0" y1="213.0" x2="806.0" y2="213.0" stroke="#64748b" stroke-width="1.0" stroke-linecap="butt" stroke-dasharray="4 4"/>
<line x1="470.0" y1="338.0" x2="470.0" y2="344.0" stroke="#94a3b8" stroke-width="1.4" stroke-linecap="butt"/>
<text x="470.0" y="356.0" font-size="11.5" fill="#64748b" text-anchor="middle" font-weight="400">-2</text>
<line x1="554.0" y1="338.0" x2="554.0" y2="344.0" stroke="#94a3b8" stroke-width="1.4" stroke-linecap="butt"/>
<text x="554.0" y="356.0" font-size="11.5" fill="#64748b" text-anchor="middle" font-weight="400">-1</text>
<line x1="638.0" y1="338.0" x2="638.0" y2="344.0" stroke="#94a3b8" stroke-width="1.4" stroke-linecap="butt"/>
<text x="638.0" y="356.0" font-size="11.5" fill="#64748b" text-anchor="middle" font-weight="400">0</text>
<line x1="722.0" y1="338.0" x2="722.0" y2="344.0" stroke="#94a3b8" stroke-width="1.4" stroke-linecap="butt"/>
<text x="722.0" y="356.0" font-size="11.5" fill="#64748b" text-anchor="middle" font-weight="400">1</text>
<line x1="806.0" y1="338.0" x2="806.0" y2="344.0" stroke="#94a3b8" stroke-width="1.4" stroke-linecap="butt"/>
<text x="806.0" y="356.0" font-size="11.5" fill="#64748b" text-anchor="middle" font-weight="400">2</text>
<text x="638.0" y="376.0" font-size="11.5" fill="#64748b" text-anchor="middle" font-weight="700">정면에서 벗어난 각도 [°]</text>
<text x="482.0" y="78.0" font-size="11.5" fill="#64748b" text-anchor="start" font-weight="700">Δ/Σ</text>
<text x="638.0" y="66.0" font-size="12" fill="#1e293b" text-anchor="middle" font-weight="700">판별 곡선 — 기울기가 각도가 된다</text>
<text x="478.4" y="109.9" font-size="10.5" fill="#16a34a" text-anchor="start" font-weight="700">빔폭 안에서는 직선이다</text>
<rect x="76.0" y="378.0" width="730.0" height="62.0" rx="8" fill="#f8fafc" stroke="#cbd5e1" stroke-width="1.4"/>
<text x="441.0" y="402.0" font-size="12" fill="#1e293b" text-anchor="middle" font-weight="400">Σ 정점은 0.1° 벗어나도 0.02 dB 라 각도 정보가 없다. Δ/Σ 의 기울기(k_m = 1.35)가 그 정보를 만든다.</text>
<text x="441.0" y="424.0" font-size="11.5" fill="#64748b" text-anchor="middle" font-weight="400">SNR 13 dB 면 단일 펄스로 빔폭의 1/8 인 0.30°, 20 dB 면 1/19 인 0.14° 까지 잰다. 처리는 모노펄스 장에서.</text>
</svg>
