<svg width="2580" height="1524" xmlns="http://www.w3.org/2000/svg" viewBox="0 0 860 508" font-family="Segoe UI, Malgun Gothic, Apple SD Gothic Neo, sans-serif">
<defs><marker id="ar-mute" viewBox="0 0 10 10" refX="8.5" refY="5" markerWidth="6.5" markerHeight="6.5" orient="auto-start-reverse"><path d="M0,0 L10,5 L0,10 z" fill="#64748b"/></marker><marker id="ar-blue" viewBox="0 0 10 10" refX="8.5" refY="5" markerWidth="6.5" markerHeight="6.5" orient="auto-start-reverse"><path d="M0,0 L10,5 L0,10 z" fill="#2563eb"/></marker><marker id="ar-orange" viewBox="0 0 10 10" refX="8.5" refY="5" markerWidth="6.5" markerHeight="6.5" orient="auto-start-reverse"><path d="M0,0 L10,5 L0,10 z" fill="#ea580c"/></marker><marker id="ar-green" viewBox="0 0 10 10" refX="8.5" refY="5" markerWidth="6.5" markerHeight="6.5" orient="auto-start-reverse"><path d="M0,0 L10,5 L0,10 z" fill="#16a34a"/></marker><marker id="ar-red" viewBox="0 0 10 10" refX="8.5" refY="5" markerWidth="6.5" markerHeight="6.5" orient="auto-start-reverse"><path d="M0,0 L10,5 L0,10 z" fill="#dc2626"/></marker><marker id="ar-violet" viewBox="0 0 10 10" refX="8.5" refY="5" markerWidth="6.5" markerHeight="6.5" orient="auto-start-reverse"><path d="M0,0 L10,5 L0,10 z" fill="#7c3aed"/></marker><marker id="ar-axis" viewBox="0 0 10 10" refX="8.5" refY="5" markerWidth="6.5" markerHeight="6.5" orient="auto-start-reverse"><path d="M0,0 L10,5 L0,10 z" fill="#94a3b8"/></marker><marker id="ar-sky" viewBox="0 0 10 10" refX="8.5" refY="5" markerWidth="6.5" markerHeight="6.5" orient="auto-start-reverse"><path d="M0,0 L10,5 L0,10 z" fill="#0284c7"/></marker></defs>
<rect x="1" y="1" width="858" height="506" rx="14" fill="#ffffff" stroke="#e2e8f0" stroke-width="2"/>
<text x="430.0" y="34.0" font-size="17" fill="#1e293b" text-anchor="middle" font-weight="700">합산이 일어나는 자리 — 아날로그, 디지털, 하이브리드</text>
<rect x="210.0" y="62.0" width="32.0" height="16.0" rx="3" fill="#7c3aed" fill-opacity="0.2"/>
<rect x="210.0" y="62.0" width="32.0" height="16.0" rx="3" fill="none" stroke="#7c3aed" stroke-width="1.2"/>
<text x="226.0" y="74.0" font-size="10" fill="#7c3aed" text-anchor="middle" font-weight="700">φ</text>
<text x="248.0" y="74.0" font-size="10" fill="#64748b" text-anchor="start" font-weight="400">위상 이동기</text>
<rect x="360.0" y="62.0" width="32.0" height="16.0" rx="3" fill="#ea580c" fill-opacity="0.2"/>
<rect x="360.0" y="62.0" width="32.0" height="16.0" rx="3" fill="none" stroke="#ea580c" stroke-width="1.2"/>
<text x="376.0" y="74.0" font-size="10" fill="#ea580c" text-anchor="middle" font-weight="700">ADC</text>
<text x="398.0" y="74.0" font-size="10" fill="#64748b" text-anchor="start" font-weight="400">숫자로 바꾸는 곳</text>
<rect x="510.0" y="62.0" width="32.0" height="16.0" rx="3" fill="#16a34a" fill-opacity="0.2"/>
<rect x="510.0" y="62.0" width="32.0" height="16.0" rx="3" fill="none" stroke="#16a34a" stroke-width="1.2"/>
<text x="526.0" y="74.0" font-size="10" fill="#16a34a" text-anchor="middle" font-weight="700">Σ</text>
<text x="548.0" y="74.0" font-size="10" fill="#64748b" text-anchor="start" font-weight="400">합치는 곳</text>
<text x="144.0" y="104.0" font-size="12.5" fill="#2563eb" text-anchor="middle" font-weight="700">아날로그 빔포밍</text>
<rect x="30.0" y="114.0" width="228.0" height="288.0" rx="8" fill="#f8fafc" stroke="#cbd5e1" stroke-width="1.4"/>
<rect x="51.0" y="128.0" width="26.0" height="14.0" rx="3" fill="#2563eb" fill-opacity="0.3"/>
<rect x="51.0" y="128.0" width="26.0" height="14.0" rx="3" fill="none" stroke="#2563eb" stroke-width="1.4"/>
<line x1="64.0" y1="142.0" x2="64.0" y2="152.0" stroke="#64748b" stroke-width="1.1" stroke-linecap="butt"/>
<rect x="52.0" y="152.0" width="24.0" height="18.0" rx="3" fill="#7c3aed" fill-opacity="0.2"/>
<rect x="52.0" y="152.0" width="24.0" height="18.0" rx="3" fill="none" stroke="#7c3aed" stroke-width="1.3"/>
<text x="64.0" y="165.0" font-size="10" fill="#7c3aed" text-anchor="middle" font-weight="700">φ</text>
<line x1="64.0" y1="170.0" x2="64.0" y2="196.0" stroke="#64748b" stroke-width="1.1" stroke-linecap="butt"/>
<rect x="91.0" y="128.0" width="26.0" height="14.0" rx="3" fill="#2563eb" fill-opacity="0.3"/>
<rect x="91.0" y="128.0" width="26.0" height="14.0" rx="3" fill="none" stroke="#2563eb" stroke-width="1.4"/>
<line x1="104.0" y1="142.0" x2="104.0" y2="152.0" stroke="#64748b" stroke-width="1.1" stroke-linecap="butt"/>
<rect x="92.0" y="152.0" width="24.0" height="18.0" rx="3" fill="#7c3aed" fill-opacity="0.2"/>
<rect x="92.0" y="152.0" width="24.0" height="18.0" rx="3" fill="none" stroke="#7c3aed" stroke-width="1.3"/>
<text x="104.0" y="165.0" font-size="10" fill="#7c3aed" text-anchor="middle" font-weight="700">φ</text>
<line x1="104.0" y1="170.0" x2="104.0" y2="196.0" stroke="#64748b" stroke-width="1.1" stroke-linecap="butt"/>
<rect x="131.0" y="128.0" width="26.0" height="14.0" rx="3" fill="#2563eb" fill-opacity="0.3"/>
<rect x="131.0" y="128.0" width="26.0" height="14.0" rx="3" fill="none" stroke="#2563eb" stroke-width="1.4"/>
<line x1="144.0" y1="142.0" x2="144.0" y2="152.0" stroke="#64748b" stroke-width="1.1" stroke-linecap="butt"/>
<rect x="132.0" y="152.0" width="24.0" height="18.0" rx="3" fill="#7c3aed" fill-opacity="0.2"/>
<rect x="132.0" y="152.0" width="24.0" height="18.0" rx="3" fill="none" stroke="#7c3aed" stroke-width="1.3"/>
<text x="144.0" y="165.0" font-size="10" fill="#7c3aed" text-anchor="middle" font-weight="700">φ</text>
<line x1="144.0" y1="170.0" x2="144.0" y2="196.0" stroke="#64748b" stroke-width="1.1" stroke-linecap="butt"/>
<rect x="171.0" y="128.0" width="26.0" height="14.0" rx="3" fill="#2563eb" fill-opacity="0.3"/>
<rect x="171.0" y="128.0" width="26.0" height="14.0" rx="3" fill="none" stroke="#2563eb" stroke-width="1.4"/>
<line x1="184.0" y1="142.0" x2="184.0" y2="152.0" stroke="#64748b" stroke-width="1.1" stroke-linecap="butt"/>
<rect x="172.0" y="152.0" width="24.0" height="18.0" rx="3" fill="#7c3aed" fill-opacity="0.2"/>
<rect x="172.0" y="152.0" width="24.0" height="18.0" rx="3" fill="none" stroke="#7c3aed" stroke-width="1.3"/>
<text x="184.0" y="165.0" font-size="10" fill="#7c3aed" text-anchor="middle" font-weight="700">φ</text>
<line x1="184.0" y1="170.0" x2="184.0" y2="196.0" stroke="#64748b" stroke-width="1.1" stroke-linecap="butt"/>
<rect x="211.0" y="128.0" width="26.0" height="14.0" rx="3" fill="#2563eb" fill-opacity="0.3"/>
<rect x="211.0" y="128.0" width="26.0" height="14.0" rx="3" fill="none" stroke="#2563eb" stroke-width="1.4"/>
<line x1="224.0" y1="142.0" x2="224.0" y2="152.0" stroke="#64748b" stroke-width="1.1" stroke-linecap="butt"/>
<rect x="212.0" y="152.0" width="24.0" height="18.0" rx="3" fill="#7c3aed" fill-opacity="0.2"/>
<rect x="212.0" y="152.0" width="24.0" height="18.0" rx="3" fill="none" stroke="#7c3aed" stroke-width="1.3"/>
<text x="224.0" y="165.0" font-size="10" fill="#7c3aed" text-anchor="middle" font-weight="700">φ</text>
<line x1="224.0" y1="170.0" x2="224.0" y2="196.0" stroke="#64748b" stroke-width="1.1" stroke-linecap="butt"/>
<line x1="64.0" y1="196.0" x2="224.0" y2="196.0" stroke="#64748b" stroke-width="1.5" stroke-linecap="butt"/>
<line x1="144.0" y1="196.0" x2="144.0" y2="204.0" stroke="#64748b" stroke-width="1.3" stroke-linecap="butt"/>
<circle cx="144.0" cy="216.0" r="12" fill="none" stroke="#16a34a" stroke-width="1.9"/>
<text x="144.0" y="221.0" font-size="13" fill="#16a34a" text-anchor="middle" font-weight="700">Σ</text>
<text x="164.0" y="220.0" font-size="9.5" fill="#16a34a" text-anchor="start" font-weight="700">전파인 채로</text>
<line x1="144.0" y1="228.0" x2="144.0" y2="244.0" stroke="#64748b" stroke-width="1.3" stroke-linecap="butt"/>
<rect x="86.0" y="244.0" width="116.0" height="24.0" rx="3" fill="#2563eb" fill-opacity="0.2"/>
<rect x="86.0" y="244.0" width="116.0" height="24.0" rx="3" fill="none" stroke="#2563eb" stroke-width="1.3"/>
<text x="144.0" y="260.0" font-size="10.5" fill="#2563eb" text-anchor="middle" font-weight="700">수신기 · ADC 한 벌</text>
<line x1="144.0" y1="268.0" x2="144.0" y2="292.0" stroke="#2563eb" stroke-width="1.6" stroke-linecap="butt" marker-end="url(#ar-blue)"/>
<text x="144.0" y="308.0" font-size="11.5" fill="#1e293b" text-anchor="middle" font-weight="700">빔 하나</text>
<text x="144.0" y="340.0" font-size="10.5" fill="#64748b" text-anchor="middle" font-weight="400">합친 뒤에는 어느 소자가</text>
<text x="144.0" y="356.0" font-size="10.5" fill="#64748b" text-anchor="middle" font-weight="400">무엇을 받았는지 알 수 없다</text>
<text x="144.0" y="380.0" font-size="10.5" fill="#2563eb" text-anchor="middle" font-weight="700">방향을 바꾸려면 φ 를 다시 건다</text>
<text x="144.0" y="420.0" font-size="11" fill="#2563eb" text-anchor="middle" font-weight="700">합산이 안테나 쪽에 있다</text>
<text x="430.0" y="104.0" font-size="12.5" fill="#ea580c" text-anchor="middle" font-weight="700">디지털 빔포밍</text>
<rect x="316.0" y="114.0" width="228.0" height="288.0" rx="8" fill="#f8fafc" stroke="#cbd5e1" stroke-width="1.4"/>
<rect x="337.0" y="128.0" width="26.0" height="14.0" rx="3" fill="#ea580c" fill-opacity="0.3"/>
<rect x="337.0" y="128.0" width="26.0" height="14.0" rx="3" fill="none" stroke="#ea580c" stroke-width="1.4"/>
<line x1="350.0" y1="142.0" x2="350.0" y2="152.0" stroke="#64748b" stroke-width="1.1" stroke-linecap="butt"/>
<rect x="335.0" y="152.0" width="30.0" height="18.0" rx="3" fill="#ea580c" fill-opacity="0.2"/>
<rect x="335.0" y="152.0" width="30.0" height="18.0" rx="3" fill="none" stroke="#ea580c" stroke-width="1.3"/>
<text x="350.0" y="165.0" font-size="9" fill="#ea580c" text-anchor="middle" font-weight="700">ADC</text>
<line x1="350.0" y1="170.0" x2="350.0" y2="200.0" stroke="#64748b" stroke-width="1.1" stroke-linecap="butt"/>
<rect x="377.0" y="128.0" width="26.0" height="14.0" rx="3" fill="#ea580c" fill-opacity="0.3"/>
<rect x="377.0" y="128.0" width="26.0" height="14.0" rx="3" fill="none" stroke="#ea580c" stroke-width="1.4"/>
<line x1="390.0" y1="142.0" x2="390.0" y2="152.0" stroke="#64748b" stroke-width="1.1" stroke-linecap="butt"/>
<rect x="375.0" y="152.0" width="30.0" height="18.0" rx="3" fill="#ea580c" fill-opacity="0.2"/>
<rect x="375.0" y="152.0" width="30.0" height="18.0" rx="3" fill="none" stroke="#ea580c" stroke-width="1.3"/>
<text x="390.0" y="165.0" font-size="9" fill="#ea580c" text-anchor="middle" font-weight="700">ADC</text>
<line x1="390.0" y1="170.0" x2="390.0" y2="200.0" stroke="#64748b" stroke-width="1.1" stroke-linecap="butt"/>
<rect x="417.0" y="128.0" width="26.0" height="14.0" rx="3" fill="#ea580c" fill-opacity="0.3"/>
<rect x="417.0" y="128.0" width="26.0" height="14.0" rx="3" fill="none" stroke="#ea580c" stroke-width="1.4"/>
<line x1="430.0" y1="142.0" x2="430.0" y2="152.0" stroke="#64748b" stroke-width="1.1" stroke-linecap="butt"/>
<rect x="415.0" y="152.0" width="30.0" height="18.0" rx="3" fill="#ea580c" fill-opacity="0.2"/>
<rect x="415.0" y="152.0" width="30.0" height="18.0" rx="3" fill="none" stroke="#ea580c" stroke-width="1.3"/>
<text x="430.0" y="165.0" font-size="9" fill="#ea580c" text-anchor="middle" font-weight="700">ADC</text>
<line x1="430.0" y1="170.0" x2="430.0" y2="200.0" stroke="#64748b" stroke-width="1.1" stroke-linecap="butt"/>
<rect x="457.0" y="128.0" width="26.0" height="14.0" rx="3" fill="#ea580c" fill-opacity="0.3"/>
<rect x="457.0" y="128.0" width="26.0" height="14.0" rx="3" fill="none" stroke="#ea580c" stroke-width="1.4"/>
<line x1="470.0" y1="142.0" x2="470.0" y2="152.0" stroke="#64748b" stroke-width="1.1" stroke-linecap="butt"/>
<rect x="455.0" y="152.0" width="30.0" height="18.0" rx="3" fill="#ea580c" fill-opacity="0.2"/>
<rect x="455.0" y="152.0" width="30.0" height="18.0" rx="3" fill="none" stroke="#ea580c" stroke-width="1.3"/>
<text x="470.0" y="165.0" font-size="9" fill="#ea580c" text-anchor="middle" font-weight="700">ADC</text>
<line x1="470.0" y1="170.0" x2="470.0" y2="200.0" stroke="#64748b" stroke-width="1.1" stroke-linecap="butt"/>
<rect x="497.0" y="128.0" width="26.0" height="14.0" rx="3" fill="#ea580c" fill-opacity="0.3"/>
<rect x="497.0" y="128.0" width="26.0" height="14.0" rx="3" fill="none" stroke="#ea580c" stroke-width="1.4"/>
<line x1="510.0" y1="142.0" x2="510.0" y2="152.0" stroke="#64748b" stroke-width="1.1" stroke-linecap="butt"/>
<rect x="495.0" y="152.0" width="30.0" height="18.0" rx="3" fill="#ea580c" fill-opacity="0.2"/>
<rect x="495.0" y="152.0" width="30.0" height="18.0" rx="3" fill="none" stroke="#ea580c" stroke-width="1.3"/>
<text x="510.0" y="165.0" font-size="9" fill="#ea580c" text-anchor="middle" font-weight="700">ADC</text>
<line x1="510.0" y1="170.0" x2="510.0" y2="200.0" stroke="#64748b" stroke-width="1.1" stroke-linecap="butt"/>
<rect x="330.0" y="200.0" width="200.0" height="52.0" rx="5" fill="#16a34a" fill-opacity="0.12"/>
<rect x="330.0" y="200.0" width="200.0" height="52.0" rx="5" fill="none" stroke="#16a34a" stroke-width="1.4"/>
<text x="430.0" y="218.0" font-size="11.5" fill="#16a34a" text-anchor="middle" font-weight="700">디지털 처리기</text>
<text x="430.0" y="234.0" font-size="9.5" fill="#64748b" text-anchor="middle" font-weight="400">소자마다 받은 숫자에 크기와 위상을</text>
<text x="430.0" y="247.0" font-size="9.5" fill="#64748b" text-anchor="middle" font-weight="400">곱해서 더한다</text>
<line x1="368.0" y1="252.0" x2="368.0" y2="278.0" stroke="#2563eb" stroke-width="1.5" stroke-linecap="butt" marker-end="url(#ar-blue)"/>
<text x="368.0" y="296.0" font-size="11" fill="#1e293b" text-anchor="middle" font-weight="700">빔 1</text>
<line x1="430.0" y1="252.0" x2="430.0" y2="278.0" stroke="#2563eb" stroke-width="1.5" stroke-linecap="butt" marker-end="url(#ar-blue)"/>
<text x="430.0" y="296.0" font-size="11" fill="#1e293b" text-anchor="middle" font-weight="700">빔 2</text>
<line x1="492.0" y1="252.0" x2="492.0" y2="278.0" stroke="#2563eb" stroke-width="1.5" stroke-linecap="butt" marker-end="url(#ar-blue)"/>
<text x="492.0" y="296.0" font-size="11" fill="#1e293b" text-anchor="middle" font-weight="700">빔 k</text>
<text x="430.0" y="328.0" font-size="10.5" fill="#64748b" text-anchor="middle" font-weight="400">소자별 숫자가 그대로 남아 있어</text>
<text x="430.0" y="344.0" font-size="10.5" fill="#64748b" text-anchor="middle" font-weight="400">곱하는 값을 바꿔 몇 번이든 다시 합친다</text>
<text x="430.0" y="380.0" font-size="10.5" fill="#ea580c" text-anchor="middle" font-weight="700">그 곱하는 값이 1절의 가중이다</text>
<text x="430.0" y="420.0" font-size="11" fill="#ea580c" text-anchor="middle" font-weight="700">합산이 프로세서 쪽에 있다</text>
<text x="716.0" y="104.0" font-size="12.5" fill="#0d9488" text-anchor="middle" font-weight="700">하이브리드</text>
<rect x="602.0" y="114.0" width="228.0" height="288.0" rx="8" fill="#f8fafc" stroke="#cbd5e1" stroke-width="1.4"/>
<rect x="613.0" y="128.0" width="26.0" height="14.0" rx="3" fill="#0d9488" fill-opacity="0.3"/>
<rect x="613.0" y="128.0" width="26.0" height="14.0" rx="3" fill="none" stroke="#0d9488" stroke-width="1.4"/>
<line x1="626.0" y1="142.0" x2="626.0" y2="152.0" stroke="#64748b" stroke-width="1.1" stroke-linecap="butt"/>
<rect x="615.0" y="152.0" width="22.0" height="18.0" rx="3" fill="#7c3aed" fill-opacity="0.2"/>
<rect x="615.0" y="152.0" width="22.0" height="18.0" rx="3" fill="none" stroke="#7c3aed" stroke-width="1.3"/>
<text x="626.0" y="165.0" font-size="10" fill="#7c3aed" text-anchor="middle" font-weight="700">φ</text>
<line x1="626.0" y1="170.0" x2="626.0" y2="190.0" stroke="#64748b" stroke-width="1.1" stroke-linecap="butt"/>
<rect x="647.0" y="128.0" width="26.0" height="14.0" rx="3" fill="#0d9488" fill-opacity="0.3"/>
<rect x="647.0" y="128.0" width="26.0" height="14.0" rx="3" fill="none" stroke="#0d9488" stroke-width="1.4"/>
<line x1="660.0" y1="142.0" x2="660.0" y2="152.0" stroke="#64748b" stroke-width="1.1" stroke-linecap="butt"/>
<rect x="649.0" y="152.0" width="22.0" height="18.0" rx="3" fill="#7c3aed" fill-opacity="0.2"/>
<rect x="649.0" y="152.0" width="22.0" height="18.0" rx="3" fill="none" stroke="#7c3aed" stroke-width="1.3"/>
<text x="660.0" y="165.0" font-size="10" fill="#7c3aed" text-anchor="middle" font-weight="700">φ</text>
<line x1="660.0" y1="170.0" x2="660.0" y2="190.0" stroke="#64748b" stroke-width="1.1" stroke-linecap="butt"/>
<rect x="681.0" y="128.0" width="26.0" height="14.0" rx="3" fill="#0d9488" fill-opacity="0.3"/>
<rect x="681.0" y="128.0" width="26.0" height="14.0" rx="3" fill="none" stroke="#0d9488" stroke-width="1.4"/>
<line x1="694.0" y1="142.0" x2="694.0" y2="152.0" stroke="#64748b" stroke-width="1.1" stroke-linecap="butt"/>
<rect x="683.0" y="152.0" width="22.0" height="18.0" rx="3" fill="#7c3aed" fill-opacity="0.2"/>
<rect x="683.0" y="152.0" width="22.0" height="18.0" rx="3" fill="none" stroke="#7c3aed" stroke-width="1.3"/>
<text x="694.0" y="165.0" font-size="10" fill="#7c3aed" text-anchor="middle" font-weight="700">φ</text>
<line x1="694.0" y1="170.0" x2="694.0" y2="190.0" stroke="#64748b" stroke-width="1.1" stroke-linecap="butt"/>
<line x1="626.0" y1="190.0" x2="694.0" y2="190.0" stroke="#64748b" stroke-width="1.5" stroke-linecap="butt"/>
<line x1="660.0" y1="190.0" x2="660.0" y2="196.0" stroke="#64748b" stroke-width="1.3" stroke-linecap="butt"/>
<text x="638.0" y="211.0" font-size="9.5" fill="#0d9488" text-anchor="end" font-weight="700">부배열 1</text>
<circle cx="660.0" cy="207.0" r="10" fill="none" stroke="#16a34a" stroke-width="1.9"/>
<text x="660.0" y="212.0" font-size="13" fill="#16a34a" text-anchor="middle" font-weight="700">Σ</text>
<line x1="660.0" y1="217.0" x2="660.0" y2="228.0" stroke="#64748b" stroke-width="1.3" stroke-linecap="butt"/>
<rect x="643.0" y="228.0" width="34.0" height="18.0" rx="3" fill="#ea580c" fill-opacity="0.2"/>
<rect x="643.0" y="228.0" width="34.0" height="18.0" rx="3" fill="none" stroke="#ea580c" stroke-width="1.3"/>
<text x="660.0" y="241.0" font-size="9" fill="#ea580c" text-anchor="middle" font-weight="700">ADC</text>
<line x1="660.0" y1="246.0" x2="660.0" y2="264.0" stroke="#64748b" stroke-width="1.1" stroke-linecap="butt"/>
<rect x="725.0" y="128.0" width="26.0" height="14.0" rx="3" fill="#0d9488" fill-opacity="0.3"/>
<rect x="725.0" y="128.0" width="26.0" height="14.0" rx="3" fill="none" stroke="#0d9488" stroke-width="1.4"/>
<line x1="738.0" y1="142.0" x2="738.0" y2="152.0" stroke="#64748b" stroke-width="1.1" stroke-linecap="butt"/>
<rect x="727.0" y="152.0" width="22.0" height="18.0" rx="3" fill="#7c3aed" fill-opacity="0.2"/>
<rect x="727.0" y="152.0" width="22.0" height="18.0" rx="3" fill="none" stroke="#7c3aed" stroke-width="1.3"/>
<text x="738.0" y="165.0" font-size="10" fill="#7c3aed" text-anchor="middle" font-weight="700">φ</text>
<line x1="738.0" y1="170.0" x2="738.0" y2="190.0" stroke="#64748b" stroke-width="1.1" stroke-linecap="butt"/>
<rect x="759.0" y="128.0" width="26.0" height="14.0" rx="3" fill="#0d9488" fill-opacity="0.3"/>
<rect x="759.0" y="128.0" width="26.0" height="14.0" rx="3" fill="none" stroke="#0d9488" stroke-width="1.4"/>
<line x1="772.0" y1="142.0" x2="772.0" y2="152.0" stroke="#64748b" stroke-width="1.1" stroke-linecap="butt"/>
<rect x="761.0" y="152.0" width="22.0" height="18.0" rx="3" fill="#7c3aed" fill-opacity="0.2"/>
<rect x="761.0" y="152.0" width="22.0" height="18.0" rx="3" fill="none" stroke="#7c3aed" stroke-width="1.3"/>
<text x="772.0" y="165.0" font-size="10" fill="#7c3aed" text-anchor="middle" font-weight="700">φ</text>
<line x1="772.0" y1="170.0" x2="772.0" y2="190.0" stroke="#64748b" stroke-width="1.1" stroke-linecap="butt"/>
<rect x="793.0" y="128.0" width="26.0" height="14.0" rx="3" fill="#0d9488" fill-opacity="0.3"/>
<rect x="793.0" y="128.0" width="26.0" height="14.0" rx="3" fill="none" stroke="#0d9488" stroke-width="1.4"/>
<line x1="806.0" y1="142.0" x2="806.0" y2="152.0" stroke="#64748b" stroke-width="1.1" stroke-linecap="butt"/>
<rect x="795.0" y="152.0" width="22.0" height="18.0" rx="3" fill="#7c3aed" fill-opacity="0.2"/>
<rect x="795.0" y="152.0" width="22.0" height="18.0" rx="3" fill="none" stroke="#7c3aed" stroke-width="1.3"/>
<text x="806.0" y="165.0" font-size="10" fill="#7c3aed" text-anchor="middle" font-weight="700">φ</text>
<line x1="806.0" y1="170.0" x2="806.0" y2="190.0" stroke="#64748b" stroke-width="1.1" stroke-linecap="butt"/>
<line x1="738.0" y1="190.0" x2="806.0" y2="190.0" stroke="#64748b" stroke-width="1.5" stroke-linecap="butt"/>
<line x1="772.0" y1="190.0" x2="772.0" y2="196.0" stroke="#64748b" stroke-width="1.3" stroke-linecap="butt"/>
<text x="750.0" y="211.0" font-size="9.5" fill="#0d9488" text-anchor="end" font-weight="700">부배열 2</text>
<circle cx="772.0" cy="207.0" r="10" fill="none" stroke="#16a34a" stroke-width="1.9"/>
<text x="772.0" y="212.0" font-size="13" fill="#16a34a" text-anchor="middle" font-weight="700">Σ</text>
<line x1="772.0" y1="217.0" x2="772.0" y2="228.0" stroke="#64748b" stroke-width="1.3" stroke-linecap="butt"/>
<rect x="755.0" y="228.0" width="34.0" height="18.0" rx="3" fill="#ea580c" fill-opacity="0.2"/>
<rect x="755.0" y="228.0" width="34.0" height="18.0" rx="3" fill="none" stroke="#ea580c" stroke-width="1.3"/>
<text x="772.0" y="241.0" font-size="9" fill="#ea580c" text-anchor="middle" font-weight="700">ADC</text>
<line x1="772.0" y1="246.0" x2="772.0" y2="264.0" stroke="#64748b" stroke-width="1.1" stroke-linecap="butt"/>
<line x1="660.0" y1="264.0" x2="772.0" y2="264.0" stroke="#64748b" stroke-width="1.5" stroke-linecap="butt"/>
<line x1="716.0" y1="264.0" x2="716.0" y2="272.0" stroke="#64748b" stroke-width="1.3" stroke-linecap="butt"/>
<rect x="632.0" y="272.0" width="168.0" height="30.0" rx="5" fill="#16a34a" fill-opacity="0.12"/>
<rect x="632.0" y="272.0" width="168.0" height="30.0" rx="5" fill="none" stroke="#16a34a" stroke-width="1.4"/>
<text x="716.0" y="291.0" font-size="11" fill="#16a34a" text-anchor="middle" font-weight="700">디지털 처리기</text>
<line x1="678.0" y1="302.0" x2="678.0" y2="320.0" stroke="#2563eb" stroke-width="1.5" stroke-linecap="butt" marker-end="url(#ar-blue)"/>
<text x="678.0" y="338.0" font-size="11" fill="#1e293b" text-anchor="middle" font-weight="700">빔 1</text>
<line x1="754.0" y1="302.0" x2="754.0" y2="320.0" stroke="#2563eb" stroke-width="1.5" stroke-linecap="butt" marker-end="url(#ar-blue)"/>
<text x="754.0" y="338.0" font-size="11" fill="#1e293b" text-anchor="middle" font-weight="700">빔 2</text>
<text x="716.0" y="366.0" font-size="10.5" fill="#64748b" text-anchor="middle" font-weight="400">부배열 안은 전파로, 부배열 사이는 숫자로</text>
<text x="716.0" y="386.0" font-size="10.5" fill="#0d9488" text-anchor="middle" font-weight="700">채널 수를 줄이면서 자유도를 남긴다</text>
<text x="716.0" y="420.0" font-size="11" fill="#0d9488" text-anchor="middle" font-weight="700">합산이 두 군데로 나뉜다</text>
<rect x="30.0" y="436.0" width="800.0" height="60.0" rx="8" fill="#f8fafc" stroke="#cbd5e1" stroke-width="1.4"/>
<text x="430.0" y="460.0" font-size="12" fill="#1e293b" text-anchor="middle" font-weight="400">왼쪽에서 오른쪽으로 갈수록 합산이 안테나에서 프로세서 쪽으로 옮겨 간다. 그만큼 수신기와 ADC 가 늘고, 나중에 손댈 수 있는 것도 늘어난다.</text>
<text x="430.0" y="482.0" font-size="12" fill="#1e293b" text-anchor="middle" font-weight="400">한 번 합쳐 버리면 그 안을 다시 들여다볼 수 없다. 합산을 늦게 할수록 비싸지고 자유로워진다.</text>
</svg>
